SplineFontDB: 3.2
FontName: NimbusSans-Bold
FullName: Nimbus Sans Bold
FamilyName: Nimbus Sans
Weight: Bold
Copyright: (URW)++,Copyright 2014 by (URW)++ Design & Development
Version: 1.00
ItalicAngle: 0
UnderlinePosition: -385
UnderlineWidth: 141
Ascent: 1602
Descent: 446
InvalidEm: 0
sfntRevision: 0x00010000
LayerCount: 2
Layer: 0 1 "Hinten" 1
Layer: 1 1 "Vorne" 0
XUID: [1021 367 390255522 1384573]
StyleMap: 0x0020
FSType: 8
OS2Version: 4
OS2_WeightWidthSlopeOnly: 0
OS2_UseTypoMetrics: 0
CreationTime: 1495022297
ModificationTime: 1762681018
PfmFamily: 81
TTFWeight: 700
TTFWidth: 5
LineGap: 307
VLineGap: 0
Panose: 0 0 0 0 0 0 0 0 0 0
OS2TypoAscent: 1602
OS2TypoAOffset: 0
OS2TypoDescent: -446
OS2TypoDOffset: 0
OS2TypoLinegap: 307
OS2WinAscent: 1944
OS2WinAOffset: 0
OS2WinDescent: 451
OS2WinDOffset: 0
HheadAscent: 1602
HheadAOffset: 0
HheadDescent: -446
HheadDOffset: 0
OS2SubXSize: 1331
OS2SubYSize: 1331
OS2SubXOff: 0
OS2SubYOff: 307
OS2SupXSize: 1331
OS2SupYSize: 1331
OS2SupXOff: 0
OS2SupYOff: 983
OS2StrikeYSize: 276
OS2StrikeYPos: 700
OS2CapHeight: 1493
OS2XHeight: 1106
OS2FamilyClass: 2053
OS2Vendor: 'URW '
OS2CodePages: 0000009f.00000000
OS2UnicodeRanges: a00002af.100178ff.00000000.00000000
Lookup: 258 8 0 "'kern' Horizontal Kerning lookup 0" { "'kern' Horizontal Kerning lookup 0 subtable" [307,30,0] } ['kern' ('DFLT' <'dflt' > 'grek' <'dflt' > 'latn' <'dflt' > ) ]
MarkAttachClasses: 1
DEI: 91125
TtTable: prep
PUSHW_1
 511
SCANCTRL
PUSHB_1
 1
SCANTYPE
SVTCA[y-axis]
MPPEM
PUSHB_1
 8
LT
IF
PUSHB_2
 1
 1
INSTCTRL
EIF
PUSHB_2
 70
 6
CALL
IF
POP
PUSHB_1
 16
EIF
MPPEM
PUSHB_1
 20
GT
IF
POP
PUSHB_1
 128
EIF
SCVTCI
PUSHB_1
 6
CALL
NOT
IF
SVTCA[y-axis]
PUSHB_1
 5
DUP
RCVT
PUSHB_1
 3
CALL
WCVTP
SVTCA[x-axis]
PUSHB_1
 6
DUP
RCVT
PUSHB_1
 3
CALL
WCVTP
EIF
PUSHB_1
 20
CALL
EndTTInstrs
TtTable: fpgm
PUSHB_1
 0
FDEF
PUSHB_1
 0
SZP0
MPPEM
PUSHB_1
 42
LT
IF
PUSHB_1
 74
SROUND
EIF
PUSHB_1
 0
SWAP
MIAP[rnd]
RTG
PUSHB_1
 6
CALL
IF
RTDG
EIF
MPPEM
PUSHB_1
 42
LT
IF
RDTG
EIF
DUP

StartChar: exclam
Encoding: 33 33 1
Width: 682
GlyphClass: 2
Flags: W
HStem: 0 299<229 536> 1467 20G<229 536>
VStem: 229 307<0 299 950.239 1487>
LayerCount: 2
Fore
SplineSet
536 1487 m 1,0,-1
 536 1057 l 1,1,-1
 451 424 l 1,2,-1
 313 424 l 1,3,-1
 229 1057 l 1,4,-1
 229 1487 l 1,5,-1
 536 1487 l 1,0,-1
536 299 m 1,6,-1
 536 0 l 1,7,-1
 229 0 l 1,8,-1
 229 299 l 1,9,-1
 536 299 l 1,6,-1
EndSplineSet
EndChar

StartChar: quotedbl
Encoding: 34 34 2
Width: 971
GlyphClass: 2
Flags: W
HStem: 963 530<185 298 668 781>
VStem: 102 283<1184.33 1493> 585 283<1184.33 1493>
LayerCount: 2
Fore
SplineSet
385 1493 m 1,0,-1
 385 1228 l 1,1,-1
 298 963 l 1,2,-1
 185 963 l 1,3,-1
 102 1228 l 1,4,-1
 102 1493 l 1,5,-1
 385 1493 l 1,0,-1
868 1493 m 1,6,-1
 868 1228 l 1,7,-1
 781 963 l 1,8,-1
 668 963 l 1,9,-1
 585 1228 l 1,10,-1
 585 1493 l 1,11,-1
 868 1493 l 1,6,-1
EndSplineSet
EndChar

StartChar: numbersign
Encoding: 35 35 3
Width: 1139
GlyphClass: 2
Flags: W
HStem: 352 203<6 164 419 590 846 1050> 868 203<63 266 521 692 948 1132>
VStem: 82 216<-66 150> 376 215<1212 1427> 508 216<-66 150> 802 216<1211 1427>
LayerCount: 2
Fore
SplineSet
298 -66 m 1,0,-1
 82 -66 l 1,1,-1
 164 352 l 1,2,-1
 6 352 l 1,3,-1
 6 555 l 1,4,-1
 204 555 l 1,5,-1
 266 868 l 1,6,-1
 63 868 l 1,7,-1
 63 1071 l 1,8,-1
 306 1071 l 1,9,-1
 376 1427 l 1,10,-1
 591 1427 l 1,11,-1
 521 1071 l 1,12,-1
 732 1071 l 1,13,-1
 802 1427 l 1,14,-1
 1018 1427 l 1,15,-1
 948 1071 l 1,16,-1
 1132 1071 l 1,17,-1
 1132 868 l 1,18,-1
 908 868 l 1,19,-1
 846 555 l 1,20,-1
 1050 555 l 1,21,-1
 1050 352 l 1,22,-1
 806 352 l 1,23,-1
 724 -66 l 1,24,-1
 508 -66 l 1,25,-1
 590 352 l 1,26,-1
 380 352 l 1,27,-1
 298 -66 l 1,0,-1
419 555 m 1,28,-1
 630 555 l 1,29,-1
 692 868 l 1,30,-1
 482 868 l 1,31,-1
 419 555 l 1,28,-1
EndSplineSet
EndChar

StartChar: dollar
Encoding: 36 36 4
Width: 1139
GlyphClass: 2
Flags: W
HStem: -44 219<397.527 497 635 733.495> 1245 206<396.219 497 635 729.75>
VStem: 45 267<267.142 424> 79 253<944.703 1182.4> 497 138<-259 -38.8438 175 578 874 1245 1446.43 1563> 795 262<1019 1180.49> 808 269<245.493 500.25>
LayerCount: 2
Fore
SplineSet
635 175 m 1,0,1
 808 219 808 219 808 371.5 c 128,-1,2
 808 524 808 524 635 578 c 1,3,-1
 635 175 l 1,0,1
497 1245 m 1,4,5
 332 1212 332 1212 332 1056 c 0,6,7
 332 926 332 926 497 874 c 1,8,-1
 497 1245 l 1,4,5
1057 1019 m 1,9,-1
 795 1019 l 1,10,11
 793 1222 793 1222 635 1245 c 1,12,-1
 635 832 l 1,13,14
 805 786 805 786 897 728 c 0,15,16
 1077 615 1077 615 1077 400 c 0,17,18
 1076 152 1076 152 892 34 c 0,19,20
 800 -26 800 -26 635 -44 c 1,21,-1
 635 -259 l 1,22,-1
 497 -259 l 1,23,-1
 497 -44 l 1,24,25
 328 -27 328 -27 222 50 c 0,26,27
 45 178 45 178 45 406 c 2,28,-1
 45 424 l 1,29,-1
 312 424 l 1,30,31
 323 207 323 207 497 175 c 1,32,-1
 497 612 l 1,33,34
 79 707 79 707 79 1047 c 0,35,36
 79 1269 79 1269 257 1379 c 0,37,38
 354 1438 354 1438 497 1451 c 1,39,-1
 497 1563 l 1,40,-1
 635 1563 l 1,41,-1
 635 1451 l 1,42,43
 836 1434 836 1434 945 1322 c 128,-1,44
 1054 1210 1054 1210 1057 1019 c 1,9,-1
EndSplineSet
EndChar

StartChar: percent
Encoding: 37 37 5
Width: 1821
GlyphClass: 2
Flags: W
HStem: -26 201<1275.52 1506.2> 518 203<1276.54 1506.67> 690 201<305.893 537.387> 1233 203<304.482 537.295> 1431 20G<1229.13 1397>
VStem: 45 203<948.683 1175.56> 595 203<948.498 1176.96> 1015 203<232.776 460.179> 1564 203<232.591 461.591>
LayerCount: 2
Fore
SplineSet
422.5 1436 m 128,-1,1
 577 1436 577 1436 687.5 1327 c 128,-1,2
 798 1218 798 1218 798 1063.5 c 128,-1,3
 798 909 798 909 688 799.5 c 128,-1,4
 578 690 578 690 421.5 690 c 128,-1,5
 265 690 265 690 155 799.5 c 128,-1,6
 45 909 45 909 45 1064.5 c 128,-1,7
 45 1220 45 1220 156.5 1328 c 128,-1,0
 268 1436 268 1436 422.5 1436 c 128,-1,1
544.5 1183 m 128,-1,9
 494 1233 494 1233 421.5 1233 c 128,-1,10
 349 1233 349 1233 298.5 1183 c 128,-1,11
 248 1133 248 1133 248 1062 c 128,-1,12
 248 991 248 991 299 941 c 128,-1,13
 350 891 350 891 422 891 c 128,-1,14
 494 891 494 891 544.5 941 c 128,-1,15
 595 991 595 991 595 1062 c 128,-1,8
 595 1133 595 1133 544.5 1183 c 128,-1,9
1240 1451 m 1,16,-1
 1397 1451 l 1,17,-1
 587 -41 l 1,18,-1
 429 -41 l 1,19,-1
 1240 1451 l 1,16,-1
1391 -26 m 128,-1,21
 1235 -26 1235 -26 1125 83.5 c 128,-1,22
 1015 193 1015 193 1015 349 c 128,-1,23
 1015 505 1015 505 1126.5 613 c 128,-1,24
 1238 721 1238 721 1392 721 c 128,-1,25
 1546 721 1546 721 1656.5 612 c 128,-1,26
 1767 503 1767 503 1767 348 c 128,-1,27
 1767 193 1767 193 1657 83.5 c 128,-1,20
 1547 -26 1547 -26 1391 -26 c 128,-1,21
1514 467.5 m 128,-1,29
 1464 518 1464 518 1391.5 518 c 128,-1,30
 1319 518 1319 518 1268.5 467.5 c 128,-1,31
 1218 417 1218 417 1218 346 c 128,-1,32
 1218 275 1218 275 1268.5 225 c 128,-1,33
 1319 175 1319 175 1390.5 175 c 128,-1,34
 1462 175 1462 175 1513 225 c 128,-1,35
 1564 275 1564 275 1564 346 c 128,-1,28
 1564 417 1564 417 1514 467.5 c 128,-1,29
EndSplineSet
EndChar

StartChar: ampersand
Encoding: 38 38 6
Width: 1479
GlyphClass: 2
Flags: W
HStem: -47 238<482.773 744.945> 1258 223<562.402 746.201>
VStem: 113 272<294.393 554.97> 266 270<1051.83 1234.28> 772 246<1024.73 1231.39> 1078 232<542.611 763>
LayerCount: 2
Fore
SplineSet
569 654 m 1,0,-1
 474 592 l 2,1,2
 385 535 385 535 385 440 c 128,-1,3
 385 345 385 345 448.5 268 c 128,-1,4
 512 191 512 191 606 191 c 128,-1,5
 700 191 700 191 849 303 c 1,6,-1
 569 654 l 1,0,-1
650 963 m 1,7,8
 772 1032 772 1032 772 1140 c 0,9,10
 772 1196 772 1196 741 1227 c 128,-1,11
 710 1258 710 1258 655.5 1258 c 128,-1,12
 601 1258 601 1258 568.5 1230.5 c 128,-1,13
 536 1203 536 1203 536 1161.5 c 128,-1,14
 536 1120 536 1120 554 1089 c 128,-1,15
 572 1058 572 1058 650 963 c 1,7,8
1310 741 m 2,16,17
 1310 490 1310 490 1169 314 c 1,18,-1
 1422 0 l 1,19,-1
 1092 0 l 1,20,-1
 998 115 l 1,21,22
 873 22 873 22 788.5 -12.5 c 128,-1,23
 704 -47 704 -47 598 -47 c 0,24,25
 383 -47 383 -47 248 74 c 128,-1,26
 113 195 113 195 113 394 c 0,27,28
 113 539 113 539 183.5 632.5 c 128,-1,29
 254 726 254 726 434 821 c 1,30,31
 415 846 415 846 340.5 934.5 c 128,-1,32
 266 1023 266 1023 266 1138 c 0,33,34
 266 1211 266 1211 300 1280.5 c 128,-1,35
 334 1350 334 1350 394 1397 c 0,36,37
 499 1481 499 1481 658.5 1481 c 128,-1,38
 818 1481 818 1481 918 1394 c 128,-1,39
 1018 1307 1018 1307 1018 1179 c 128,-1,40
 1018 1051 1018 1051 967 973.5 c 128,-1,41
 916 896 916 896 779 801 c 1,42,-1
 1016 506 l 1,43,44
 1078 623 1078 623 1078 742 c 0,45,46
 1078 746 1078 746 1077 763 c 1,47,-1
 1310 763 l 1,48,-1
 1310 741 l 2,16,17
EndSplineSet
EndChar

StartChar: quotesingle
Encoding: 39 39 7
Width: 487
GlyphClass: 2
Flags: W
HStem: 963 530<185 298>
VStem: 102 283<1184.33 1493>
LayerCount: 2
Fore
SplineSet
385 1493 m 1,0,-1
 385 1228 l 1,1,-1
 298 963 l 1,2,-1
 185 963 l 1,3,-1
 102 1228 l 1,4,-1
 102 1493 l 1,5,-1
 385 1493 l 1,0,-1
EndSplineSet
EndChar

StartChar: parenleft
Encoding: 40 40 8
Width: 682
GlyphClass: 2
Flags: W
HStem: 1473 20G<372.5 621>
VStem: 82 252<196.237 889.766>
LayerCount: 2
Fore
SplineSet
416 1493 m 1,0,-1
 621 1493 l 1,1,2
 503 1267 503 1267 450 1129 c 0,3,4
 334 828 334 828 334 571.5 c 128,-1,5
 334 315 334 315 395.5 111 c 128,-1,6
 457 -93 457 -93 621 -410 c 1,7,-1
 416 -410 l 1,8,9
 314 -257 314 -257 237 -102 c 0,10,11
 82 210 82 210 82 549 c 128,-1,12
 82 888 82 888 258 1226 c 0,13,14
 329 1362 329 1362 416 1493 c 1,0,-1
EndSplineSet
EndChar

StartChar: parenright
Encoding: 41 41 9
Width: 682
GlyphClass: 2
Flags: W
HStem: 1473 20G<45 301>
VStem: 332 252<197.649 886.604>
LayerCount: 2
Fore
SplineSet
250 -410 m 1,0,-1
 45 -410 l 1,1,2
 163 -183 163 -183 216 -46 c 0,3,4
 332 255 332 255 332 511.5 c 128,-1,5
 332 768 332 768 270.5 971.5 c 128,-1,6
 209 1175 209 1175 45 1493 c 1,7,-1
 250 1493 l 1,8,9
 352 1339 352 1339 428 1185 c 0,10,11
 584 873 584 873 584 534 c 128,-1,12
 584 195 584 195 407 -143 c 0,13,14
 337 -278 337 -278 250 -410 c 1,0,-1
EndSplineSet
EndChar

StartChar: asterisk
Encoding: 42 42 10
Width: 797
GlyphClass: 2
Flags: W
HStem: 833 660
VStem: 314 147<1255 1493>
LayerCount: 2
Fore
SplineSet
269 1113 m 1,0,-1
 47 1187 l 1,1,-1
 92 1329 l 1,2,-1
 314 1255 l 1,3,-1
 314 1493 l 1,4,-1
 461 1493 l 1,5,-1
 461 1255 l 1,6,-1
 683 1329 l 1,7,-1
 729 1187 l 1,8,-1
 506 1113 l 1,9,-1
 644 921 l 1,10,-1
 525 833 l 1,11,-1
 388 1026 l 1,12,-1
 250 833 l 1,13,-1
 131 921 l 1,14,-1
 269 1113 l 1,0,-1
EndSplineSet
EndChar

StartChar: plus
Encoding: 43 43 11
Width: 1196
GlyphClass: 2
Flags: W
HStem: 352 244<102 475 719 1091>
VStem: 475 244<-20 352 596 969>
LayerCount: 2
Fore
SplineSet
1091 596 m 1,0,-1
 1091 352 l 1,1,-1
 719 352 l 1,2,-1
 719 -20 l 1,3,-1
 475 -20 l 1,4,-1
 475 352 l 1,5,-1
 102 352 l 1,6,-1
 102 596 l 1,7,-1
 475 596 l 1,8,-1
 475 969 l 1,9,-1
 719 969 l 1,10,-1
 719 596 l 1,11,-1
 1091 596 l 1,0,-1
EndSplineSet
EndChar

StartChar: comma
Encoding: 44 44 12
Width: 569
GlyphClass: 2
Flags: W
HStem: -356 115<131 230.842> 0 299<131 306>
VStem: 131 276<0 294.609> 306 132<-168 0>
LayerCount: 2
Fore
SplineSet
131 299 m 1,0,-1
 438 299 l 1,1,-1
 438 18 l 2,2,3
 438 -119 438 -119 407 -184 c 0,4,5
 337 -329 337 -329 131 -356 c 1,6,-1
 131 -241 l 1,7,8
 306 -209 306 -209 306 -13 c 2,9,-1
 306 0 l 1,10,-1
 131 0 l 1,11,-1
 131 299 l 1,0,-1
EndSplineSet
EndChar

StartChar: hyphen
Encoding: 45 45 13
Width: 682
GlyphClass: 2
Flags: W
HStem: 424 276<53 610>
VStem: 53 557<424 700>
LayerCount: 2
Fore
SplineSet
610 700 m 1,0,-1
 610 424 l 1,1,-1
 53 424 l 1,2,-1
 53 700 l 1,3,-1
 610 700 l 1,0,-1
EndSplineSet
EndChar

StartChar: period
Encoding: 46 46 14
Width: 569
GlyphClass: 2
Flags: W
HStem: 0 299<131 438>
VStem: 131 307<0 299>
LayerCount: 2
Fore
SplineSet
438 299 m 1,0,-1
 438 0 l 1,1,-1
 131 0 l 1,2,-1
 131 299 l 1,3,-1
 438 299 l 1,0,-1
EndSplineSet
EndChar

StartChar: slash
Encoding: 47 47 15
Width: 569
GlyphClass: 2
Flags: W
HStem: 1443 20G<420.343 563>
VStem: 4 137<-29 108> 426 137<1326 1463>
LayerCount: 2
Fore
SplineSet
426 1463 m 1,0,-1
 563 1463 l 1,1,-1
 141 -29 l 1,2,-1
 4 -29 l 1,3,-1
 426 1463 l 1,0,-1
EndSplineSet
EndChar

StartChar: zero
Encoding: 48 48 16
Width: 1139
GlyphClass: 2
Flags: W
HStem: -47 246<439.082 679.104> 1251 232<439.198 677.827>
VStem: 59 287<315.186 1118.9> 771 287<317.426 1126.76>
LayerCount: 2
Fore
SplineSet
559 1483 m 0,0,1
 718 1483 718 1483 843.5 1391 c 128,-1,2
 969 1299 969 1299 1019 1107 c 0,3,4
 1058 959 1058 959 1058 709 c 0,5,6
 1058 305 1058 305 928 129 c 128,-1,7
 798 -47 798 -47 559 -47 c 0,8,9
 398 -47 398 -47 273 44.5 c 128,-1,10
 148 136 148 136 98 328 c 0,11,12
 59 475 59 475 59 718 c 0,13,14
 59 1131 59 1131 188.5 1307 c 128,-1,15
 318 1483 318 1483 559 1483 c 0,0,1
734 333 m 0,16,17
 771 432 771 432 771 733.5 c 128,-1,18
 771 1035 771 1035 722 1143 c 128,-1,19
 673 1251 673 1251 552.5 1251 c 128,-1,20
 432 1251 432 1251 383 1113 c 0,21,22
 346 1011 346 1011 346 710 c 128,-1,23
 346 409 346 409 395 304 c 128,-1,24
 444 199 444 199 564.5 199 c 128,-1,25
 685 199 685 199 734 333 c 0,16,17
EndSplineSet
EndChar

StartChar: one
Encoding: 49 49 17
Width: 1139
GlyphClass: 2
Flags: W
HStem: 1002 190<139 393.833> 1432 20G<549.5 774>
VStem: 482 292<0 1002> 584 190<1351.03 1452>
LayerCount: 2
Fore
SplineSet
482 1002 m 5,0,-1
 139 1002 l 1,1,-1
 139 1192 l 1,2,3
 515 1193 515 1193 584 1452 c 1,4,-1
 774 1452 l 1,5,-1
 774 0 l 1,6,-1
 482 0 l 5,7,-1
 482 1002 l 5,0,-1
EndSplineSet
EndChar

StartChar: two
Encoding: 50 50 18
Width: 1139
GlyphClass: 2
Flags: W
HStem: 0 256<433 1048> 1251 232<429.138 693.535>
VStem: 79 276<947 1165.88> 768 287<850.426 1173.8>
LayerCount: 2
Fore
SplineSet
1048 256 m 1,0,-1
 1048 0 l 1,1,-1
 61 0 l 1,2,3
 69 161 69 161 109.5 255.5 c 128,-1,4
 150 350 150 350 207.5 411.5 c 128,-1,5
 265 473 265 473 418.5 582.5 c 128,-1,6
 572 692 572 692 641.5 755.5 c 128,-1,7
 711 819 711 819 739.5 877.5 c 128,-1,8
 768 936 768 936 768 1031 c 128,-1,9
 768 1126 768 1126 713 1188.5 c 128,-1,10
 658 1251 658 1251 554 1251 c 128,-1,11
 450 1251 450 1251 402.5 1174.5 c 128,-1,12
 355 1098 355 1098 355 993 c 0,13,14
 355 978 355 978 356 947 c 1,15,-1
 80 947 l 1,16,17
 79 983 79 983 79 999 c 0,18,19
 79 1199 79 1199 180 1329 c 0,20,21
 301 1483 301 1483 544.5 1483 c 128,-1,22
 788 1483 788 1483 921.5 1357.5 c 128,-1,23
 1055 1232 1055 1232 1055 1022 c 0,24,25
 1055 874 1055 874 986.5 771.5 c 128,-1,26
 918 669 918 669 743.5 541.5 c 128,-1,27
 569 414 569 414 515.5 364.5 c 128,-1,28
 462 315 462 315 433 256 c 1,29,-1
 1048 256 l 1,0,-1
EndSplineSet
EndChar

StartChar: three
Encoding: 51 51 19
Width: 1139
GlyphClass: 2
Flags: W
HStem: -47 246<411.226 690.425> 650 192<444 640.895> 1251 232<411.195 664.641>
VStem: 59 278<280.476 426> 78 265<995 1183> 722 288<918.086 1199.37> 770 287<281.155 559.654>
LayerCount: 2
Fore
SplineSet
444 649 m 1,0,-1
 444 842 l 1,1,-1
 468 842 l 2,2,3
 722 842 722 842 722 1060 c 0,4,5
 722 1161 722 1161 671 1206 c 128,-1,6
 620 1251 620 1251 550 1251 c 0,7,8
 412 1251 412 1251 366 1148 c 0,9,10
 346 1100 346 1100 343 995 c 1,11,-1
 78 995 l 1,12,13
 78 1146 78 1146 112 1232 c 0,14,15
 163 1359 163 1359 281 1421 c 128,-1,16
 399 1483 399 1483 549 1483 c 0,17,18
 550 1483 550 1483 552 1483 c 0,19,20
 873 1483 873 1483 974 1256 c 0,21,22
 1010 1179 1010 1179 1010 1086 c 0,23,24
 1010 989 1010 989 964 915 c 0,25,26
 919 842 919 842 818 778 c 1,27,28
 1057 663 1057 663 1057 418 c 0,29,30
 1057 216 1057 216 925.5 84.5 c 128,-1,31
 794 -47 794 -47 559.5 -47 c 128,-1,32
 325 -47 325 -47 193 80 c 128,-1,33
 61 207 61 207 59 426 c 1,34,-1
 337 426 l 1,35,36
 350 199 350 199 554 199 c 0,37,38
 661 199 661 199 715.5 267.5 c 128,-1,39
 770 336 770 336 770 410 c 0,40,41
 770 650 770 650 484 650 c 0,42,43
 473 650 473 650 444 649 c 1,0,-1
EndSplineSet
EndChar

StartChar: four
Encoding: 52 52 20
Width: 1139
GlyphClass: 2
Flags: W
HStem: 321 238<253 631 918 1069> 1432 20G<568.041 918>
VStem: 631 287<0 321 559 1180>
LayerCount: 2
Fore
SplineSet
1069 559 m 1,0,-1
 1069 321 l 1,1,-1
 918 321 l 1,2,-1
 918 0 l 1,3,-1
 631 0 l 1,4,-1
 631 321 l 1,5,-1
 49 321 l 1,6,-1
 49 564 l 1,7,-1
 580 1452 l 1,8,-1
 918 1452 l 1,9,-1
 918 559 l 1,10,-1
 1069 559 l 1,0,-1
631 559 m 1,11,-1
 631 1180 l 1,12,-1
 253 559 l 1,13,-1
 631 559 l 1,11,-1
EndSplineSet
EndChar

StartChar: five
Encoding: 53 53 21
Width: 1139
GlyphClass: 2
Flags: W
HStem: -47 246<394.607 678.415> 754 226<421.583 676.334> 1196 256<400 1001>
VStem: 771 287<296.68 655.601>
LayerCount: 2
Fore
SplineSet
1001 1452 m 1,0,-1
 1001 1196 l 1,1,-1
 400 1196 l 1,2,-1
 355 894 l 1,3,4
 471 980 471 980 606 980 c 0,5,6
 813 980 813 980 935.5 840 c 128,-1,7
 1058 700 1058 700 1058 493 c 128,-1,8
 1058 286 1058 286 956 150 c 0,9,10
 810 -47 810 -47 533 -47 c 0,11,12
 322 -47 322 -47 189.5 71 c 128,-1,13
 57 189 57 189 55 378 c 1,14,-1
 337 378 l 1,15,16
 346 199 346 199 539 199 c 0,17,18
 645 199 645 199 708 271 c 128,-1,19
 771 343 771 343 771 474.5 c 128,-1,20
 771 606 771 606 709.5 680 c 128,-1,21
 648 754 648 754 538 754 c 0,22,23
 402 754 402 754 355 644 c 1,24,-1
 96 644 l 1,25,-1
 225 1452 l 1,26,-1
 1001 1452 l 1,0,-1
EndSplineSet
EndChar

StartChar: six
Encoding: 54 54 22
Width: 1139
GlyphClass: 2
Flags: W
HStem: -48 246<437.5 695.005> 730 226<458.057 702.307> 1122 21G<761 1039> 1251 232<464.388 721.338>
VStem: 66 283<297.419 1083> 790 273<297.928 635.517>
LayerCount: 2
Fore
SplineSet
1039 1122 m 1,0,-1
 773 1122 l 1,1,2
 749 1182 749 1182 722 1207 c 0,3,4
 672 1251 672 1251 594 1251 c 0,5,6
 444 1251 444 1251 385 1091 c 0,7,8
 361 1024 361 1024 354 858 c 2,9,-1
 353 827 l 1,10,11
 421 897 421 897 487 926.5 c 128,-1,12
 553 956 553 956 641 956 c 0,13,14
 840 956 840 956 951.5 819 c 128,-1,15
 1063 682 1063 682 1063 484 c 0,16,17
 1063 380 1063 380 1031.5 282.5 c 128,-1,18
 1000 185 1000 185 945 117 c 0,19,20
 810 -48 810 -48 577 -48 c 0,21,22
 404 -48 404 -48 273 53 c 128,-1,23
 142 154 142 154 97 346 c 0,24,25
 66 478 66 478 66 683 c 128,-1,26
 66 888 66 888 94 1019 c 128,-1,27
 122 1150 122 1150 186 1257 c 0,28,29
 324 1483 324 1483 604 1483 c 0,30,31
 721 1483 721 1483 816.5 1439.5 c 128,-1,32
 912 1396 912 1396 965 1321.5 c 128,-1,33
 1018 1247 1018 1247 1039 1122 c 1,0,-1
790 465 m 128,-1,35
 790 581 790 581 733 655.5 c 128,-1,36
 676 730 676 730 569.5 730 c 128,-1,37
 463 730 463 730 406 649.5 c 128,-1,38
 349 569 349 569 349 459 c 128,-1,39
 349 349 349 349 407 273.5 c 128,-1,40
 465 198 465 198 565 198 c 128,-1,41
 665 198 665 198 727.5 273.5 c 128,-1,34
 790 349 790 349 790 465 c 128,-1,35
EndSplineSet
EndChar

StartChar: seven
Encoding: 55 55 23
Width: 1139
GlyphClass: 2
Flags: W
HStem: 1196 256<59 782>
VStem: 272 290<0 268.462>
LayerCount: 2
Fore
SplineSet
1081 1452 m 1,0,-1
 1081 1228 l 1,1,2
 714 778 714 778 614 364 c 0,3,4
 578 212 578 212 562 0 c 1,5,-1
 272 0 l 1,6,7
 305 244 305 244 347 401 c 128,-1,8
 389 558 389 558 452.5 690.5 c 128,-1,9
 516 823 516 823 610 965.5 c 128,-1,10
 704 1108 704 1108 782 1196 c 1,11,-1
 59 1196 l 1,12,-1
 59 1452 l 1,13,-1
 1081 1452 l 1,0,-1
EndSplineSet
EndChar

StartChar: eight
Encoding: 56 56 24
Width: 1139
GlyphClass: 2
Flags: W
HStem: -47 246<416.29 705.55> 675 195<418.195 701.908> 1251 232<414.588 707.809>
VStem: 45 287<285.173 588.847> 94 252<940.529 1180.66> 779 248<940.549 1181.29> 788 287<283.312 588.137>
LayerCount: 2
Fore
SplineSet
837 791 m 1,0,1
 939 735 939 735 987 678 c 0,2,3
 1075 573 1075 573 1075 422 c 128,-1,4
 1075 271 1075 271 995 154.5 c 128,-1,5
 915 38 915 38 772 -12 c 0,6,7
 673 -47 673 -47 560 -47 c 0,8,9
 348 -47 348 -47 211 62 c 0,10,11
 45 194 45 194 45 432 c 0,12,13
 45 548 45 548 101 635 c 128,-1,14
 157 722 157 722 284 791 c 1,15,16
 221 823 221 823 189 853 c 0,17,18
 94 942 94 942 94 1089 c 0,19,20
 94 1269 94 1269 232.5 1376 c 128,-1,21
 371 1483 371 1483 560.5 1483 c 128,-1,22
 750 1483 750 1483 888.5 1376 c 128,-1,23
 1027 1269 1027 1269 1027 1089 c 0,24,25
 1027 939 1027 939 932 852 c 0,26,27
 902 825 902 825 837 791 c 1,0,1
406.5 923.5 m 128,-1,29
 467 870 467 870 567.5 870 c 128,-1,30
 668 870 668 870 723.5 928 c 128,-1,31
 779 986 779 986 779 1063 c 128,-1,32
 779 1140 779 1140 722.5 1195.5 c 128,-1,33
 666 1251 666 1251 561.5 1251 c 128,-1,34
 457 1251 457 1251 401.5 1194.5 c 128,-1,35
 346 1138 346 1138 346 1057.5 c 128,-1,28
 346 977 346 977 406.5 923.5 c 128,-1,29
726 262 m 128,-1,37
 788 325 788 325 788 434 c 128,-1,38
 788 543 788 543 726.5 609 c 128,-1,39
 665 675 665 675 560 675 c 128,-1,40
 455 675 455 675 393.5 609.5 c 128,-1,41
 332 544 332 544 332 436.5 c 128,-1,42
 332 329 332 329 393 264 c 128,-1,43
 454 199 454 199 559 199 c 128,-1,36
 664 199 664 199 726 262 c 128,-1,37
EndSplineSet
EndChar

StartChar: nine
Encoding: 57 57 25
Width: 1139
GlyphClass: 2
Flags: W
HStem: -47 246<404.143 663.615> 469 238<413.442 667.785> 1251 232<414.645 672.709>
VStem: 57 273<796.049 1157.48> 770 287<377.019 1116.13>
LayerCount: 2
Fore
SplineSet
542 707 m 128,-1,1
 638 707 638 707 701 777 c 128,-1,2
 764 847 764 847 764 976.5 c 128,-1,3
 764 1106 764 1106 701.5 1178.5 c 128,-1,4
 639 1251 639 1251 541.5 1251 c 128,-1,5
 444 1251 444 1251 387 1177.5 c 128,-1,6
 330 1104 330 1104 330 976 c 128,-1,7
 330 848 330 848 388 777.5 c 128,-1,0
 446 707 446 707 542 707 c 128,-1,1
78 339 m 1,8,-1
 354 339 l 1,9,10
 358 275 358 275 406 237 c 128,-1,11
 454 199 454 199 531 199 c 0,12,13
 693 199 693 199 743 377 c 0,14,15
 770 474 770 474 770 585 c 2,16,-1
 770 611 l 1,17,18
 712 545 712 545 680 522 c 0,19,20
 606 469 606 469 482 469 c 128,-1,21
 358 469 358 469 253 542 c 0,22,23
 57 678 57 678 57 972 c 0,24,25
 57 1193 57 1193 190 1338 c 128,-1,26
 323 1483 323 1483 546 1483 c 0,27,28
 816 1483 816 1483 957 1246 c 0,29,30
 1057 1079 1057 1079 1057 760 c 0,31,32
 1057 584 1057 584 1025 429.5 c 128,-1,33
 993 275 993 275 937 178 c 0,34,35
 805 -47 805 -47 523 -47 c 0,36,37
 277 -47 277 -47 151 126 c 0,38,39
 80 223 80 223 78 339 c 1,8,-1
EndSplineSet
EndChar

StartChar: colon
Encoding: 58 58 26
Width: 682
GlyphClass: 2
Flags: W
HStem: 0 299<231 538> 766 299<231 538>
VStem: 231 307<0 299 766 1065>
LayerCount: 2
Fore
SplineSet
538 299 m 1,0,-1
 538 0 l 1,1,-1
 231 0 l 1,2,-1
 231 299 l 1,3,-1
 538 299 l 1,0,-1
538 1065 m 1,4,-1
 538 766 l 1,5,-1
 231 766 l 1,6,-1
 231 1065 l 1,7,-1
 538 1065 l 1,4,-1
EndSplineSet
EndChar

StartChar: semicolon
Encoding: 59 59 27
Width: 682
GlyphClass: 2
Flags: W
HStem: -356 115<231 330.842> 0 299<231 406> 766 299<231 538>
VStem: 231 276<0 294.609> 406 132<-168 0>
LayerCount: 2
Fore
SplineSet
231 299 m 1,0,-1
 538 299 l 1,1,-1
 538 18 l 2,2,3
 538 -119 538 -119 507 -184 c 0,4,5
 437 -329 437 -329 231 -356 c 1,6,-1
 231 -241 l 1,7,8
 406 -209 406 -209 406 -13 c 2,9,-1
 406 0 l 1,10,-1
 231 0 l 1,11,-1
 231 299 l 1,0,-1
538 1065 m 1,12,-1
 538 766 l 1,13,-1
 231 766 l 1,14,-1
 231 1065 l 1,15,-1
 538 1065 l 1,12,-1
EndSplineSet
EndChar

StartChar: less
Encoding: 60 60 28
Width: 1196
GlyphClass: 2
Flags: W
LayerCount: 2
Fore
SplineSet
1083 971 m 1,0,-1
 1083 747 l 1,1,-1
 301 476 l 1,2,-1
 1083 206 l 1,3,-1
 1083 -20 l 1,4,-1
 82 353 l 1,5,-1
 82 599 l 1,6,-1
 1083 971 l 1,0,-1
EndSplineSet
EndChar

StartChar: equal
Encoding: 61 61 29
Width: 1196
GlyphClass: 2
Flags: W
HStem: 106 244<102 1093> 598 244<102 1093>
LayerCount: 2
Fore
SplineSet
1093 842 m 1,0,-1
 1093 598 l 1,1,-1
 102 598 l 1,2,-1
 102 842 l 1,3,-1
 1093 842 l 1,0,-1
1093 350 m 1,4,-1
 1093 106 l 1,5,-1
 102 106 l 1,6,-1
 102 350 l 1,7,-1
 1093 350 l 1,4,-1
EndSplineSet
EndChar

StartChar: greater
Encoding: 62 62 30
Width: 1196
GlyphClass: 2
Flags: W
LayerCount: 2
Fore
SplineSet
82 -20 m 1,0,-1
 82 203 l 1,1,-1
 864 475 l 1,2,-1
 82 744 l 1,3,-1
 82 971 l 1,4,-1
 1083 597 l 1,5,-1
 1083 351 l 1,6,-1
 82 -20 l 1,0,-1
EndSplineSet
EndChar

StartChar: question
Encoding: 63 63 31
Width: 1251
GlyphClass: 2
Flags: W
HStem: 0 299<481 788> 1282 242<509.525 765.526>
VStem: 131 279<985 1173.57> 481 307<0 299> 502 254<411 578.839> 851 288<912.338 1193.78>
LayerCount: 2
Fore
SplineSet
756 411 m 1,0,-1
 502 411 l 1,1,2
 504 509 504 509 510 542 c 0,3,4
 532 672 532 672 706 816 c 0,5,6
 802 895 802 895 826.5 940 c 128,-1,7
 851 985 851 985 851 1046 c 0,8,9
 851 1145 851 1145 791 1213.5 c 128,-1,10
 731 1282 731 1282 647.5 1282 c 128,-1,11
 564 1282 564 1282 508 1238 c 0,12,13
 410 1162 410 1162 410 985 c 1,14,-1
 131 985 l 1,15,16
 134 1218 134 1218 226 1341 c 0,17,18
 362 1524 362 1524 629 1524 c 0,19,20
 862 1524 862 1524 1000.5 1388.5 c 128,-1,21
 1139 1253 1139 1253 1139 1053 c 0,22,23
 1139 924 1139 924 1087.5 840.5 c 128,-1,24
 1036 757 1036 757 893 655 c 0,25,26
 822 605 822 605 798.5 579.5 c 128,-1,27
 775 554 775 554 766 520.5 c 128,-1,28
 757 487 757 487 756 411 c 1,0,-1
788 299 m 1,29,-1
 788 0 l 1,30,-1
 481 0 l 1,31,-1
 481 299 l 1,32,-1
 788 299 l 1,29,-1
EndSplineSet
EndChar

StartChar: at
Encoding: 64 64 32
Width: 1997
GlyphClass: 2
Flags: W
HStem: -281 159<720.17 1315.14> 116 167<815.156 1033.69 1349.5 1548.53> 916 145<909.966 1162.76> 1368 158<776.015 1311.33>
VStem: 55 198<301.158 814.161> 528 198<371.436 690.129> 1219 109<374 713> 1756 183<537.734 969.064>
LayerCount: 2
Fore
SplineSet
995 -122 m 0,0,1
 1231 -122 1231 -122 1420 -39 c 1,2,-1
 1476 -188 l 1,3,4
 1272 -281 1272 -281 1004 -281 c 0,5,6
 432 -281 432 -281 179 117 c 0,7,8
 55 312 55 312 55 532 c 0,9,10
 55 802 55 802 207.5 1049 c 128,-1,11
 360 1296 360 1296 601 1420 c 0,12,13
 807 1526 807 1526 1055 1526 c 0,14,15
 1448 1526 1448 1526 1711 1270 c 0,16,17
 1939 1048 1939 1048 1939 728 c 0,18,19
 1939 478 1939 478 1778.5 297 c 128,-1,20
 1618 116 1618 116 1426 116 c 0,21,22
 1323 116 1323 116 1258 160 c 128,-1,23
 1193 204 1193 204 1171 269 c 1,24,25
 1111 196 1111 196 1030 155.5 c 128,-1,26
 949 115 949 115 864 115 c 0,27,28
 714 115 714 115 621 222.5 c 128,-1,29
 528 330 528 330 528 450 c 0,30,31
 528 686 528 686 679 875 c 0,32,33
 749 962 749 962 848.5 1011.5 c 128,-1,34
 948 1061 948 1061 1043 1061 c 128,-1,35
 1138 1061 1138 1061 1193.5 1026 c 128,-1,36
 1249 991 1249 991 1286 914 c 1,37,-1
 1318 1041 l 1,38,-1
 1502 1041 l 1,39,-1
 1344 468 l 2,40,41
 1328 411 1328 411 1328 374 c 128,-1,42
 1328 337 1328 337 1355 310 c 128,-1,43
 1382 283 1382 283 1431.5 283 c 128,-1,44
 1481 283 1481 283 1541 322.5 c 128,-1,45
 1601 362 1601 362 1651 431 c 0,46,47
 1756 574 1756 574 1756 759 c 0,48,49
 1756 1001 1756 1001 1550 1184.5 c 128,-1,50
 1344 1368 1344 1368 1045 1368 c 0,51,52
 688 1368 688 1368 463 1110 c 0,53,54
 364 997 364 997 308.5 848.5 c 128,-1,55
 253 700 253 700 253 545 c 0,56,57
 253 233 253 233 495 43 c 0,58,59
 706 -122 706 -122 995 -122 c 0,0,1
1100 390 m 0,60,61
 1146 445 1146 445 1182.5 536.5 c 128,-1,62
 1219 628 1219 628 1219 713 c 128,-1,63
 1219 798 1219 798 1175.5 857 c 128,-1,64
 1132 916 1132 916 1037 916 c 128,-1,65
 942 916 942 916 854 822 c 0,66,67
 795 758 795 758 760.5 671.5 c 128,-1,68
 726 585 726 585 726 504.5 c 128,-1,69
 726 424 726 424 756 376 c 1,70,71
 841 295 841 295 911 282 c 1,72,73
 1009 282 1009 282 1100 390 c 0,60,61
EndSplineSet
EndChar

StartChar: A
Encoding: 65 65 33
Width: 1479
GlyphClass: 2
Flags: W
HStem: 301 256<552 943> 1473 20G<575.9 930.899>
LayerCount: 2
Fore
SplineSet
1025 301 m 1,0,-1
 466 301 l 1,1,-1
 366 0 l 1,2,-1
 53 0 l 1,3,-1
 583 1493 l 1,4,-1
 924 1493 l 1,5,-1
 1439 0 l 1,6,-1
 1124 0 l 1,7,-1
 1025 301 l 1,0,-1
943 557 m 1,8,-1
 748 1140 l 1,9,-1
 552 557 l 1,10,-1
 943 557 l 1,8,-1
EndSplineSet
EndChar

StartChar: B
Encoding: 66 66 34
Width: 1479
GlyphClass: 2
Flags: W
HStem: 0 256<475 1004.65> 643 256<475 975.322> 1237 256<475 970.156>
VStem: 168 307<256 643 899 1237> 1026 295<949.328 1186.73> 1069 295<317.152 582.2>
LayerCount: 2
Fore
SplineSet
168 0 m 1,0,-1
 168 1493 l 1,1,-1
 833 1493 l 2,2,3
 1171 1493 1171 1493 1285 1253 c 0,4,5
 1321 1177 1321 1177 1321 1090.5 c 128,-1,6
 1321 1004 1321 1004 1274.5 933.5 c 128,-1,7
 1228 863 1228 863 1117 792 c 1,8,9
 1364 647 1364 647 1364 430 c 0,10,11
 1364 302 1364 302 1287.5 189 c 128,-1,12
 1211 76 1211 76 1098 38 c 128,-1,13
 985 0 985 0 839 0 c 2,14,-1
 168 0 l 1,0,-1
475 1237 m 1,15,-1
 475 899 l 1,16,-1
 810 899 l 2,17,18
 1026 899 1026 899 1026 1068 c 128,-1,19
 1026 1237 1026 1237 810 1237 c 2,20,-1
 475 1237 l 1,15,-1
475 643 m 1,21,-1
 475 256 l 1,22,-1
 841 256 l 2,23,24
 1069 256 1069 256 1069 449.5 c 128,-1,25
 1069 643 1069 643 841 643 c 2,26,-1
 475 643 l 1,21,-1
EndSplineSet
EndChar

StartChar: C
Encoding: 67 67 35
Width: 1479
GlyphClass: 2
Flags: W
HStem: -47 258<592.798 955.888> 1256 262<602.562 962.865>
VStem: 90 307<458.482 1009.58> 1103 300<359.856 510 988 1110.51>
LayerCount: 2
Fore
SplineSet
1397 988 m 1,0,-1
 1103 988 l 1,1,2
 1080 1093 1080 1093 1035 1148 c 0,3,4
 948 1256 948 1256 782.5 1256 c 128,-1,5
 617 1256 617 1256 524 1147 c 0,6,7
 397 1000 397 1000 397 750.5 c 128,-1,8
 397 501 397 501 489.5 356 c 128,-1,9
 582 211 582 211 774 211 c 0,10,11
 917 211 917 211 1003 289 c 128,-1,12
 1089 367 1089 367 1103 510 c 1,13,-1
 1403 510 l 1,14,15
 1391 296 1391 296 1266 152 c 0,16,17
 1172 45 1172 45 1036 -1 c 128,-1,18
 900 -47 900 -47 765 -47 c 0,19,20
 417 -47 417 -47 235 213 c 0,21,22
 90 419 90 419 90 755.5 c 128,-1,23
 90 1092 90 1092 272 1305 c 128,-1,24
 454 1518 454 1518 774 1518 c 0,25,26
 973 1518 973 1518 1112.5 1439 c 128,-1,27
 1252 1360 1252 1360 1318.5 1251.5 c 128,-1,28
 1385 1143 1385 1143 1397 988 c 1,0,-1
EndSplineSet
EndChar

StartChar: D
Encoding: 68 68 36
Width: 1479
GlyphClass: 2
Flags: W
HStem: 0 256<465 916.448> 1237 256<465 915.377>
VStem: 158 307<256 1237> 1088 307<459.116 1033.88>
LayerCount: 2
Fore
SplineSet
158 0 m 1,0,-1
 158 1493 l 1,1,-1
 742 1493 l 2,2,3
 969 1493 969 1493 1094 1421 c 0,4,5
 1265 1322 1265 1322 1345 1080 c 0,6,7
 1395 929 1395 929 1395 747 c 0,8,9
 1395 389 1395 389 1214 173 c 0,10,11
 1125 68 1125 68 1006 34 c 128,-1,12
 887 0 887 0 742 0 c 2,13,-1
 158 0 l 1,0,-1
465 256 m 1,14,-1
 741 256 l 2,15,16
 1088 256 1088 256 1088 746.5 c 128,-1,17
 1088 1237 1088 1237 741 1237 c 2,18,-1
 465 1237 l 1,19,-1
 465 256 l 1,14,-1
EndSplineSet
EndChar

StartChar: E
Encoding: 69 69 37
Width: 1366
GlyphClass: 2
Flags: W
HStem: 0 256<469 1278> 643 256<469 1184> 1237 256<469 1241>
VStem: 162 307<256 643 899 1237>
LayerCount: 2
Fore
SplineSet
469 643 m 1,0,-1
 469 256 l 1,1,-1
 1278 256 l 1,2,-1
 1278 0 l 1,3,-1
 162 0 l 1,4,-1
 162 1493 l 1,5,-1
 1241 1493 l 1,6,-1
 1241 1237 l 1,7,-1
 469 1237 l 1,8,-1
 469 899 l 1,9,-1
 1184 899 l 1,10,-1
 1184 643 l 1,11,-1
 469 643 l 1,0,-1
EndSplineSet
EndChar

StartChar: F
Encoding: 70 70 38
Width: 1251
GlyphClass: 2
Flags: W
HStem: 643 256<459 1113> 1237 256<459 1201>
VStem: 152 307<0 643 899 1237>
LayerCount: 2
Fore
SplineSet
459 643 m 1,0,-1
 459 0 l 1,1,-1
 152 0 l 1,2,-1
 152 1493 l 1,3,-1
 1201 1493 l 1,4,-1
 1201 1237 l 1,5,-1
 459 1237 l 1,6,-1
 459 899 l 1,7,-1
 1113 899 l 1,8,-1
 1113 643 l 1,9,-1
 459 643 l 1,0,-1
EndSplineSet
EndChar

StartChar: G
Encoding: 71 71 39
Width: 1593
GlyphClass: 2
Flags: W
HStem: -47 262<637.445 999.588> 547 256<858 1198> 1256 262<612.148 1003.97>
VStem: 86 307<497.656 1004.11> 1273 183<-4 69.9436>
LayerCount: 2
Fore
SplineSet
1456 803 m 1,0,-1
 1456 -4 l 1,1,-1
 1273 -4 l 1,2,-1
 1235 192 l 1,3,4
 1148 66 1148 66 1042 9.5 c 128,-1,5
 936 -47 936 -47 785 -47 c 0,6,7
 486 -47 486 -47 289 168 c 0,8,9
 192 275 192 275 139 422.5 c 128,-1,10
 86 570 86 570 86 736 c 0,11,12
 86 973 86 973 194 1173.5 c 128,-1,13
 302 1374 302 1374 515 1463 c 0,14,15
 646 1518 646 1518 809 1518 c 0,16,17
 1156 1518 1156 1518 1337 1301 c 0,18,19
 1437 1182 1437 1182 1457 1016 c 1,20,-1
 1168 1016 l 1,21,22
 1132 1116 1132 1116 1075 1166 c 0,23,24
 972 1256 972 1256 797.5 1256 c 128,-1,25
 623 1256 623 1256 519 1136 c 0,26,27
 393 992 393 992 393 755 c 128,-1,28
 393 518 393 518 511 366.5 c 128,-1,29
 629 215 629 215 819 215 c 0,30,31
 821 215 821 215 824 215 c 0,32,33
 910 215 910 215 988 252 c 0,34,35
 1176 339 1176 339 1198 547 c 1,36,-1
 858 547 l 1,37,-1
 858 803 l 1,38,-1
 1456 803 l 1,0,-1
EndSplineSet
EndChar

StartChar: H
Encoding: 72 72 40
Width: 1479
GlyphClass: 2
Flags: W
HStem: 678 256<446 1037> 1473 20G<139 446 1037 1345>
VStem: 139 307<0 678 934 1493> 1038 307<0 678 934 1493>
LayerCount: 2
Fore
SplineSet
1038 678 m 1,0,-1
 446 678 l 1,1,-1
 446 0 l 1,2,-1
 139 0 l 1,3,-1
 139 1493 l 1,4,-1
 446 1493 l 1,5,-1
 446 934 l 1,6,-1
 1037 934 l 1,7,-1
 1037 1493 l 1,8,-1
 1345 1493 l 1,9,-1
 1345 0 l 1,10,-1
 1038 0 l 1,11,-1
 1038 678 l 1,0,-1
EndSplineSet
EndChar

StartChar: I
Encoding: 73 73 41
Width: 569
GlyphClass: 2
Flags: W
HStem: 1473 20G<129 436>
VStem: 129 307<0 1493>
LayerCount: 2
Fore
SplineSet
436 1493 m 1,0,-1
 436 0 l 1,1,-1
 129 0 l 1,2,-1
 129 1493 l 1,3,-1
 436 1493 l 1,0,-1
EndSplineSet
EndChar

StartChar: J
Encoding: 74 74 42
Width: 1139
GlyphClass: 2
Flags: W
HStem: -47 262<396.291 645.989> 1473 20G<688 995>
VStem: 49 307<260.905 553> 688 307<259.561 1493>
LayerCount: 2
Fore
SplineSet
688 1493 m 1,0,-1
 995 1493 l 1,1,-1
 995 390 l 2,2,3
 995 162 995 162 861 57.5 c 128,-1,4
 727 -47 727 -47 515 -47 c 128,-1,5
 303 -47 303 -47 173 72 c 0,6,7
 107 133 107 133 78 211.5 c 128,-1,8
 49 290 49 290 49 406 c 2,9,-1
 49 553 l 1,10,-1
 356 553 l 1,11,-1
 356 409 l 2,12,13
 356 304 356 304 395 259.5 c 128,-1,14
 434 215 434 215 521 215 c 0,15,16
 688 215 688 215 688 390 c 2,17,-1
 688 1493 l 1,0,-1
EndSplineSet
EndChar

StartChar: K
Encoding: 75 75 43
Width: 1479
GlyphClass: 2
Flags: W
HStem: 1473 20G<152 459 1024.23 1406>
VStem: 152 307<0 499 837 1493>
LayerCount: 2
Fore
SplineSet
459 499 m 1,0,-1
 459 0 l 1,1,-1
 152 0 l 1,2,-1
 152 1493 l 1,3,-1
 459 1493 l 1,4,-1
 459 837 l 1,5,-1
 1042 1493 l 1,6,-1
 1406 1493 l 1,7,-1
 809 851 l 1,8,-1
 1469 0 l 1,9,-1
 1101 0 l 1,10,-1
 612 660 l 1,11,-1
 459 499 l 1,0,-1
EndSplineSet
EndChar

StartChar: L
Encoding: 76 76 44
Width: 1251
GlyphClass: 2
Flags: W
HStem: 0 256<471 1186> 1473 20G<164 471>
VStem: 164 307<256 1493>
LayerCount: 2
Fore
SplineSet
471 1493 m 1,0,-1
 471 256 l 1,1,-1
 1186 256 l 1,2,-1
 1186 0 l 1,3,-1
 164 0 l 1,4,-1
 164 1493 l 1,5,-1
 471 1493 l 1,0,-1
EndSplineSet
EndChar

StartChar: M
Encoding: 77 77 45
Width: 1706
GlyphClass: 2
Flags: W
HStem: 1473 20G<135 598.545 1121.59 1589>
VStem: 135 307<0 1163> 1282 307<0 1163>
LayerCount: 2
Fore
SplineSet
442 1163 m 1,0,-1
 442 0 l 1,1,-1
 135 0 l 1,2,-1
 135 1493 l 1,3,-1
 594 1493 l 1,4,-1
 864 305 l 1,5,-1
 1126 1493 l 1,6,-1
 1589 1493 l 1,7,-1
 1589 0 l 1,8,-1
 1282 0 l 1,9,-1
 1282 1163 l 1,10,-1
 1018 0 l 1,11,-1
 710 0 l 1,12,-1
 442 1163 l 1,0,-1
EndSplineSet
EndChar

StartChar: N
Encoding: 78 78 46
Width: 1479
GlyphClass: 2
Flags: W
HStem: 1473 20G<139 465.665 1046 1353>
VStem: 139 307<0 1032> 1046 307<478 1493>
LayerCount: 2
Fore
SplineSet
1046 0 m 1,0,-1
 446 1032 l 1,1,-1
 446 0 l 1,2,-1
 139 0 l 1,3,-1
 139 1493 l 1,4,-1
 454 1493 l 1,5,-1
 1046 478 l 1,6,-1
 1046 1493 l 1,7,-1
 1353 1493 l 1,8,-1
 1353 0 l 1,9,-1
 1046 0 l 1,0,-1
EndSplineSet
EndChar

StartChar: O
Encoding: 79 79 47
Width: 1593
GlyphClass: 2
Flags: W
HStem: -47 262<614.742 987.907> 1256 262<614.36 987.105>
VStem: 82 307<478.191 993.877> 1213 307<478.966 990.943>
LayerCount: 2
Fore
SplineSet
799 1518 m 0,0,1
 1117 1518 1117 1518 1311 1312 c 0,2,3
 1520 1090 1520 1090 1520 702 c 0,4,5
 1520 500 1520 500 1416 307 c 128,-1,6
 1312 114 1312 114 1129 23 c 0,7,8
 988 -47 988 -47 801 -47 c 0,9,10
 484 -47 484 -47 291 159 c 0,11,12
 193 264 193 264 137.5 415 c 128,-1,13
 82 566 82 566 82 736 c 0,14,15
 82 973 82 973 187 1166 c 0,16,17
 378 1518 378 1518 799 1518 c 0,0,1
1077 1142 m 0,18,19
 971 1256 971 1256 801.5 1256 c 128,-1,20
 632 1256 632 1256 526 1142 c 0,21,22
 389 996 389 996 389 736 c 128,-1,23
 389 476 389 476 526 329 c 0,24,25
 632 215 632 215 802 215 c 128,-1,26
 972 215 972 215 1077 329 c 0,27,28
 1213 478 1213 478 1213 736.5 c 128,-1,29
 1213 995 1213 995 1077 1142 c 0,18,19
EndSplineSet
EndChar

StartChar: P
Encoding: 80 80 48
Width: 1366
GlyphClass: 2
Flags: W
HStem: 532 256<463 917.056> 1237 256<463 917.872>
VStem: 156 307<0 532 788 1237> 990 307<858.673 1162.5>
LayerCount: 2
Fore
SplineSet
463 532 m 1,0,-1
 463 0 l 1,1,-1
 156 0 l 1,2,-1
 156 1493 l 1,3,-1
 815 1493 l 2,4,5
 1047 1493 1047 1493 1172 1374.5 c 128,-1,6
 1297 1256 1297 1256 1297 1017 c 128,-1,7
 1297 778 1297 778 1148 642 c 0,8,9
 1027 532 1027 532 846 532 c 2,10,-1
 463 532 l 1,0,-1
463 788 m 1,11,-1
 749 788 l 2,12,13
 885 788 885 788 937.5 849 c 128,-1,14
 990 910 990 910 990 1019 c 0,15,16
 990 1237 990 1237 749 1237 c 2,17,-1
 463 1237 l 1,18,-1
 463 788 l 1,11,-1
EndSplineSet
EndChar

StartChar: Q
Encoding: 81 81 49
Width: 1593
GlyphClass: 2
Flags: W
HStem: -47 262<620.461 983.057> 1256 262<620.919 993.793>
VStem: 88 307<478.143 993.005> 1219 307<463.338 992.865>
LayerCount: 2
Fore
SplineSet
1361 211 m 1,0,-1
 1526 55 l 1,1,-1
 1369 -110 l 1,2,-1
 1193 56 l 1,3,4
 1026 -47 1026 -47 807 -47 c 0,5,6
 490 -47 490 -47 297 159 c 0,7,8
 199 264 199 264 143.5 415 c 128,-1,9
 88 566 88 566 88 736 c 0,10,11
 88 972 88 972 192 1164 c 0,12,13
 384 1518 384 1518 807 1518 c 0,14,15
 1124 1518 1124 1518 1317 1312 c 0,16,17
 1415 1207 1415 1207 1470.5 1056 c 128,-1,18
 1526 905 1526 905 1526 747 c 128,-1,19
 1526 589 1526 589 1481.5 446 c 128,-1,20
 1437 303 1437 303 1361 211 c 1,0,-1
1152 409 m 1,21,22
 1219 548 1219 548 1219 733 c 0,23,24
 1219 995 1219 995 1083 1142 c 0,25,26
 977 1256 977 1256 807.5 1256 c 128,-1,27
 638 1256 638 1256 532 1142 c 0,28,29
 395 995 395 995 395 735.5 c 128,-1,30
 395 476 395 476 532 329 c 0,31,32
 638 215 638 215 804 215 c 0,33,34
 909 215 909 215 986 253 c 1,35,-1
 827 404 l 1,36,-1
 983 569 l 1,37,-1
 1152 409 l 1,21,22
EndSplineSet
EndChar

StartChar: R
Encoding: 82 82 50
Width: 1479
GlyphClass: 2
Flags: W
HStem: 592 256<471 966.609> 1237 256<471 1010.2>
VStem: 164 307<0 592 848 1237> 1011 310<70.5117 547.222> 1060 307<897.798 1187.95>
LayerCount: 2
Fore
SplineSet
1011 255 m 2,0,-1
 1013 415 l 2,1,2
 1013 489 1013 489 987 526 c 0,3,4
 939 592 939 592 823 592 c 2,5,-1
 471 592 l 1,6,-1
 471 0 l 1,7,-1
 164 0 l 1,8,-1
 164 1493 l 1,9,-1
 964 1493 l 2,10,11
 1154 1493 1154 1493 1260.5 1384.5 c 128,-1,12
 1367 1276 1367 1276 1367 1089 c 0,13,14
 1367 819 1367 819 1113 720 c 1,15,16
 1207 683 1207 683 1248.5 639.5 c 128,-1,17
 1290 596 1290 596 1302 523 c 128,-1,18
 1314 450 1314 450 1321 178 c 0,19,20
 1322 128 1322 128 1336 102 c 128,-1,21
 1350 76 1350 76 1387 56 c 1,22,-1
 1387 0 l 1,23,-1
 1056 0 l 1,24,25
 1028 53 1028 53 1019.5 101 c 128,-1,26
 1011 149 1011 149 1011 255 c 2,0,-1
471 848 m 1,27,-1
 841 848 l 2,28,29
 959 848 959 848 1009.5 892 c 128,-1,30
 1060 936 1060 936 1060 1044 c 0,31,32
 1060 1202 1060 1202 942 1229 c 0,33,34
 908 1237 908 1237 841 1237 c 2,35,-1
 471 1237 l 1,36,-1
 471 848 l 1,27,-1
EndSplineSet
EndChar

StartChar: S
Encoding: 83 83 51
Width: 1366
GlyphClass: 2
Flags: W
HStem: -47 246<488.88 904.972> 1272 246<462.416 847.852>
VStem: 92 293<976.43 1200.89> 957 287<1038 1171.22> 1002 295<283.718 520.419>
LayerCount: 2
Fore
SplineSet
957 1038 m 1,0,1
 942 1272 942 1272 643 1272 c 0,2,3
 524 1272 524 1272 454.5 1222.5 c 128,-1,4
 385 1173 385 1173 385 1088.5 c 128,-1,5
 385 1004 385 1004 443.5 964.5 c 128,-1,6
 502 925 502 925 669 893 c 2,7,-1
 902 848 l 2,8,9
 1105 809 1105 809 1201 712 c 128,-1,10
 1297 615 1297 615 1297 437 c 0,11,12
 1297 222 1297 222 1163 104 c 0,13,14
 993 -47 993 -47 684 -47 c 0,15,16
 311 -47 311 -47 157 166 c 0,17,18
 76 278 76 278 66 446 c 1,19,-1
 365 446 l 1,20,21
 372 336 372 336 451 267.5 c 128,-1,22
 530 199 530 199 685.5 199 c 128,-1,23
 841 199 841 199 921.5 252.5 c 128,-1,24
 1002 306 1002 306 1002 397.5 c 128,-1,25
 1002 489 1002 489 938.5 538 c 128,-1,26
 875 587 875 587 720 617 c 2,27,-1
 513 656 l 2,28,29
 280 701 280 701 186 794.5 c 128,-1,30
 92 888 92 888 92 1058 c 0,31,32
 92 1307 92 1307 278 1425 c 0,33,34
 424 1518 424 1518 657 1518 c 0,35,36
 986 1518 986 1518 1139 1347 c 0,37,38
 1243 1232 1243 1232 1244 1038 c 1,39,-1
 957 1038 l 1,0,1
EndSplineSet
EndChar

StartChar: T
Encoding: 84 84 52
Width: 1251
GlyphClass: 2
Flags: W
HStem: 1237 256<29 483 790 1225>
VStem: 483 307<0 1237>
LayerCount: 2
Fore
SplineSet
790 1237 m 1,0,-1
 790 0 l 1,1,-1
 483 0 l 1,2,-1
 483 1237 l 1,3,-1
 29 1237 l 1,4,-1
 29 1493 l 1,5,-1
 1225 1493 l 1,6,-1
 1225 1237 l 1,7,-1
 790 1237 l 1,0,-1
EndSplineSet
EndChar

StartChar: U
Encoding: 85 85 53
Width: 1479
GlyphClass: 2
Flags: W
HStem: -47 262<562.092 933.825> 1473 20G<156 463 1033 1340>
VStem: 156 307<313.75 1493> 1033 307<313.776 1493>
LayerCount: 2
Fore
SplineSet
1033 1493 m 1,0,-1
 1340 1493 l 1,1,-1
 1340 481 l 2,2,3
 1340 237 1340 237 1195 105 c 0,4,5
 1027 -47 1027 -47 748 -47 c 128,-1,6
 469 -47 469 -47 301 105 c 0,7,8
 156 237 156 237 156 481 c 2,9,-1
 156 1493 l 1,10,-1
 463 1493 l 1,11,-1
 463 481 l 2,12,13
 463 340 463 340 537.5 277.5 c 128,-1,14
 612 215 612 215 752 215 c 0,15,16
 1032 215 1032 215 1033 481 c 2,17,-1
 1033 1493 l 1,0,-1
EndSplineSet
EndChar

StartChar: V
Encoding: 86 86 54
Width: 1366
GlyphClass: 2
Flags: W
HStem: 1473 20G<49 362.902 1009.2 1325>
VStem: 49 308<1185 1493> 1015 310<1183 1493>
LayerCount: 2
Fore
SplineSet
813 0 m 1,0,-1
 554 0 l 1,1,-1
 49 1493 l 1,2,-1
 357 1493 l 1,3,-1
 689 368 l 1,4,-1
 1015 1493 l 1,5,-1
 1325 1493 l 1,6,-1
 813 0 l 1,0,-1
EndSplineSet
EndChar

StartChar: W
Encoding: 87 87 55
Width: 1933
GlyphClass: 2
Flags: W
HStem: 1473 20G<27 356.164 810.889 1123.3 1580 1909>
LayerCount: 2
Fore
SplineSet
1496 0 m 1,0,-1
 1219 0 l 1,1,-1
 969 1165 l 1,2,-1
 725 0 l 1,3,-1
 448 0 l 1,4,-1
 27 1493 l 1,5,-1
 352 1493 l 1,6,-1
 585 374 l 1,7,-1
 815 1493 l 1,8,-1
 1119 1493 l 1,9,-1
 1360 372 l 1,10,-1
 1584 1493 l 1,11,-1
 1909 1493 l 1,12,-1
 1496 0 l 1,0,-1
EndSplineSet
EndChar

StartChar: X
Encoding: 88 88 56
Width: 1366
GlyphClass: 2
Flags: W
HStem: 1473 20G<61 436.672 951.798 1318>
LayerCount: 2
Fore
SplineSet
857 761 m 1,0,-1
 1337 0 l 1,1,-1
 972 0 l 1,2,-1
 685 517 l 1,3,-1
 401 0 l 1,4,-1
 45 0 l 1,5,-1
 516 752 l 1,6,-1
 61 1493 l 1,7,-1
 426 1493 l 1,8,-1
 688 1002 l 1,9,-1
 963 1493 l 1,10,-1
 1318 1493 l 1,11,-1
 857 761 l 1,0,-1
EndSplineSet
EndChar

StartChar: Y
Encoding: 89 89 57
Width: 1366
GlyphClass: 2
Flags: W
HStem: 1473 20G<55 406.287 978.381 1330>
VStem: 551 307<0 553>
LayerCount: 2
Fore
SplineSet
858 553 m 1,0,-1
 858 0 l 1,1,-1
 551 0 l 1,2,-1
 551 553 l 1,3,-1
 55 1493 l 1,4,-1
 397 1493 l 1,5,-1
 703 834 l 1,6,-1
 987 1493 l 1,7,-1
 1330 1493 l 1,8,-1
 858 553 l 1,0,-1
EndSplineSet
EndChar

StartChar: Z
Encoding: 90 90 58
Width: 1251
GlyphClass: 2
Flags: W
HStem: 0 256<420 1183> 1237 256<61 824>
LayerCount: 2
Fore
SplineSet
1183 1493 m 1,0,-1
 1183 1237 l 1,1,-1
 420 256 l 1,2,-1
 1183 256 l 1,3,-1
 1183 0 l 1,4,-1
 61 0 l 1,5,-1
 61 256 l 1,6,-1
 824 1237 l 1,7,-1
 61 1237 l 1,8,-1
 61 1493 l 1,9,-1
 1183 1493 l 1,0,-1
EndSplineSet
EndChar

StartChar: bracketleft
Encoding: 91 91 59
Width: 682
GlyphClass: 2
Flags: W
HStem: -410 209<400 631> 1284 209<400 631>
VStem: 135 496<-410 -201 1284 1493> 135 265<-201 1284>
LayerCount: 2
Fore
SplineSet
631 1493 m 1,0,-1
 631 1284 l 1,1,-1
 400 1284 l 1,2,-1
 400 -201 l 1,3,-1
 631 -201 l 1,4,-1
 631 -410 l 1,5,-1
 135 -410 l 1,6,-1
 135 1493 l 1,7,-1
 631 1493 l 1,0,-1
EndSplineSet
EndChar

StartChar: backslash
Encoding: 92 92 60
Width: 569
GlyphClass: 2
Flags: W
HStem: 1443 20G<-25 118.421>
VStem: -25 137<1326 1463> 454 137<-29 108>
LayerCount: 2
Fore
SplineSet
112 1463 m 1,0,-1
 591 -29 l 1,1,-1
 454 -29 l 1,2,-1
 -25 1463 l 1,3,-1
 112 1463 l 1,0,-1
EndSplineSet
EndChar

StartChar: bracketright
Encoding: 93 93 61
Width: 682
GlyphClass: 2
Flags: W
HStem: -410 209<37 267> 1284 209<37 267>
VStem: 37 495<-410 -201 1284 1493> 267 265<-201 1284>
LayerCount: 2
Fore
SplineSet
37 -410 m 1,0,-1
 37 -201 l 1,1,-1
 267 -201 l 1,2,-1
 267 1284 l 1,3,-1
 37 1284 l 1,4,-1
 37 1493 l 1,5,-1
 532 1493 l 1,6,-1
 532 -410 l 1,7,-1
 37 -410 l 1,0,-1
EndSplineSet
EndChar

StartChar: asciicircum
Encoding: 94 94 62
Width: 1196
GlyphClass: 2
Flags: W
LayerCount: 2
Fore
SplineSet
1069 553 m 1,0,-1
 838 553 l 1,1,-1
 590 1167 l 1,2,-1
 355 553 l 1,3,-1
 125 553 l 1,4,-1
 463 1423 l 1,5,-1
 719 1423 l 1,6,-1
 1069 553 l 1,0,-1
EndSplineSet
EndChar

StartChar: underscore
Encoding: 95 95 63
Width: 1139
GlyphClass: 2
Flags: W
HStem: -387 141<-45 1184>
LayerCount: 2
Fore
SplineSet
1184 -246 m 1,0,-1
 1184 -387 l 1,1,-1
 -45 -387 l 1,2,-1
 -45 -246 l 1,3,-1
 1184 -246 l 1,0,-1
EndSplineSet
EndChar

StartChar: grave
Encoding: 96 96 64
Width: 682
GlyphClass: 2
Flags: W
HStem: 1242 308
VStem: 35 401
LayerCount: 2
Fore
SplineSet
35 1550 m 1,0,-1
 293 1550 l 1,1,-1
 436 1242 l 1,2,-1
 293 1242 l 1,3,-1
 35 1550 l 1,0,-1
EndSplineSet
EndChar

StartChar: a
Encoding: 97 97 65
Width: 1139
GlyphClass: 2
Flags: W
HStem: -47 231<381.475 581.187> 893 231<408.075 700.626>
VStem: 55 287<218.714 415.793> 726 281<56.7188 110 271.602 521 699.508 862.922>
LayerCount: 2
Fore
SplineSet
1073 35 m 1,0,-1
 1073 0 l 1,1,-1
 760 0 l 1,2,3
 741 25 741 25 735 45 c 128,-1,4
 729 65 729 65 728 110 c 1,5,6
 576 -47 576 -47 404.5 -47 c 128,-1,7
 233 -47 233 -47 134 58 c 0,8,9
 55 141 55 141 55 285 c 0,10,11
 55 578 55 578 382 634 c 2,12,-1
 496 653 l 2,13,14
 602 670 602 670 624.5 675.5 c 128,-1,15
 647 681 647 681 677 697 c 0,16,17
 726 723 726 723 726 781 c 0,18,19
 726 893 726 893 559 893 c 0,20,21
 454 893 454 893 411 860.5 c 128,-1,22
 368 828 368 828 358 741 c 1,23,-1
 81 741 l 1,24,25
 108 1124 108 1124 557.5 1124 c 128,-1,26
 1007 1124 1007 1124 1007 783 c 2,27,-1
 1007 170 l 2,28,29
 1007 127 1007 127 1021 99 c 128,-1,30
 1035 71 1035 71 1073 35 c 1,0,-1
726 521 m 1,31,32
 687 503 687 503 606 487 c 2,33,-1
 506 468 l 2,34,35
 419 451 419 451 380.5 416 c 128,-1,36
 342 381 342 381 342 318 c 128,-1,37
 342 255 342 255 383.5 219.5 c 128,-1,38
 425 184 425 184 498 184 c 0,39,40
 607 184 607 184 666.5 251.5 c 128,-1,41
 726 319 726 319 726 443 c 2,42,-1
 726 521 l 1,31,32
EndSplineSet
EndChar

StartChar: b
Encoding: 98 98 66
Width: 1251
GlyphClass: 2
Flags: W
HStem: -47 240<526.334 776.291> 884 240<528.98 775.226> 1473 20G<121 408>
VStem: 121 287<0 112 323.684 752.659 962 1493> 891 287<331.153 746.094>
LayerCount: 2
Fore
SplineSet
121 1493 m 1,0,-1
 408 1493 l 1,1,-1
 408 962 l 1,2,3
 510 1124 510 1124 713 1124 c 0,4,5
 858 1124 858 1124 969.5 1038 c 128,-1,6
 1081 952 1081 952 1129.5 810.5 c 128,-1,7
 1178 669 1178 669 1178 538 c 0,8,9
 1178 305 1178 305 1054 132 c 0,10,11
 995 49 995 49 905 1 c 128,-1,12
 815 -47 815 -47 713 -47 c 0,13,14
 510 -47 510 -47 408 112 c 1,15,-1
 408 0 l 1,16,-1
 121 0 l 1,17,-1
 121 1493 l 1,0,-1
649 884 m 128,-1,19
 541 884 541 884 474 787.5 c 128,-1,20
 407 691 407 691 407 538 c 128,-1,21
 407 385 407 385 473.5 289 c 128,-1,22
 540 193 540 193 649.5 193 c 128,-1,23
 759 193 759 193 825 291 c 128,-1,24
 891 389 891 389 891 538.5 c 128,-1,25
 891 688 891 688 824 786 c 128,-1,18
 757 884 757 884 649 884 c 128,-1,19
EndSplineSet
EndChar

StartChar: c
Encoding: 99 99 67
Width: 1139
GlyphClass: 2
Flags: W
HStem: -47 231<462.146 719.283> 893 231<458.104 719.41>
VStem: 70 287<306.025 778.227>
LayerCount: 2
Fore
SplineSet
1069 693 m 1,0,-1
 795 693 l 1,1,2
 774 786 774 786 742 826 c 0,3,4
 689 893 689 893 590 893 c 0,5,6
 357 893 357 893 357 530 c 0,7,8
 357 367 357 367 418.5 275.5 c 128,-1,9
 480 184 480 184 577 184 c 128,-1,10
 674 184 674 184 721 229.5 c 128,-1,11
 768 275 768 275 795 382 c 1,12,-1
 1069 382 l 1,13,14
 1053 222 1053 222 957 109 c 0,15,16
 824 -47 824 -47 588 -47 c 0,17,18
 306 -47 306 -47 171 150 c 0,19,20
 70 296 70 296 70 530 c 0,21,22
 70 849 70 849 244 1007 c 0,23,24
 374 1124 374 1124 593 1124 c 0,25,26
 861 1124 861 1124 990 935 c 0,27,28
 1058 834 1058 834 1069 693 c 1,0,-1
EndSplineSet
EndChar

StartChar: d
Encoding: 100 100 68
Width: 1251
GlyphClass: 2
Flags: W
HStem: -47 240<461.624 710.2> 884 240<461.042 706.203> 1473 20G<829 1116>
VStem: 59 287<329.364 747.69> 829 287<0 112 324.326 752.674 962 1493>
LayerCount: 2
Fore
SplineSet
829 0 m 1,0,-1
 829 112 l 1,1,2
 725 -47 725 -47 524 -47 c 0,3,4
 380 -47 380 -47 268 38.5 c 128,-1,5
 156 124 156 124 107.5 264.5 c 128,-1,6
 59 405 59 405 59 536 c 0,7,8
 59 770 59 770 182 944 c 0,9,10
 242 1027 242 1027 332 1075.5 c 128,-1,11
 422 1124 422 1124 524 1124 c 0,12,13
 725 1124 725 1124 829 962 c 1,14,-1
 829 1493 l 1,15,-1
 1116 1493 l 1,16,-1
 1116 0 l 1,17,-1
 829 0 l 1,0,-1
588 193 m 128,-1,19
 697 193 697 193 763.5 289.5 c 128,-1,20
 830 386 830 386 830 538.5 c 128,-1,21
 830 691 830 691 763 787.5 c 128,-1,22
 696 884 696 884 587.5 884 c 128,-1,23
 479 884 479 884 412.5 785.5 c 128,-1,24
 346 687 346 687 346 537.5 c 128,-1,25
 346 388 346 388 412.5 290.5 c 128,-1,18
 479 193 479 193 588 193 c 128,-1,19
EndSplineSet
EndChar

StartChar: e
Encoding: 101 101 69
Width: 1139
GlyphClass: 2
Flags: W
HStem: -47 219<422.108 706.173> 463 190<335 776> 905 219<421.935 686.366>
VStem: 44 288<269.602 463 653 797.379>
LayerCount: 2
Fore
SplineSet
1074 463 m 1,0,-1
 332 463 l 1,1,2
 337 325 337 325 374 268 c 0,3,4
 435 172 435 172 562 172 c 0,5,6
 640 172 640 172 696.5 208.5 c 128,-1,7
 753 245 753 245 779 312 c 1,8,-1
 1062 312 l 1,9,10
 1023 177 1023 177 921 87 c 0,11,12
 769 -47 769 -47 547.5 -47 c 128,-1,13
 326 -47 326 -47 185 98.5 c 128,-1,14
 44 244 44 244 44 518 c 128,-1,15
 44 792 44 792 172 954 c 0,16,17
 235 1034 235 1034 337 1079 c 128,-1,18
 439 1124 439 1124 556 1124 c 0,19,20
 775 1124 775 1124 925.5 976 c 128,-1,21
 1076 828 1076 828 1076 513 c 0,22,23
 1076 494 1076 494 1074 463 c 1,0,-1
776 653 m 1,24,25
 768 757 768 757 731 812 c 0,26,27
 668 905 668 905 553 905 c 0,28,29
 363 905 363 905 335 653 c 1,30,-1
 776 653 l 1,24,25
EndSplineSet
EndChar

StartChar: f
Encoding: 102 102 70
Width: 682
GlyphClass: 2
Flags: W
HStem: 893 190<29 186 473 641> 1278 215<327.5 632>
VStem: 186 287<0 893 1083 1265.5>
LayerCount: 2
Fore
SplineSet
641 1083 m 1,0,-1
 641 893 l 1,1,-1
 473 893 l 1,2,-1
 473 0 l 1,3,-1
 186 0 l 1,4,-1
 186 893 l 1,5,-1
 29 893 l 1,6,-1
 29 1083 l 1,7,-1
 186 1083 l 1,8,-1
 186 1216 l 2,9,10
 186 1493 186 1493 469 1493 c 0,11,12
 535 1493 535 1493 632 1487 c 1,13,-1
 632 1272 l 1,14,15
 590 1278 590 1278 551 1278 c 0,16,17
 473 1278 473 1278 473 1191 c 2,18,-1
 473 1083 l 1,19,-1
 641 1083 l 1,0,-1
EndSplineSet
EndChar

StartChar: g
Encoding: 103 103 71
Width: 1251
GlyphClass: 2
Flags: W
HStem: -446 184<451.061 733.327> -47 240<472.038 695.22> 884 240<473.33 685.391> 1086 20G<818 1091>
VStem: 84 287<317.179 751.604> 818 273<-173.433 113 313.203 756.391 936 1106>
LayerCount: 2
Fore
SplineSet
818 1106 m 1,0,-1
 1091 1106 l 1,1,-1
 1091 -36 l 2,2,3
 1091 -245 1091 -245 930 -355 c 0,4,5
 797 -446 797 -446 571.5 -446 c 128,-1,6
 346 -446 346 -446 214 -340 c 0,7,8
 108 -254 108 -254 105 -133 c 1,9,-1
 401 -133 l 1,10,11
 433 -262 433 -262 589 -262 c 0,12,13
 690 -262 690 -262 754 -199.5 c 128,-1,14
 818 -137 818 -137 818 -37 c 2,15,-1
 818 113 l 1,16,17
 743 23 743 23 680 -12 c 128,-1,18
 617 -47 617 -47 527 -47 c 0,19,20
 379 -47 379 -47 269 48 c 0,21,22
 84 206 84 206 84 514 c 128,-1,23
 84 822 84 822 251 995 c 0,24,25
 308 1054 308 1054 384 1089 c 128,-1,26
 460 1124 460 1124 533 1124 c 0,27,28
 703 1124 703 1124 818 936 c 1,29,-1
 818 1106 l 1,0,-1
589.5 884 m 128,-1,31
 486 884 486 884 428.5 780 c 128,-1,32
 371 676 371 676 371 531 c 128,-1,33
 371 386 371 386 428.5 289.5 c 128,-1,34
 486 193 486 193 590 193 c 128,-1,35
 694 193 694 193 758.5 288.5 c 128,-1,36
 823 384 823 384 823 532.5 c 128,-1,37
 823 681 823 681 758 782.5 c 128,-1,30
 693 884 693 884 589.5 884 c 128,-1,31
EndSplineSet
EndChar

StartChar: h
Encoding: 104 104 72
Width: 1251
GlyphClass: 2
Flags: W
HStem: 880 244<561.714 766.659> 1473 20G<137 424>
VStem: 137 287<0 799.751 945 1493> 821 287<0 825.381>
LayerCount: 2
Fore
SplineSet
137 1493 m 1,0,-1
 424 1493 l 1,1,-1
 424 945 l 1,2,3
 477 1026 477 1026 535 1064 c 0,4,5
 628 1124 628 1124 761.5 1124 c 128,-1,6
 895 1124 895 1124 1001.5 1034.5 c 128,-1,7
 1108 945 1108 945 1108 742 c 2,8,-1
 1108 0 l 1,9,-1
 821 0 l 1,10,-1
 821 675 l 2,11,12
 821 765 821 765 787 813 c 0,13,14
 740 880 740 880 644 880 c 128,-1,15
 548 880 548 880 486 819.5 c 128,-1,16
 424 759 424 759 424 664 c 2,17,-1
 424 0 l 1,18,-1
 137 0 l 1,19,-1
 137 1493 l 1,0,-1
EndSplineSet
EndChar

StartChar: i
Encoding: 105 105 73
Width: 569
GlyphClass: 2
Flags: W
HStem: 1086 20G<137 424> 1237 256<137 424>
VStem: 137 287<0 1106 1237 1493>
LayerCount: 2
Fore
SplineSet
424 1106 m 1,0,-1
 424 0 l 1,1,-1
 137 0 l 1,2,-1
 137 1106 l 1,3,-1
 424 1106 l 1,0,-1
424 1493 m 1,4,-1
 424 1237 l 1,5,-1
 137 1237 l 1,6,-1
 137 1493 l 1,7,-1
 424 1493 l 1,4,-1
EndSplineSet
EndChar

StartChar: j
Encoding: 106 106 74
Width: 569
GlyphClass: 2
Flags: W
HStem: -446 232<8 245> 1086 20G<143 430> 1237 256<143 430>
VStem: 143 287<-209.459 1106 1237 1493>
LayerCount: 2
Fore
SplineSet
430 1106 m 1,0,-1
 430 -193 l 2,1,2
 430 -327 430 -327 371 -386.5 c 128,-1,3
 312 -446 312 -446 178 -446 c 0,4,5
 107 -446 107 -446 8 -436 c 1,6,-1
 8 -205 l 1,7,8
 34 -214 34 -214 70 -214 c 0,9,10
 143 -214 143 -214 143 -128 c 2,11,-1
 143 1106 l 1,12,-1
 430 1106 l 1,0,-1
430 1493 m 1,13,-1
 430 1237 l 1,14,-1
 143 1237 l 1,15,-1
 143 1493 l 1,16,-1
 430 1493 l 1,13,-1
EndSplineSet
EndChar

StartChar: k
Encoding: 107 107 75
Width: 1139
GlyphClass: 2
Flags: W
HStem: 1086 20G<753.163 1096> 1473 20G<121 408>
VStem: 121 287<0 363 676 1493>
LayerCount: 2
Fore
SplineSet
408 676 m 1,0,-1
 770 1106 l 1,1,-1
 1096 1106 l 1,2,-1
 719 688 l 1,3,-1
 1123 0 l 1,4,-1
 786 0 l 1,5,-1
 522 487 l 1,6,-1
 408 363 l 1,7,-1
 408 0 l 1,8,-1
 121 0 l 1,9,-1
 121 1493 l 1,10,-1
 408 1493 l 1,11,-1
 408 676 l 1,0,-1
EndSplineSet
EndChar

StartChar: l
Encoding: 108 108 76
Width: 569
GlyphClass: 2
Flags: W
HStem: 1473 20G<137 424>
VStem: 137 287<0 1493>
LayerCount: 2
Fore
SplineSet
424 1493 m 1,0,-1
 424 0 l 1,1,-1
 137 0 l 1,2,-1
 137 1493 l 1,3,-1
 424 1493 l 1,0,-1
EndSplineSet
EndChar

StartChar: m
Encoding: 109 109 77
Width: 1821
GlyphClass: 2
Flags: W
HStem: 880 244<530.668 721.897 1141.93 1361.84> 1086 20G<123 408>
VStem: 123 287<0 813.819 969 1106> 762 287<0 813.106> 1401 287<0 840.774>
CounterMasks: 1 38
LayerCount: 2
Fore
SplineSet
123 1106 m 1,0,-1
 408 1106 l 1,1,-1
 408 969 l 1,2,3
 462 1034 462 1034 506 1064 c 0,4,5
 594 1124 594 1124 704 1124 c 0,6,7
 927 1124 927 1124 1011 961 c 1,8,9
 1077 1047 1077 1047 1153.5 1085.5 c 128,-1,10
 1230 1124 1230 1124 1335 1124 c 0,11,12
 1504 1124 1504 1124 1596 1031.5 c 128,-1,13
 1688 939 1688 939 1688 783 c 2,14,-1
 1688 0 l 1,15,-1
 1401 0 l 1,16,-1
 1401 736 l 2,17,18
 1401 803 1401 803 1359 842 c 128,-1,19
 1317 881 1317 881 1235 881 c 128,-1,20
 1153 881 1153 881 1101 822.5 c 128,-1,21
 1049 764 1049 764 1049 664 c 2,22,-1
 1049 0 l 1,23,-1
 762 0 l 1,24,-1
 762 736 l 2,25,26
 762 803 762 803 720.5 841.5 c 128,-1,27
 679 880 679 880 596.5 880 c 128,-1,28
 514 880 514 880 462 823 c 128,-1,29
 410 766 410 766 410 664 c 2,30,-1
 410 0 l 1,31,-1
 123 0 l 1,32,-1
 123 1106 l 1,0,-1
EndSplineSet
EndChar

StartChar: n
Encoding: 110 110 78
Width: 1251
GlyphClass: 2
Flags: W
HStem: 880 244<553.799 779.48> 1086 20G<129 416>
VStem: 129 287<0 803.217 945 1106> 831 287<0 825.016>
LayerCount: 2
Fore
SplineSet
129 1106 m 1,0,-1
 416 1106 l 1,1,-1
 416 945 l 1,2,3
 469 1026 469 1026 527 1064 c 0,4,5
 620 1124 620 1124 762.5 1124 c 128,-1,6
 905 1124 905 1124 1011.5 1034 c 128,-1,7
 1118 944 1118 944 1118 742 c 2,8,-1
 1118 0 l 1,9,-1
 831 0 l 1,10,-1
 831 682 l 2,11,12
 831 880 831 880 646 880 c 0,13,14
 552 880 552 880 484 825.5 c 128,-1,15
 416 771 416 771 416 664 c 2,16,-1
 416 0 l 1,17,-1
 129 0 l 1,18,-1
 129 1106 l 1,0,-1
EndSplineSet
EndChar

StartChar: o
Encoding: 111 111 79
Width: 1251
GlyphClass: 2
Flags: W
HStem: -47 231<486.204 755.103> 893 231<483.152 754.713>
VStem: 72 287<327.927 750.265> 879 287<328.089 750.273>
LayerCount: 2
Fore
SplineSet
198 945 m 0,0,1
 347 1124 347 1124 619 1124 c 128,-1,2
 891 1124 891 1124 1040 945 c 0,3,4
 1166 795 1166 795 1166 540 c 128,-1,5
 1166 285 1166 285 1040 132 c 0,6,7
 893 -47 893 -47 618.5 -47 c 128,-1,8
 344 -47 344 -47 198 132 c 0,9,10
 72 285 72 285 72 540 c 128,-1,11
 72 795 72 795 198 945 c 0,0,1
728 865 m 128,-1,13
 675 893 675 893 618.5 893 c 128,-1,14
 562 893 562 893 509.5 865 c 128,-1,15
 457 837 457 837 426 790 c 0,16,17
 359 691 359 691 359 538.5 c 128,-1,18
 359 386 359 386 426 287 c 0,19,20
 457 240 457 240 509.5 212 c 128,-1,21
 562 184 562 184 619 184 c 128,-1,22
 676 184 676 184 728.5 212 c 128,-1,23
 781 240 781 240 812 287 c 0,24,25
 879 387 879 387 879 539 c 128,-1,26
 879 691 879 691 812 790 c 0,27,12
 781 837 781 837 728 865 c 128,-1,13
EndSplineSet
EndChar

StartChar: p
Encoding: 112 112 80
Width: 1251
GlyphClass: 2
Flags: W
HStem: -446 21G<119 406> -48 240<534.587 774.449> 885 240<536.961 773.773> 1086 20G<119 406>
VStem: 119 287<-446 131 322.699 752.987 943 1106> 889 287<327.287 749.745>
LayerCount: 2
Fore
SplineSet
714 -48 m 0,0,1
 508 -48 508 -48 406 131 c 1,2,-1
 406 -446 l 1,3,-1
 119 -446 l 1,4,-1
 119 1106 l 1,5,-1
 406 1106 l 1,6,-1
 406 943 l 1,7,8
 508 1125 508 1125 714 1125 c 0,9,10
 854 1125 854 1125 967.5 1040.5 c 128,-1,11
 1081 956 1081 956 1128.5 815 c 128,-1,12
 1176 674 1176 674 1176 538 c 0,13,14
 1176 297 1176 297 1054 128 c 0,15,16
 995 48 995 48 903.5 0 c 128,-1,17
 812 -48 812 -48 714 -48 c 0,0,1
647 192 m 128,-1,19
 756 192 756 192 822.5 288.5 c 128,-1,20
 889 385 889 385 889 538.5 c 128,-1,21
 889 692 889 692 822 788.5 c 128,-1,22
 755 885 755 885 646.5 885 c 128,-1,23
 538 885 538 885 471.5 788 c 128,-1,24
 405 691 405 691 405 537.5 c 128,-1,25
 405 384 405 384 471.5 288 c 128,-1,18
 538 192 538 192 647 192 c 128,-1,19
EndSplineSet
EndChar

StartChar: q
Encoding: 113 113 81
Width: 1251
GlyphClass: 2
Flags: W
HStem: -446 21G<827 1114> -48 240<458.718 697.749> 885 240<458.472 696.641> 1086 20G<827 1114>
VStem: 57 287<326.357 748.029> 827 287<-446 131 326.057 750.943 943 1106>
LayerCount: 2
Fore
SplineSet
827 1106 m 1,0,-1
 1114 1106 l 1,1,-1
 1114 -446 l 1,2,-1
 827 -446 l 1,3,-1
 827 131 l 1,4,5
 725 -48 725 -48 518 -48 c 0,6,7
 380 -48 380 -48 266 36 c 128,-1,8
 152 120 152 120 104.5 260.5 c 128,-1,9
 57 401 57 401 57 536 c 0,10,11
 57 778 57 778 179 948 c 0,12,13
 237 1028 237 1028 329 1076.5 c 128,-1,14
 421 1125 421 1125 519 1125 c 0,15,16
 726 1125 726 1125 827 943 c 1,17,-1
 827 1106 l 1,0,-1
585 885 m 128,-1,19
 477 885 477 885 410.5 787.5 c 128,-1,20
 344 690 344 690 344 537.5 c 128,-1,21
 344 385 344 385 410.5 288.5 c 128,-1,22
 477 192 477 192 585.5 192 c 128,-1,23
 694 192 694 192 760 288 c 128,-1,24
 826 384 826 384 826 538.5 c 128,-1,25
 826 693 826 693 759.5 789 c 128,-1,18
 693 885 693 885 585 885 c 128,-1,19
EndSplineSet
EndChar

StartChar: r
Encoding: 114 114 82
Width: 797
GlyphClass: 2
Flags: W
HStem: 840 284<567.909 758> 1086 20G<129 416>
VStem: 129 287<0 755.774 889 1106>
LayerCount: 2
Fore
SplineSet
129 1106 m 1,0,-1
 416 1106 l 1,1,-1
 416 889 l 1,2,3
 457 988 457 988 535.5 1056 c 128,-1,4
 614 1124 614 1124 723 1124 c 0,5,6
 739 1124 739 1124 758 1122 c 1,7,-1
 758 832 l 1,8,9
 708 840 708 840 668 840 c 0,10,11
 416 840 416 840 416 588 c 2,12,-1
 416 0 l 1,13,-1
 129 0 l 1,14,-1
 129 1106 l 1,0,-1
EndSplineSet
EndChar

StartChar: s
Encoding: 115 115 83
Width: 1139
GlyphClass: 2
Flags: W
HStem: -47 225<397.291 744.965> 899 225<409.598 712.328>
VStem: 98 287<741.214 870.747> 778 287<213.411 346.825>
LayerCount: 2
Fore
SplineSet
1034 750 m 1,0,-1
 756 750 l 1,1,2
 755 899 755 899 551 899 c 0,3,4
 475 899 475 899 430 871 c 128,-1,5
 385 843 385 843 385 803 c 128,-1,6
 385 763 385 763 405.5 746 c 128,-1,7
 426 729 426 729 486 712 c 2,8,-1
 848 606 l 2,9,10
 1065 543 1065 543 1065 328 c 0,11,12
 1065 225 1065 225 1010 137 c 0,13,14
 895 -47 895 -47 582 -47 c 0,15,16
 329 -47 329 -47 197 46.5 c 128,-1,17
 65 140 65 140 59 322 c 1,18,-1
 340 322 l 1,19,20
 355 245 355 245 403 211.5 c 128,-1,21
 451 178 451 178 558 178 c 128,-1,22
 665 178 665 178 721.5 206.5 c 128,-1,23
 778 235 778 235 778 277.5 c 128,-1,24
 778 320 778 320 757 340 c 128,-1,25
 736 360 736 360 682 377 c 2,26,-1
 340 485 l 2,27,28
 260 510 260 510 224 528 c 0,29,30
 98 592 98 592 98 756 c 0,31,32
 98 878 98 878 167 970 c 0,33,34
 281 1124 281 1124 550 1124 c 128,-1,35
 819 1124 819 1124 946 985 c 0,36,37
 1031 892 1031 892 1034 750 c 1,0,-1
EndSplineSet
EndChar

StartChar: t
Encoding: 116 116 84
Width: 682
GlyphClass: 2
Flags: W
HStem: -47 217<311 615.278> 893 190<29 171 458 617> 1360 20G<171 458>
VStem: 171 287<194.246 893 1083 1380>
LayerCount: 2
Fore
SplineSet
617 1083 m 1,0,-1
 617 893 l 1,1,-1
 458 893 l 1,2,-1
 458 290 l 2,3,4
 458 217 458 217 476 193.5 c 128,-1,5
 494 170 494 170 537.5 170 c 128,-1,6
 581 170 581 170 617 176 c 1,7,-1
 617 -24 l 1,8,9
 543 -47 543 -47 451 -47 c 0,10,11
 171 -47 171 -47 171 214 c 2,12,-1
 171 893 l 1,13,-1
 29 893 l 1,14,-1
 29 1083 l 1,15,-1
 171 1083 l 1,16,-1
 171 1380 l 1,17,-1
 458 1380 l 1,18,-1
 458 1083 l 1,19,-1
 617 1083 l 1,0,-1
EndSplineSet
EndChar

StartChar: u
Encoding: 117 117 85
Width: 1251
GlyphClass: 2
Flags: W
HStem: -47 244<459.348 682.965> 1086 20G<119 406 821 1108>
VStem: 119 287<252.595 1106> 821 287<0 132 273.818 1106>
LayerCount: 2
Fore
SplineSet
1108 0 m 1,0,-1
 821 0 l 1,1,-1
 821 132 l 1,2,3
 768 51 768 51 710 13 c 0,4,5
 616 -47 616 -47 474 -47 c 128,-1,6
 332 -47 332 -47 225.5 43 c 128,-1,7
 119 133 119 133 119 336 c 2,8,-1
 119 1106 l 1,9,-1
 406 1106 l 1,10,-1
 406 396 l 2,11,12
 406 197 406 197 590 197 c 0,13,14
 685 197 685 197 753 251.5 c 128,-1,15
 821 306 821 306 821 414 c 2,16,-1
 821 1106 l 1,17,-1
 1108 1106 l 1,18,-1
 1108 0 l 1,0,-1
EndSplineSet
EndChar

StartChar: v
Encoding: 118 118 86
Width: 1139
GlyphClass: 2
Flags: W
HStem: 1086 20G<29 338.877 790.444 1098>
LayerCount: 2
Fore
SplineSet
717 0 m 1,0,-1
 416 0 l 1,1,-1
 29 1106 l 1,2,-1
 333 1106 l 1,3,-1
 571 296 l 1,4,-1
 796 1106 l 1,5,-1
 1098 1106 l 1,6,-1
 717 0 l 1,0,-1
EndSplineSet
EndChar

StartChar: w
Encoding: 119 119 87
Width: 1593
GlyphClass: 2
Flags: W
HStem: 1086 20G<10 311.522 646.633 942.264 1267.63 1569>
LayerCount: 2
Fore
SplineSet
1255 0 m 1,0,-1
 959 0 l 1,1,-1
 792 780 l 1,2,-1
 617 0 l 1,3,-1
 322 0 l 1,4,-1
 10 1106 l 1,5,-1
 307 1106 l 1,6,-1
 482 332 l 1,7,-1
 651 1106 l 1,8,-1
 938 1106 l 1,9,-1
 1103 332 l 1,10,-1
 1272 1106 l 1,11,-1
 1569 1106 l 1,12,-1
 1255 0 l 1,0,-1
EndSplineSet
EndChar

StartChar: x
Encoding: 120 120 88
Width: 1139
GlyphClass: 2
Flags: W
HStem: 1086 20G<41 396.687 733.313 1088>
LayerCount: 2
Fore
SplineSet
726 558 m 1,0,-1
 1096 0 l 1,1,-1
 752 0 l 1,2,-1
 565 344 l 1,3,-1
 377 0 l 1,4,-1
 33 0 l 1,5,-1
 402 558 l 1,6,-1
 41 1106 l 1,7,-1
 386 1106 l 1,8,-1
 565 771 l 1,9,-1
 744 1106 l 1,10,-1
 1088 1106 l 1,11,-1
 726 558 l 1,0,-1
EndSplineSet
EndChar

StartChar: y
Encoding: 121 121 89
Width: 1139
GlyphClass: 2
Flags: W
HStem: -449 212<176 370.521> 1086 20G<18 339.079 801.318 1101>
VStem: 18 315<791 1106>
LayerCount: 2
Fore
SplineSet
807 1106 m 1,0,-1
 1101 1106 l 1,1,-1
 646 -201 l 2,2,3
 611 -302 611 -302 578 -346 c 0,4,5
 499 -449 499 -449 278 -449 c 0,6,7
 232 -449 232 -449 176 -440 c 1,8,-1
 176 -224 l 1,9,10
 222 -237 222 -237 251 -237 c 0,11,12
 332 -237 332 -237 381 -184 c 128,-1,13
 430 -131 430 -131 430 -45 c 1,14,-1
 18 1106 l 1,15,-1
 333 1106 l 1,16,-1
 578 300 l 1,17,-1
 807 1106 l 1,0,-1
EndSplineSet
EndChar

StartChar: z
Encoding: 122 122 90
Width: 1024
GlyphClass: 2
Flags: W
HStem: 0 231<397 958> 875 231<79 589>
LayerCount: 2
Fore
SplineSet
940 1106 m 1,0,-1
 940 875 l 1,1,-1
 397 231 l 1,2,-1
 958 231 l 1,3,-1
 958 0 l 1,4,-1
 43 0 l 1,5,-1
 43 231 l 1,6,-1
 589 875 l 1,7,-1
 79 875 l 1,8,-1
 79 1106 l 1,9,-1
 940 1106 l 1,0,-1
EndSplineSet
EndChar

StartChar: braceleft
Encoding: 123 123 91
Width: 797
GlyphClass: 2
Flags: W
HStem: -410 202<504.179 649> 1291 202<496.038 649>
VStem: 242 240<-178.082 406.476 669.113 1277.91>
LayerCount: 2
Fore
SplineSet
649 1493 m 1,0,-1
 649 1291 l 1,1,-1
 574 1291 l 2,2,3
 482 1291 482 1291 482 1175 c 2,4,-1
 482 775 l 2,5,6
 482 634 482 634 402 584 c 0,7,8
 368 563 368 563 283 550 c 1,9,10
 376 536 376 536 412 509 c 0,11,12
 482 457 482 457 482 325 c 2,13,-1
 482 -74 l 2,14,15
 482 -150 482 -150 503.5 -179 c 128,-1,16
 525 -208 525 -208 574 -208 c 2,17,-1
 649 -208 l 1,18,-1
 649 -410 l 1,19,-1
 494 -410 l 2,20,21
 384 -410 384 -410 313 -329.5 c 128,-1,22
 242 -249 242 -249 242 -124 c 2,23,-1
 242 308 l 2,24,25
 242 375 242 375 223 407.5 c 128,-1,26
 204 440 204 440 158 450 c 0,27,28
 152 451 152 451 76 456 c 1,29,-1
 76 644 l 1,30,31
 83 644 83 644 110 645 c 0,32,33
 242 647 242 647 242 775 c 2,34,-1
 242 1207 l 2,35,36
 242 1326 242 1326 310.5 1409.5 c 128,-1,37
 379 1493 379 1493 494 1493 c 2,38,-1
 649 1493 l 1,0,-1
EndSplineSet
EndChar

StartChar: bar
Encoding: 124 124 92
Width: 573
GlyphClass: 2
Flags: W
HStem: 1473 20G<205 369>
VStem: 205 164<-410 1493>
LayerCount: 2
Fore
SplineSet
369 1493 m 1,0,-1
 369 -410 l 1,1,-1
 205 -410 l 1,2,-1
 205 1493 l 1,3,-1
 369 1493 l 1,0,-1
EndSplineSet
EndChar

StartChar: braceright
Encoding: 125 125 93
Width: 797
GlyphClass: 2
Flags: W
HStem: -410 202<147 300.962> 1291 202<147 293.852>
VStem: 315 240<-194.908 413.887 676.524 1260.57>
LayerCount: 2
Fore
SplineSet
147 -410 m 1,0,-1
 147 -208 l 1,1,-1
 223 -208 l 2,2,3
 315 -208 315 -208 315 -92 c 2,4,-1
 315 308 l 2,5,6
 315 449 315 449 395 499 c 0,7,8
 430 520 430 520 514 533 c 1,9,10
 421 547 421 547 385 574 c 0,11,12
 315 626 315 626 315 758 c 2,13,-1
 315 1157 l 2,14,15
 315 1232 315 1232 294.5 1261.5 c 128,-1,16
 274 1291 274 1291 223 1291 c 2,17,-1
 147 1291 l 1,18,-1
 147 1493 l 1,19,-1
 303 1493 l 2,20,21
 413 1493 413 1493 484 1412.5 c 128,-1,22
 555 1332 555 1332 555 1207 c 2,23,-1
 555 776 l 2,24,25
 555 708 555 708 574 675.5 c 128,-1,26
 593 643 593 643 638 633 c 0,27,28
 644 632 644 632 720 627 c 1,29,-1
 720 439 l 1,30,31
 713 439 713 439 687 438 c 0,32,33
 555 436 555 436 555 308 c 2,34,-1
 555 -124 l 2,35,36
 555 -243 555 -243 486.5 -326.5 c 128,-1,37
 418 -410 418 -410 303 -410 c 2,38,-1
 147 -410 l 1,0,-1
EndSplineSet
EndChar

StartChar: asciitilde
Encoding: 126 126 94
Width: 1196
GlyphClass: 2
Flags: W
HStem: 543 164<678.678 885.99> 732 164<300.016 509.909>
VStem: 123 159<598 676.427> 904 159<763.573 842>
LayerCount: 2
Fore
SplineSet
1063 842 m 1,0,1
 1046 543 1046 543 802 543 c 0,2,3
 706 543 706 543 634 596 c 2,4,-1
 516 683 l 2,5,6
 450 732 450 732 383.5 732 c 128,-1,7
 317 732 317 732 294 677 c 0,8,9
 286 659 286 659 282 598 c 1,10,-1
 123 598 l 1,11,12
 140 896 140 896 384 896 c 0,13,14
 481 896 481 896 552 844 c 2,15,-1
 670 757 l 2,16,17
 738 707 738 707 803.5 707 c 128,-1,18
 869 707 869 707 892 763 c 0,19,20
 900 781 900 781 904 842 c 1,21,-1
 1063 842 l 1,0,1
EndSplineSet
EndChar

StartChar: exclamdown
Encoding: 161 161 96
Width: 682
GlyphClass: 2
Flags: W
HStem: 807 299<135 442>
VStem: 135 307<-381 155.761 807 1106>
LayerCount: 2
Fore
SplineSet
135 -381 m 1,0,-1
 135 49 l 1,1,-1
 220 682 l 1,2,-1
 358 682 l 1,3,-1
 442 49 l 1,4,-1
 442 -381 l 1,5,-1
 135 -381 l 1,0,-1
135 807 m 1,6,-1
 135 1106 l 1,7,-1
 442 1106 l 1,8,-1
 442 807 l 1,9,-1
 135 807 l 1,6,-1
EndSplineSet
EndChar

StartChar: cent
Encoding: 162 162 97
Width: 1139
GlyphClass: 2
Flags: W
VStem: 76 287<300.735 778.286> 532 90<-254 -42.9062 192 887 1124 1298> 795 275<269.378 382 693 812.743>
LayerCount: 2
Fore
SplineSet
622 891 m 1,0,-1
 622 186 l 1,1,2
 692 196 692 196 731.5 240.5 c 128,-1,3
 771 285 771 285 795 382 c 1,4,-1
 1070 382 l 1,5,6
 1049 180 1049 180 910 61 c 0,7,8
 796 -36 796 -36 622 -47 c 1,9,-1
 622 -254 l 1,10,-1
 532 -254 l 1,11,-1
 532 -45 l 1,12,13
 440 -39 440 -39 357 -2 c 0,14,15
 192 71 192 71 121 253 c 0,16,17
 76 368 76 368 76 530 c 0,18,19
 76 779 76 779 186.5 938 c 128,-1,20
 297 1097 297 1097 532 1121 c 1,21,-1
 532 1298 l 1,22,-1
 622 1298 l 1,23,-1
 622 1124 l 1,24,25
 770 1118 770 1118 871 1052 c 0,26,27
 1051 935 1051 935 1070 693 c 1,28,-1
 795 693 l 1,29,30
 773 792 773 792 734 836.5 c 128,-1,31
 695 881 695 881 622 891 c 1,0,-1
532 887 m 1,32,33
 479 874 479 874 442.5 835 c 128,-1,34
 406 796 406 796 384.5 713 c 128,-1,35
 363 630 363 630 363 509.5 c 128,-1,36
 363 389 363 389 406 302.5 c 128,-1,37
 449 216 449 216 532 192 c 1,38,-1
 532 887 l 1,32,33
EndSplineSet
EndChar

StartChar: sterling
Encoding: 163 163 98
Width: 1139
GlyphClass: 2
Flags: W
HStem: -47 256<547.593 982.821> 18 234<379.74 650.775> 646 113<63 186 518 767> 1237 227<432.729 712.159>
VStem: 78 288<915.384 1173.76> 288 260<369.981 643.286> 791 276<991 1158.12>
LayerCount: 2
Fore
SplineSet
767 759 m 1,0,-1
 767 646 l 1,1,-1
 518 646 l 1,2,3
 548 578 548 578 548 507 c 128,-1,4
 548 436 548 436 495 357.5 c 128,-1,5
 442 279 442 279 312 175 c 1,6,7
 405 222 405 222 450.5 237 c 128,-1,8
 496 252 496 252 538 252 c 128,-1,9
 580 252 580 252 664 230.5 c 128,-1,10
 748 209 748 209 800 209 c 0,11,12
 898 209 898 209 1015 269 c 1,13,-1
 1099 45 l 1,14,15
 941 -47 941 -47 802 -47 c 0,16,17
 730 -47 730 -47 600 -14.5 c 128,-1,18
 470 18 470 18 382.5 18 c 128,-1,19
 295 18 295 18 175 -44 c 1,20,-1
 63 163 l 1,21,22
 136 212 136 212 183 255 c 0,23,24
 288 349 288 349 288 473 c 0,25,26
 288 540 288 540 245 646 c 1,27,-1
 63 646 l 1,28,-1
 63 759 l 1,29,-1
 186 759 l 1,30,31
 149 824 149 824 132 857 c 0,32,33
 78 963 78 963 78 1053 c 128,-1,34
 78 1143 78 1143 118.5 1225 c 128,-1,35
 159 1307 159 1307 230 1363 c 0,36,37
 358 1464 358 1464 560 1464 c 128,-1,38
 762 1464 762 1464 886 1379 c 0,39,40
 975 1318 975 1318 1014.5 1233 c 128,-1,41
 1054 1148 1054 1148 1067 991 c 1,42,-1
 799 991 l 1,43,44
 796 1008 796 1008 791 1046 c 0,45,46
 779 1135 779 1135 720.5 1186 c 128,-1,47
 662 1237 662 1237 572.5 1237 c 128,-1,48
 483 1237 483 1237 424.5 1187.5 c 128,-1,49
 366 1138 366 1138 366 1052 c 0,50,51
 366 1019 366 1019 374.5 994.5 c 128,-1,52
 383 970 383 970 424.5 886 c 128,-1,53
 466 802 466 802 483 759 c 1,54,-1
 767 759 l 1,0,-1
EndSplineSet
EndChar

StartChar: yen
Encoding: 165 165 99
Width: 1139
GlyphClass: 2
Flags: W
HStem: 369 121<144 440 727 1017> 598 121<144 425 737 1017>
VStem: 440 287<0 369 490 598>
LayerCount: 2
Fore
SplineSet
1017 719 m 1,0,-1
 1017 598 l 1,1,-1
 727 598 l 1,2,-1
 727 490 l 1,3,-1
 1017 490 l 1,4,-1
 1017 369 l 1,5,-1
 727 369 l 1,6,-1
 727 0 l 1,7,-1
 440 0 l 1,8,-1
 440 369 l 1,9,-1
 144 369 l 1,10,-1
 144 490 l 1,11,-1
 440 490 l 1,12,-1
 440 598 l 1,13,-1
 144 598 l 1,14,-1
 144 719 l 1,15,-1
 425 719 l 1,16,-1
 10 1442 l 1,17,-1
 296 1442 l 1,18,-1
 579 921 l 1,19,-1
 853 1442 l 1,20,-1
 1130 1442 l 1,21,-1
 737 719 l 1,22,-1
 1017 719 l 1,0,-1
EndSplineSet
EndChar

StartChar: section
Encoding: 167 167 100
Width: 1139
GlyphClass: 2
Flags: W
HStem: -412 227<443.342 686.297> 1114 21G<699.5 970> 1272 209<446.794 664.355>
VStem: 68 243<551.219 738.769> 131 287<1081.79 1245.59> 134 268<-140.016 0> 725 288<-148.806 29.4317> 815 246<383.595 574.687>
LayerCount: 2
Fore
SplineSet
970 1114 m 1,0,-1
 710 1114 l 1,1,2
 689 1272 689 1272 550 1272 c 0,3,4
 490 1272 490 1272 454 1243.5 c 128,-1,5
 418 1215 418 1215 418 1169.5 c 128,-1,6
 418 1124 418 1124 455 1088.5 c 128,-1,7
 492 1053 492 1053 602 992 c 2,8,-1
 863 849 l 2,9,10
 1061 740 1061 740 1061 537 c 0,11,12
 1061 433 1061 433 1016.5 367 c 128,-1,13
 972 301 972 301 870 254 c 1,14,15
 1013 152 1013 152 1013 -9.5 c 128,-1,16
 1013 -171 1013 -171 917 -277 c 0,17,18
 796 -412 796 -412 565 -412 c 0,19,20
 136 -412 136 -412 134 0 c 1,21,-1
 402 0 l 1,22,23
 402 -103 402 -103 444 -144 c 128,-1,24
 486 -185 486 -185 562 -185 c 128,-1,25
 638 -185 638 -185 681.5 -150 c 128,-1,26
 725 -115 725 -115 725 -59 c 128,-1,27
 725 -3 725 -3 695.5 25 c 128,-1,28
 666 53 666 53 579 99 c 1,29,-1
 229 305 l 2,30,31
 68 400 68 400 68 575 c 0,32,33
 68 668 68 668 107 730.5 c 128,-1,34
 146 793 146 793 257 877 c 1,35,36
 200 933 200 933 186 952 c 0,37,38
 131 1025 131 1025 131 1129 c 0,39,40
 131 1282 131 1282 251.5 1381.5 c 128,-1,41
 372 1481 372 1481 537.5 1481 c 128,-1,42
 703 1481 703 1481 796.5 1429 c 128,-1,43
 890 1377 890 1377 927 1306 c 128,-1,44
 964 1235 964 1235 970 1114 c 1,0,-1
397 781 m 1,45,46
 311 731 311 731 311 650 c 0,47,48
 311 601 311 601 334.5 570.5 c 128,-1,49
 358 540 358 540 421 505 c 2,50,-1
 721 342 l 1,51,52
 773 380 773 380 794 409.5 c 128,-1,53
 815 439 815 439 815 481.5 c 128,-1,54
 815 524 815 524 788.5 556.5 c 128,-1,55
 762 589 762 589 690 626 c 2,56,-1
 397 781 l 1,45,46
EndSplineSet
EndChar

StartChar: dieresis
Encoding: 168 168 101
Width: 682
GlyphClass: 2
Flags: W
HStem: 1271 250<37 262 418 643>
VStem: 37 225<1271 1521> 418 225<1271 1521>
LayerCount: 2
Fore
SplineSet
262 1521 m 1,0,-1
 262 1271 l 1,1,-1
 37 1271 l 1,2,-1
 37 1521 l 1,3,-1
 262 1521 l 1,0,-1
643 1521 m 1,4,-1
 643 1271 l 1,5,-1
 418 1271 l 1,6,-1
 418 1521 l 1,7,-1
 643 1521 l 1,4,-1
EndSplineSet
EndChar

StartChar: copyright
Encoding: 169 169 102
Width: 1509
GlyphClass: 2
Flags: W
HStem: -45 148<529.834 984.908> 262 170<613.937 884.682> 1043 170<619.045 885.746> 1374 148<522.985 979.779>
VStem: -29 160<503.924 973.935> 334 189<535.144 933.703> 946 188<494.399 609 883 981.145> 1378 160<499.579 976.144>
LayerCount: 2
Fore
SplineSet
1131 883 m 1,0,-1
 947 883 l 1,1,2
 912 1043 912 1043 757 1043 c 0,3,4
 656 1043 656 1043 600 980 c 0,5,6
 523 893 523 893 523 746.5 c 128,-1,7
 523 600 523 600 579 516 c 128,-1,8
 635 432 635 432 736 432 c 0,9,10
 930 432 930 432 946 609 c 1,11,-1
 1134 609 l 1,12,13
 1127 472 1127 472 1050 384 c 0,14,15
 944 262 944 262 738.5 262 c 128,-1,16
 533 262 533 262 422 420 c 0,17,18
 334 546 334 546 334 749.5 c 128,-1,19
 334 953 334 953 445 1083 c 128,-1,20
 556 1213 556 1213 758.5 1213 c 128,-1,21
 961 1213 961 1213 1069 1069 c 0,22,23
 1123 998 1123 998 1131 883 c 1,0,-1
1423 329 m 0,24,25
 1307 141 1307 141 1125 48 c 128,-1,26
 943 -45 943 -45 738.5 -45 c 128,-1,27
 534 -45 534 -45 345.5 70.5 c 128,-1,28
 157 186 157 186 64 368.5 c 128,-1,29
 -29 551 -29 551 -29 755 c 128,-1,30
 -29 959 -29 959 85 1146.5 c 128,-1,31
 199 1334 199 1334 382.5 1428 c 128,-1,32
 566 1522 566 1522 770.5 1522 c 128,-1,33
 975 1522 975 1522 1164 1406 c 128,-1,34
 1353 1290 1353 1290 1445.5 1108.5 c 128,-1,35
 1538 927 1538 927 1538 722.5 c 128,-1,36
 1538 518 1538 518 1423 329 c 0,24,25
754 1374 m 0,37,38
 498 1374 498 1374 314 1188 c 0,39,40
 227 1099 227 1099 179 982 c 128,-1,41
 131 865 131 865 131 739 c 0,42,43
 131 560 131 560 223 407.5 c 128,-1,44
 315 255 315 255 460 179 c 128,-1,45
 605 103 605 103 747 103 c 0,46,47
 1012 103 1012 103 1195 289 c 128,-1,48
 1378 475 1378 475 1378 740 c 0,49,50
 1378 918 1378 918 1287.5 1069.5 c 128,-1,51
 1197 1221 1197 1221 1051 1297.5 c 128,-1,52
 905 1374 905 1374 754 1374 c 0,37,38
EndSplineSet
EndChar

StartChar: ordfeminine
Encoding: 170 170 103
Width: 758
GlyphClass: 2
Flags: W
HStem: 536 160<76 656> 791 139<242.187 407.989> 1354 139<268.765 460.844>
VStem: 63 172<938.227 1074.01> 83 161<1263 1333.37> 465 168<841.127 885 971.774 1131 1242.44 1346.44>
LayerCount: 2
Fore
SplineSet
656 696 m 1,0,-1
 656 536 l 1,1,-1
 76 536 l 1,2,-1
 76 696 l 1,3,-1
 656 696 l 1,0,-1
673 840 m 1,4,-1
 673 819 l 1,5,-1
 485 819 l 1,6,7
 467 844 467 844 466 885 c 1,8,9
 375 791 375 791 274 791 c 128,-1,10
 173 791 173 791 118 846 c 128,-1,11
 63 901 63 901 63 992 c 0,12,13
 63 1169 63 1169 259 1202 c 2,14,-1
 327 1214 l 2,15,16
 412 1228 412 1228 438.5 1242 c 128,-1,17
 465 1256 465 1256 465 1290 c 0,18,19
 465 1354 465 1354 365 1354 c 0,20,21
 303 1354 303 1354 276.5 1334 c 128,-1,22
 250 1314 250 1314 244 1263 c 1,23,-1
 83 1263 l 1,24,25
 87 1493 87 1493 360 1493 c 128,-1,26
 633 1493 633 1493 633 1288 c 2,27,-1
 633 921 l 2,28,29
 633 876 633 876 673 840 c 1,4,-1
465 1131 m 1,30,31
 442 1121 442 1121 392 1111 c 2,32,-1
 333 1099 l 2,33,34
 280 1089 280 1089 257.5 1068.5 c 128,-1,35
 235 1048 235 1048 235 1010 c 0,36,37
 235 930 235 930 328 930 c 0,38,39
 393 930 393 930 429 970.5 c 128,-1,40
 465 1011 465 1011 465 1085 c 2,41,-1
 465 1131 l 1,30,31
EndSplineSet
EndChar

StartChar: guillemotleft
Encoding: 171 171 104
Width: 1139
GlyphClass: 2
Flags: W
LayerCount: 2
Fore
SplineSet
180 447 m 1,0,-1
 180 680 l 1,1,-1
 522 985 l 1,2,-1
 522 745 l 1,3,-1
 315 563 l 1,4,-1
 522 381 l 1,5,-1
 522 147 l 1,6,-1
 180 447 l 1,0,-1
616 447 m 1,7,-1
 616 680 l 1,8,-1
 958 985 l 1,9,-1
 958 745 l 1,10,-1
 751 563 l 1,11,-1
 958 381 l 1,12,-1
 958 147 l 1,13,-1
 616 447 l 1,7,-1
EndSplineSet
EndChar

StartChar: logicalnot
Encoding: 172 172 105
Width: 1196
GlyphClass: 2
Flags: W
HStem: 609 158<82 956>
VStem: 956 158<176 609>
LayerCount: 2
Fore
SplineSet
82 767 m 1,0,-1
 1114 767 l 1,1,-1
 1114 176 l 1,2,-1
 956 176 l 1,3,-1
 956 609 l 1,4,-1
 82 609 l 1,5,-1
 82 767 l 1,0,-1
EndSplineSet
EndChar

StartChar: registered
Encoding: 174 174 106
Width: 1509
GlyphClass: 2
Flags: W
HStem: -45 148<529.834 984.908> 642 166<591 888.229> 1029 166<591 903.598> 1374 148<522.985 979.779>
VStem: -29 160<503.924 973.935> 394 197<287 642 808 1029> 901 200<330.632 626.266> 933 196<287 596.844 828.495 1009.43> 1378 160<499.579 976.144>
LayerCount: 2
Fore
SplineSet
901 453 m 2,0,-1
 903 541 l 2,1,2
 903 642 903 642 778 642 c 2,3,-1
 591 642 l 1,4,-1
 591 287 l 1,5,-1
 394 287 l 1,6,-1
 394 1195 l 1,7,-1
 880 1195 l 2,8,9
 1000 1195 1000 1195 1064.5 1129 c 128,-1,10
 1129 1063 1129 1063 1129 947 c 0,11,12
 1129 798 1129 798 986 726 c 1,13,14
 1063 692 1063 692 1079.5 646.5 c 128,-1,15
 1096 601 1096 601 1101 400 c 0,16,17
 1102 350 1102 350 1140 330 c 1,18,-1
 1140 287 l 1,19,-1
 931 287 l 1,20,21
 911 323 911 323 906 352 c 128,-1,22
 901 381 901 381 901 453 c 2,0,-1
591 808 m 1,23,-1
 801 808 l 2,24,25
 876 808 876 808 904.5 832 c 128,-1,26
 933 856 933 856 933 918.5 c 128,-1,27
 933 981 933 981 904.5 1005 c 128,-1,28
 876 1029 876 1029 801 1029 c 2,29,-1
 591 1029 l 1,30,-1
 591 808 l 1,23,-1
1423 329 m 0,31,32
 1307 141 1307 141 1125 48 c 128,-1,33
 943 -45 943 -45 738.5 -45 c 128,-1,34
 534 -45 534 -45 345.5 70.5 c 128,-1,35
 157 186 157 186 64 368.5 c 128,-1,36
 -29 551 -29 551 -29 755 c 128,-1,37
 -29 959 -29 959 85 1146.5 c 128,-1,38
 199 1334 199 1334 382.5 1428 c 128,-1,39
 566 1522 566 1522 770.5 1522 c 128,-1,40
 975 1522 975 1522 1164 1406 c 128,-1,41
 1353 1290 1353 1290 1445.5 1108.5 c 128,-1,42
 1538 927 1538 927 1538 722.5 c 128,-1,43
 1538 518 1538 518 1423 329 c 0,31,32
754 1374 m 0,44,45
 498 1374 498 1374 314 1188 c 0,46,47
 227 1099 227 1099 179 982 c 128,-1,48
 131 865 131 865 131 739 c 0,49,50
 131 560 131 560 223 407.5 c 128,-1,51
 315 255 315 255 460 179 c 128,-1,52
 605 103 605 103 747 103 c 0,53,54
 1012 103 1012 103 1195 289 c 128,-1,55
 1378 475 1378 475 1378 740 c 0,56,57
 1378 918 1378 918 1287.5 1069.5 c 128,-1,58
 1197 1221 1197 1221 1051 1297.5 c 128,-1,59
 905 1374 905 1374 754 1374 c 0,44,45
EndSplineSet
EndChar

StartChar: macron
Encoding: 175 175 107
Width: 682
GlyphClass: 2
Flags: W
HStem: 1310 162<33 645>
VStem: 33 612<1310 1472>
LayerCount: 2
Fore
SplineSet
645 1472 m 1,0,-1
 645 1310 l 1,1,-1
 33 1310 l 1,2,-1
 33 1472 l 1,3,-1
 645 1472 l 1,0,-1
EndSplineSet
EndChar

StartChar: degree
Encoding: 176 176 108
Width: 819
GlyphClass: 2
Flags: W
HStem: 784 130<291.113 527.606> 1275 130<290.519 527.794>
VStem: 98 130<975.581 1213.01> 589 130<975.172 1212.55>
LayerCount: 2
Fore
SplineSet
189 875 m 128,-1,1
 98 966 98 966 98 1096 c 128,-1,2
 98 1226 98 1226 190.5 1315.5 c 128,-1,3
 283 1405 283 1405 410 1405 c 128,-1,4
 537 1405 537 1405 628 1314.5 c 128,-1,5
 719 1224 719 1224 719 1095 c 128,-1,6
 719 966 719 966 628 875 c 128,-1,7
 537 784 537 784 408.5 784 c 128,-1,0
 280 784 280 784 189 875 c 128,-1,1
536 1222.5 m 128,-1,9
 483 1275 483 1275 408.5 1275 c 128,-1,10
 334 1275 334 1275 281 1222 c 128,-1,11
 228 1169 228 1169 228 1094.5 c 128,-1,12
 228 1020 228 1020 281 967 c 128,-1,13
 334 914 334 914 408.5 914 c 128,-1,14
 483 914 483 914 536 966.5 c 128,-1,15
 589 1019 589 1019 589 1094.5 c 128,-1,8
 589 1170 589 1170 536 1222.5 c 128,-1,9
EndSplineSet
EndChar

StartChar: plusminus
Encoding: 177 177 109
Width: 1196
GlyphClass: 2
Flags: W
HStem: -33 244<115 1080> 641 244<115 475 719 1080>
VStem: 475 244<281 641 885 1245>
LayerCount: 2
Fore
SplineSet
1080 211 m 1,0,-1
 1080 -33 l 1,1,-1
 115 -33 l 1,2,-1
 115 211 l 1,3,-1
 1080 211 l 1,0,-1
1080 885 m 1,4,-1
 1080 641 l 1,5,-1
 719 641 l 1,6,-1
 719 281 l 1,7,-1
 475 281 l 1,8,-1
 475 641 l 1,9,-1
 115 641 l 1,10,-1
 115 885 l 1,11,-1
 475 885 l 1,12,-1
 475 1245 l 1,13,-1
 719 1245 l 1,14,-1
 719 885 l 1,15,-1
 1080 885 l 1,4,-1
EndSplineSet
EndChar

StartChar: acute
Encoding: 180 180 110
Width: 682
GlyphClass: 2
Flags: W
HStem: 1242 308
VStem: 248 401
LayerCount: 2
Fore
SplineSet
649 1550 m 1,0,-1
 391 1242 l 1,1,-1
 248 1242 l 1,2,-1
 391 1550 l 1,3,-1
 649 1550 l 1,0,-1
EndSplineSet
EndChar

StartChar: mu
Encoding: 181 181 111
Width: 1251
GlyphClass: 2
Flags: W
HStem: -451 21G<119 393> -47 244<461.275 709.907> -47 205<996.75 1172.62> 1086 20G<119 406 785 1072>
VStem: 119 287<-451 30 253.5 1106> 785 287<269.932 1106>
LayerCount: 2
Fore
SplineSet
393 -451 m 1,0,-1
 119 -451 l 1,1,-1
 119 1106 l 1,2,-1
 406 1106 l 1,3,-1
 406 423 l 2,4,5
 406 197 406 197 579 197 c 0,6,7
 656 197 656 197 720.5 250 c 128,-1,8
 785 303 785 303 785 414 c 2,9,-1
 785 1106 l 1,10,-1
 1072 1106 l 1,11,-1
 1072 308 l 2,12,13
 1072 218 1072 218 1084 188 c 128,-1,14
 1096 158 1096 158 1123 158 c 128,-1,15
 1150 158 1150 158 1174 166 c 1,16,-1
 1174 -11 l 1,17,18
 1110 -47 1110 -47 1034.5 -47 c 128,-1,19
 959 -47 959 -47 916 -22 c 128,-1,20
 873 3 873 3 837 65 c 1,21,22
 776 3 776 3 723 -22 c 128,-1,23
 670 -47 670 -47 599 -47 c 0,24,25
 478 -47 478 -47 393 30 c 1,26,-1
 393 -451 l 1,0,-1
EndSplineSet
EndChar

StartChar: paragraph
Encoding: 182 182 112
Width: 1139
GlyphClass: 2
Flags: W
HStem: 1345 148<667 794 995 1083>
VStem: 41 626<801.077 1223.62> 466 201<-390 551.271> 794 201<-390 1345>
LayerCount: 2
Fore
SplineSet
1083 1493 m 1,0,-1
 1083 1345 l 1,1,-1
 995 1345 l 1,2,-1
 995 -390 l 1,3,-1
 794 -390 l 1,4,-1
 794 1345 l 1,5,-1
 667 1345 l 1,6,-1
 667 -390 l 1,7,-1
 466 -390 l 1,8,-1
 466 547 l 1,9,10
 308 556 308 556 193 653 c 0,11,12
 122 714 122 714 81.5 810 c 128,-1,13
 41 906 41 906 41 1013 c 0,14,15
 41 1189 41 1189 152.5 1341 c 128,-1,16
 264 1493 264 1493 464 1493 c 2,17,-1
 1083 1493 l 1,0,-1
EndSplineSet
EndChar

StartChar: periodcentered
Encoding: 183 183 113
Width: 569
GlyphClass: 2
Flags: W
HStem: 442 252<131 385>
VStem: 131 254<442 694>
LayerCount: 2
Fore
SplineSet
131 694 m 1,0,-1
 385 694 l 1,1,-1
 385 442 l 1,2,-1
 131 442 l 1,3,-1
 131 694 l 1,0,-1
EndSplineSet
EndChar

StartChar: cedilla
Encoding: 184 184 114
Width: 682
GlyphClass: 2
Flags: W
HStem: -451 102<135.485 400.804>
VStem: 425 177<-327.158 -208.241>
LayerCount: 2
Fore
SplineSet
332 0 m 1,0,-1
 420 0 l 1,1,-1
 360 -128 l 1,2,3
 402 -115 402 -115 460.5 -115 c 128,-1,4
 519 -115 519 -115 560.5 -153.5 c 128,-1,5
 602 -192 602 -192 602 -272.5 c 128,-1,6
 602 -353 602 -353 534 -402 c 128,-1,7
 466 -451 466 -451 344 -451 c 128,-1,8
 222 -451 222 -451 55 -392 c 1,9,-1
 94 -286 l 1,10,11
 232 -349 232 -349 294.5 -349 c 128,-1,12
 357 -349 357 -349 391 -324.5 c 128,-1,13
 425 -300 425 -300 425 -265.5 c 128,-1,14
 425 -231 425 -231 396.5 -211.5 c 128,-1,15
 368 -192 368 -192 319.5 -192 c 128,-1,16
 271 -192 271 -192 220 -217 c 1,17,-1
 332 0 l 1,0,-1
EndSplineSet
EndChar

StartChar: ordmasculine
Encoding: 186 186 115
Width: 748
GlyphClass: 2
Flags: W
HStem: 536 160<67 683> 791 139<271.364 474.657> 1354 139<274.533 477.121>
VStem: 47 172<990.101 1295.77> 530 172<988.812 1294.74>
LayerCount: 2
Fore
SplineSet
683 696 m 1,0,-1
 683 536 l 1,1,-1
 67 536 l 1,2,-1
 67 696 l 1,3,-1
 683 696 l 1,0,-1
374.5 1493 m 128,-1,5
 537 1493 537 1493 619.5 1394.5 c 128,-1,6
 702 1296 702 1296 702 1143 c 128,-1,7
 702 990 702 990 620.5 890.5 c 128,-1,8
 539 791 539 791 374.5 791 c 128,-1,9
 210 791 210 791 128.5 890.5 c 128,-1,10
 47 990 47 990 47 1143 c 128,-1,11
 47 1296 47 1296 129.5 1394.5 c 128,-1,4
 212 1493 212 1493 374.5 1493 c 128,-1,5
487 988 m 128,-1,13
 530 1046 530 1046 530 1139.5 c 128,-1,14
 530 1233 530 1233 489.5 1293.5 c 128,-1,15
 449 1354 449 1354 376.5 1354 c 128,-1,16
 304 1354 304 1354 261.5 1295.5 c 128,-1,17
 219 1237 219 1237 219 1144 c 128,-1,18
 219 1051 219 1051 259.5 990.5 c 128,-1,19
 300 930 300 930 372 930 c 128,-1,12
 444 930 444 930 487 988 c 128,-1,13
EndSplineSet
EndChar

StartChar: guillemotright
Encoding: 187 187 116
Width: 1139
GlyphClass: 2
Flags: W
LayerCount: 2
Fore
SplineSet
522 685 m 1,0,-1
 522 452 l 1,1,-1
 180 147 l 1,2,-1
 180 387 l 1,3,-1
 387 569 l 1,4,-1
 180 751 l 1,5,-1
 180 985 l 1,6,-1
 522 685 l 1,0,-1
946 685 m 1,7,-1
 946 452 l 1,8,-1
 604 147 l 1,9,-1
 604 387 l 1,10,-1
 811 569 l 1,11,-1
 604 751 l 1,12,-1
 604 985 l 1,13,-1
 946 685 l 1,7,-1
EndSplineSet
EndChar

StartChar: questiondown
Encoding: 191 191 117
Width: 1251
GlyphClass: 2
Flags: W
HStem: -418 242<479.448 741.516> 807 299<456 763>
VStem: 104 288<-87.5851 193.739> 456 307<807 1106> 478.5 256.5<517.76 695> 835 279<-73.2676 121>
LayerCount: 2
Fore
SplineSet
488 695 m 1,0,-1
 742 695 l 1,1,2
 741 597 741 597 735 564 c 0,3,4
 711 430 711 430 537 290 c 0,5,6
 441 211 441 211 416.5 166 c 128,-1,7
 392 121 392 121 392 60 c 0,8,9
 392 -39 392 -39 453 -107.5 c 128,-1,10
 514 -176 514 -176 614 -176 c 128,-1,11
 714 -176 714 -176 774.5 -97 c 128,-1,12
 835 -18 835 -18 835 121 c 1,13,-1
 1114 121 l 1,14,15
 1110 -112 1110 -112 1018 -235 c 0,16,17
 883 -418 883 -418 616 -418 c 0,18,19
 383 -418 383 -418 243.5 -282.5 c 128,-1,20
 104 -147 104 -147 104 54 c 0,21,22
 104 182 104 182 156 265.5 c 128,-1,23
 208 349 208 349 351 451 c 0,24,25
 422 501 422 501 445.5 526.5 c 128,-1,26
 469 552 469 552 478.5 585.5 c 128,-1,27
 488 619 488 619 488 695 c 1,0,-1
456 807 m 1,28,-1
 456 1106 l 1,29,-1
 763 1106 l 1,30,-1
 763 807 l 1,31,-1
 456 807 l 1,28,-1
EndSplineSet
EndChar

StartChar: Agrave
Encoding: 192 192 118
Width: 1479
GlyphClass: 2
Flags: W
HStem: 301 256<552 943> 1473 20G<575.9 930.899>
LayerCount: 2
Fore
SplineSet
1025 301 m 1,0,-1
 466 301 l 1,1,-1
 366 0 l 1,2,-1
 53 0 l 1,3,-1
 583 1493 l 1,4,-1
 924 1493 l 1,5,-1
 1439 0 l 1,6,-1
 1124 0 l 1,7,-1
 1025 301 l 1,0,-1
943 557 m 1,8,-1
 748 1140 l 1,9,-1
 552 557 l 1,10,-1
 943 557 l 1,8,-1
453 1917 m 1,11,-1
 711 1917 l 1,12,-1
 854 1610 l 1,13,-1
 711 1610 l 1,14,-1
 453 1917 l 1,11,-1
EndSplineSet
EndChar

StartChar: Aacute
Encoding: 193 193 119
Width: 1479
GlyphClass: 2
Flags: W
HStem: 301 256<552 943> 1473 20G<575.9 930.899>
LayerCount: 2
Fore
SplineSet
1025 301 m 1,0,-1
 466 301 l 1,1,-1
 366 0 l 1,2,-1
 53 0 l 1,3,-1
 583 1493 l 1,4,-1
 924 1493 l 1,5,-1
 1439 0 l 1,6,-1
 1124 0 l 1,7,-1
 1025 301 l 1,0,-1
943 557 m 1,8,-1
 748 1140 l 1,9,-1
 552 557 l 1,10,-1
 943 557 l 1,8,-1
1044 1917 m 1,11,-1
 786 1610 l 1,12,-1
 642 1610 l 1,13,-1
 786 1917 l 1,14,-1
 1044 1917 l 1,11,-1
EndSplineSet
EndChar

StartChar: Acircumflex
Encoding: 194 194 120
Width: 1479
GlyphClass: 2
Flags: W
HStem: 301 256<552 943> 1473 20G<575.9 930.899>
LayerCount: 2
Fore
SplineSet
1025 301 m 1,0,-1
 466 301 l 1,1,-1
 366 0 l 1,2,-1
 53 0 l 1,3,-1
 583 1493 l 1,4,-1
 924 1493 l 1,5,-1
 1439 0 l 1,6,-1
 1124 0 l 1,7,-1
 1025 301 l 1,0,-1
943 557 m 1,8,-1
 748 1140 l 1,9,-1
 552 557 l 1,10,-1
 943 557 l 1,8,-1
641 1917 m 1,11,-1
 861 1917 l 1,12,-1
 1072 1610 l 1,13,-1
 912 1610 l 1,14,-1
 745 1815 l 1,15,-1
 577 1610 l 1,16,-1
 421 1610 l 1,17,-1
 641 1917 l 1,11,-1
EndSplineSet
EndChar

StartChar: Atilde
Encoding: 195 195 121
Width: 1479
GlyphClass: 2
Flags: W
HStem: 301 256<552 943> 1473 20G<575.9 930.899> 1639 162<760.422 976.532> 1731 162<536.873 752.438>
VStem: 394 128<1638 1720.62> 991 128<1811.96 1901>
LayerCount: 2
Fore
SplineSet
1025 301 m 1,0,-1
 466 301 l 1,1,-1
 366 0 l 1,2,-1
 53 0 l 1,3,-1
 583 1493 l 1,4,-1
 924 1493 l 1,5,-1
 1439 0 l 1,6,-1
 1124 0 l 1,7,-1
 1025 301 l 1,0,-1
943 557 m 1,8,-1
 748 1140 l 1,9,-1
 552 557 l 1,10,-1
 943 557 l 1,8,-1
1119 1901 m 1,11,12
 1104 1639 1104 1639 924 1639 c 0,13,14
 880 1639 880 1639 813 1664 c 2,15,-1
 667 1718 l 2,16,17
 632 1731 632 1731 605 1731 c 0,18,19
 537 1731 537 1731 522 1638 c 1,20,-1
 394 1638 l 1,21,22
 400 1758 400 1758 451 1825.5 c 128,-1,23
 502 1893 502 1893 587 1893 c 0,24,25
 627 1893 627 1893 701 1867 c 2,26,-1
 847 1815 l 2,27,28
 886 1801 886 1801 917 1801 c 0,29,30
 979 1801 979 1801 991 1901 c 1,31,-1
 1119 1901 l 1,11,12
EndSplineSet
EndChar

StartChar: Adieresis
Encoding: 196 196 122
Width: 1479
GlyphClass: 2
Flags: W
HStem: 301 256<552 943> 1473 20G<575.9 930.899> 1638 250<443 668 824 1049>
VStem: 443 225<1638 1888> 824 225<1638 1888>
LayerCount: 2
Fore
SplineSet
1025 301 m 1,0,-1
 466 301 l 1,1,-1
 366 0 l 1,2,-1
 53 0 l 1,3,-1
 583 1493 l 1,4,-1
 924 1493 l 1,5,-1
 1439 0 l 1,6,-1
 1124 0 l 1,7,-1
 1025 301 l 1,0,-1
943 557 m 1,8,-1
 748 1140 l 1,9,-1
 552 557 l 1,10,-1
 943 557 l 1,8,-1
668 1888 m 1,11,-1
 668 1638 l 1,12,-1
 443 1638 l 1,13,-1
 443 1888 l 1,14,-1
 668 1888 l 1,11,-1
1049 1888 m 1,15,-1
 1049 1638 l 1,16,-1
 824 1638 l 1,17,-1
 824 1888 l 1,18,-1
 1049 1888 l 1,15,-1
EndSplineSet
EndChar

StartChar: Aring
Encoding: 197 197 123
Width: 1479
GlyphClass: 2
Flags: W
HStem: 301 256<552 943> 1473 20G<575.9 930.899> 1576 98<671.328 814.956> 1846 98<679.302 815.33>
VStem: 562 98<1685.33 1827.12> 833 98<1692.19 1827.96>
LayerCount: 2
Fore
SplineSet
1025 301 m 1,0,-1
 466 301 l 1,1,-1
 366 0 l 1,2,-1
 53 0 l 1,3,-1
 583 1493 l 1,4,-1
 924 1493 l 1,5,-1
 1439 0 l 1,6,-1
 1124 0 l 1,7,-1
 1025 301 l 1,0,-1
943 557 m 1,8,-1
 748 1140 l 1,9,-1
 552 557 l 1,10,-1
 943 557 l 1,8,-1
616 1891 m 128,-1,12
 670 1944 670 1944 747.5 1944 c 128,-1,13
 825 1944 825 1944 878 1889.5 c 128,-1,14
 931 1835 931 1835 931 1759 c 128,-1,15
 931 1683 931 1683 876.5 1629.5 c 128,-1,16
 822 1576 822 1576 746 1576 c 128,-1,17
 670 1576 670 1576 616 1630 c 128,-1,18
 562 1684 562 1684 562 1761 c 128,-1,11
 562 1838 562 1838 616 1891 c 128,-1,12
748 1846 m 128,-1,20
 712 1846 712 1846 686 1821 c 128,-1,21
 660 1796 660 1796 660 1760.5 c 128,-1,22
 660 1725 660 1725 686 1699.5 c 128,-1,23
 712 1674 712 1674 747.5 1674 c 128,-1,24
 783 1674 783 1674 808 1699 c 128,-1,25
 833 1724 833 1724 833 1760 c 128,-1,26
 833 1796 833 1796 808.5 1821 c 128,-1,19
 784 1846 784 1846 748 1846 c 128,-1,20
EndSplineSet
EndChar

StartChar: AE
Encoding: 198 198 124
Width: 2048
GlyphClass: 3
Flags: W
HStem: 0 256<1188 1978> 311 256<510 881> 643 256<1188 1882> 1238 255<744 881 1188 1938>
VStem: 881 307<256 311 567 643 899 1237>
LayerCount: 2
Fore
SplineSet
881 311 m 1,0,-1
 424 311 l 1,1,-1
 316 0 l 1,2,-1
 2 0 l 1,3,-1
 540 1493 l 1,4,-1
 1938 1493 l 1,5,-1
 1938 1238 l 1,6,-1
 1188 1238 l 1,7,-1
 1188 899 l 1,8,-1
 1882 899 l 1,9,-1
 1882 643 l 1,10,-1
 1188 643 l 1,11,-1
 1188 256 l 1,12,-1
 1978 256 l 1,13,-1
 1978 0 l 1,14,-1
 881 0 l 1,15,-1
 881 311 l 1,0,-1
881 567 m 1,16,-1
 881 1237 l 1,17,-1
 744 1237 l 1,18,-1
 510 567 l 1,19,-1
 881 567 l 1,16,-1
EndSplineSet
EndChar

StartChar: Ccedilla
Encoding: 199 199 125
Width: 1479
GlyphClass: 2
Flags: W
HStem: -451 102<512.347 777.804> -48 259<775 956.438> 1256 262<602.562 962.865>
VStem: 90 307<457.681 1010.45> 802 177<-327.158 -208.241> 1103 300<359.856 510 988 1110.51>
LayerCount: 2
Fore
SplineSet
775 -48 m 1,0,-1
 737 -128 l 1,1,2
 780 -115 780 -115 838 -115 c 128,-1,3
 896 -115 896 -115 937.5 -153.5 c 128,-1,4
 979 -192 979 -192 979 -272.5 c 128,-1,5
 979 -353 979 -353 911 -402 c 128,-1,6
 843 -451 843 -451 721 -451 c 128,-1,7
 599 -451 599 -451 432 -392 c 1,8,-1
 471 -286 l 1,9,10
 608 -349 608 -349 671 -349 c 128,-1,11
 734 -349 734 -349 768 -324.5 c 128,-1,12
 802 -300 802 -300 802 -265.5 c 128,-1,13
 802 -231 802 -231 773.5 -211.5 c 128,-1,14
 745 -192 745 -192 696 -192 c 128,-1,15
 647 -192 647 -192 597 -218 c 1,16,-1
 685 -46 l 1,17,18
 583 -28 583 -28 531 -11 c 0,19,20
 295 64 295 64 174 318 c 0,21,22
 90 493 90 493 90 734 c 0,23,24
 90 1092 90 1092 272 1305 c 128,-1,25
 454 1518 454 1518 774 1518 c 0,26,27
 973 1518 973 1518 1112.5 1439 c 128,-1,28
 1252 1360 1252 1360 1318.5 1251.5 c 128,-1,29
 1385 1143 1385 1143 1397 988 c 1,30,-1
 1103 988 l 1,31,32
 1080 1093 1080 1093 1035 1148 c 0,33,34
 948 1256 948 1256 782.5 1256 c 128,-1,35
 617 1256 617 1256 524 1147 c 0,36,37
 397 1000 397 1000 397 750.5 c 128,-1,38
 397 501 397 501 489.5 356 c 128,-1,39
 582 211 582 211 774 211 c 0,40,41
 917 211 917 211 1003 289 c 128,-1,42
 1089 367 1089 367 1103 510 c 1,43,-1
 1403 510 l 1,44,45
 1388 236 1388 236 1196 86 c 0,46,47
 1040 -37 1040 -37 775 -48 c 1,0,-1
EndSplineSet
EndChar

StartChar: Egrave
Encoding: 200 200 126
Width: 1366
GlyphClass: 2
Flags: W
HStem: 0 256<469 1278> 643 256<469 1184> 1237 256<469 1241>
VStem: 162 307<256 643 899 1237>
LayerCount: 2
Fore
SplineSet
469 643 m 1,0,-1
 469 256 l 1,1,-1
 1278 256 l 1,2,-1
 1278 0 l 1,3,-1
 162 0 l 1,4,-1
 162 1493 l 1,5,-1
 1241 1493 l 1,6,-1
 1241 1237 l 1,7,-1
 469 1237 l 1,8,-1
 469 899 l 1,9,-1
 1184 899 l 1,10,-1
 1184 643 l 1,11,-1
 469 643 l 1,0,-1
426 1917 m 1,12,-1
 685 1917 l 1,13,-1
 828 1610 l 1,14,-1
 685 1610 l 1,15,-1
 426 1917 l 1,12,-1
EndSplineSet
EndChar

StartChar: Eacute
Encoding: 201 201 127
Width: 1366
GlyphClass: 2
Flags: W
HStem: 0 256<469 1278> 643 256<469 1184> 1237 256<469 1241>
VStem: 162 307<256 643 899 1237>
LayerCount: 2
Fore
SplineSet
469 643 m 1,0,-1
 469 256 l 1,1,-1
 1278 256 l 1,2,-1
 1278 0 l 1,3,-1
 162 0 l 1,4,-1
 162 1493 l 1,5,-1
 1241 1493 l 1,6,-1
 1241 1237 l 1,7,-1
 469 1237 l 1,8,-1
 469 899 l 1,9,-1
 1184 899 l 1,10,-1
 1184 643 l 1,11,-1
 469 643 l 1,0,-1
984 1917 m 1,12,-1
 725 1610 l 1,13,-1
 582 1610 l 1,14,-1
 725 1917 l 1,15,-1
 984 1917 l 1,12,-1
EndSplineSet
EndChar

StartChar: Ecircumflex
Encoding: 202 202 128
Width: 1366
GlyphClass: 2
Flags: W
HStem: 0 256<469 1278> 643 256<469 1184> 1237 256<469 1241>
VStem: 162 307<256 643 899 1237>
LayerCount: 2
Fore
SplineSet
469 643 m 1,0,-1
 469 256 l 1,1,-1
 1278 256 l 1,2,-1
 1278 0 l 1,3,-1
 162 0 l 1,4,-1
 162 1493 l 1,5,-1
 1241 1493 l 1,6,-1
 1241 1237 l 1,7,-1
 469 1237 l 1,8,-1
 469 899 l 1,9,-1
 1184 899 l 1,10,-1
 1184 643 l 1,11,-1
 469 643 l 1,0,-1
601 1917 m 1,12,-1
 821 1917 l 1,13,-1
 1032 1610 l 1,14,-1
 873 1610 l 1,15,-1
 705 1815 l 1,16,-1
 537 1610 l 1,17,-1
 381 1610 l 1,18,-1
 601 1917 l 1,12,-1
EndSplineSet
EndChar

StartChar: Edieresis
Encoding: 203 203 129
Width: 1366
GlyphClass: 2
Flags: W
HStem: 0 256<469 1278> 643 256<469 1184> 1237 256<469 1241> 1638 250<403 628 784 1009>
VStem: 162 307<256 643 899 1237> 403 225<1638 1888> 784 225<1638 1888>
LayerCount: 2
Fore
SplineSet
469 643 m 1,0,-1
 469 256 l 1,1,-1
 1278 256 l 1,2,-1
 1278 0 l 1,3,-1
 162 0 l 1,4,-1
 162 1493 l 1,5,-1
 1241 1493 l 1,6,-1
 1241 1237 l 1,7,-1
 469 1237 l 1,8,-1
 469 899 l 1,9,-1
 1184 899 l 1,10,-1
 1184 643 l 1,11,-1
 469 643 l 1,0,-1
628 1888 m 1,12,-1
 628 1638 l 1,13,-1
 403 1638 l 1,14,-1
 403 1888 l 1,15,-1
 628 1888 l 1,12,-1
1009 1888 m 1,16,-1
 1009 1638 l 1,17,-1
 784 1638 l 1,18,-1
 784 1888 l 1,19,-1
 1009 1888 l 1,16,-1
EndSplineSet
EndChar

StartChar: Igrave
Encoding: 204 204 130
Width: 569
GlyphClass: 2
Flags: W
HStem: 1473 20G<130 437>
VStem: 130 307<0 1493>
LayerCount: 2
Fore
SplineSet
437 1493 m 1,0,-1
 437 0 l 1,1,-1
 130 0 l 1,2,-1
 130 1493 l 1,3,-1
 437 1493 l 1,0,-1
-20 1917 m 1,4,-1
 238 1917 l 1,5,-1
 381 1610 l 1,6,-1
 238 1610 l 1,7,-1
 -20 1917 l 1,4,-1
EndSplineSet
EndChar

StartChar: Iacute
Encoding: 205 205 131
Width: 569
GlyphClass: 2
Flags: W
HStem: 1473 20G<129 436>
VStem: 129 307<0 1493>
LayerCount: 2
Fore
SplineSet
436 1493 m 1,0,-1
 436 0 l 1,1,-1
 129 0 l 1,2,-1
 129 1493 l 1,3,-1
 436 1493 l 1,0,-1
594 1917 m 1,4,-1
 336 1610 l 1,5,-1
 192 1610 l 1,6,-1
 336 1917 l 1,7,-1
 594 1917 l 1,4,-1
EndSplineSet
EndChar

StartChar: Icircumflex
Encoding: 206 206 132
Width: 569
GlyphClass: 2
Flags: W
HStem: 1473 20G<129 436>
VStem: 129 307<0 1493>
LayerCount: 2
Fore
SplineSet
436 1493 m 1,0,-1
 436 0 l 1,1,-1
 129 0 l 1,2,-1
 129 1493 l 1,3,-1
 436 1493 l 1,0,-1
181 1917 m 1,4,-1
 401 1917 l 1,5,-1
 612 1610 l 1,6,-1
 453 1610 l 1,7,-1
 285 1815 l 1,8,-1
 117 1610 l 1,9,-1
 -39 1610 l 1,10,-1
 181 1917 l 1,4,-1
EndSplineSet
EndChar

StartChar: Idieresis
Encoding: 207 207 133
Width: 569
GlyphClass: 2
Flags: W
HStem: 1473 20G<129 436> 1638 250<-18 207 363 588>
VStem: -18 225<1638 1888> 129 307<0 1493> 363 225<1638 1888>
LayerCount: 2
Fore
SplineSet
436 1493 m 1,0,-1
 436 0 l 1,1,-1
 129 0 l 1,2,-1
 129 1493 l 1,3,-1
 436 1493 l 1,0,-1
207 1888 m 1,4,-1
 207 1638 l 1,5,-1
 -18 1638 l 1,6,-1
 -18 1888 l 1,7,-1
 207 1888 l 1,4,-1
588 1888 m 1,8,-1
 588 1638 l 1,9,-1
 363 1638 l 1,10,-1
 363 1888 l 1,11,-1
 588 1888 l 1,8,-1
EndSplineSet
EndChar

StartChar: Ntilde
Encoding: 209 209 134
Width: 1479
GlyphClass: 2
Flags: W
HStem: 1473 20G<139 465.665 1046 1353> 1639 162<763.625 980.377> 1731 162<540.346 754.469>
VStem: 139 307<0 1032> 397 129<1638 1720.62> 994 128<1811.96 1901> 1046 307<478 1493>
LayerCount: 2
Fore
SplineSet
1046 0 m 1,0,-1
 446 1032 l 1,1,-1
 446 0 l 1,2,-1
 139 0 l 1,3,-1
 139 1493 l 1,4,-1
 454 1493 l 1,5,-1
 1046 478 l 1,6,-1
 1046 1493 l 1,7,-1
 1353 1493 l 1,8,-1
 1353 0 l 1,9,-1
 1046 0 l 1,0,-1
1122 1901 m 1,10,11
 1109 1639 1109 1639 928 1639 c 0,12,13
 884 1639 884 1639 816 1664 c 2,14,-1
 670 1718 l 2,15,16
 635 1731 635 1731 608 1731 c 0,17,18
 540 1731 540 1731 526 1638 c 1,19,-1
 397 1638 l 1,20,21
 403 1758 403 1758 454 1825.5 c 128,-1,22
 505 1893 505 1893 591 1893 c 0,23,24
 631 1893 631 1893 704 1867 c 2,25,-1
 851 1815 l 2,26,27
 890 1801 890 1801 920 1801 c 0,28,29
 983 1801 983 1801 994 1901 c 1,30,-1
 1122 1901 l 1,10,11
EndSplineSet
EndChar

StartChar: Ograve
Encoding: 210 210 135
Width: 1593
GlyphClass: 2
Flags: W
HStem: -47 262<614.742 987.907> 1256 262<614.36 987.105>
VStem: 82 307<478.191 993.877> 1213 307<478.966 990.943>
LayerCount: 2
Fore
SplineSet
799 1518 m 0,0,1
 1117 1518 1117 1518 1311 1312 c 0,2,3
 1520 1090 1520 1090 1520 702 c 0,4,5
 1520 500 1520 500 1416 307 c 128,-1,6
 1312 114 1312 114 1129 23 c 0,7,8
 988 -47 988 -47 801 -47 c 0,9,10
 484 -47 484 -47 291 159 c 0,11,12
 193 264 193 264 137.5 415 c 128,-1,13
 82 566 82 566 82 736 c 0,14,15
 82 973 82 973 187 1166 c 0,16,17
 378 1518 378 1518 799 1518 c 0,0,1
1077 1142 m 0,18,19
 971 1256 971 1256 801.5 1256 c 128,-1,20
 632 1256 632 1256 526 1142 c 0,21,22
 389 996 389 996 389 736 c 128,-1,23
 389 476 389 476 526 329 c 0,24,25
 632 215 632 215 802 215 c 128,-1,26
 972 215 972 215 1077 329 c 0,27,28
 1213 478 1213 478 1213 736.5 c 128,-1,29
 1213 995 1213 995 1077 1142 c 0,18,19
521 1917 m 1,30,-1
 779 1917 l 1,31,-1
 922 1610 l 1,32,-1
 779 1610 l 1,33,-1
 521 1917 l 1,30,-1
EndSplineSet
EndChar

StartChar: Oacute
Encoding: 211 211 136
Width: 1593
GlyphClass: 2
Flags: W
HStem: -47 262<614.742 987.907> 1256 262<614.36 987.105>
VStem: 82 307<478.191 993.877> 1213 307<478.966 990.943>
LayerCount: 2
Fore
SplineSet
799 1518 m 0,0,1
 1117 1518 1117 1518 1311 1312 c 0,2,3
 1520 1090 1520 1090 1520 702 c 0,4,5
 1520 500 1520 500 1416 307 c 128,-1,6
 1312 114 1312 114 1129 23 c 0,7,8
 988 -47 988 -47 801 -47 c 0,9,10
 484 -47 484 -47 291 159 c 0,11,12
 193 264 193 264 137.5 415 c 128,-1,13
 82 566 82 566 82 736 c 0,14,15
 82 973 82 973 187 1166 c 0,16,17
 378 1518 378 1518 799 1518 c 0,0,1
1077 1142 m 0,18,19
 971 1256 971 1256 801.5 1256 c 128,-1,20
 632 1256 632 1256 526 1142 c 0,21,22
 389 996 389 996 389 736 c 128,-1,23
 389 476 389 476 526 329 c 0,24,25
 632 215 632 215 802 215 c 128,-1,26
 972 215 972 215 1077 329 c 0,27,28
 1213 478 1213 478 1213 736.5 c 128,-1,29
 1213 995 1213 995 1077 1142 c 0,18,19
1085 1917 m 1,30,-1
 827 1610 l 1,31,-1
 683 1610 l 1,32,-1
 827 1917 l 1,33,-1
 1085 1917 l 1,30,-1
EndSplineSet
EndChar

StartChar: Ocircumflex
Encoding: 212 212 137
Width: 1593
GlyphClass: 2
Flags: W
HStem: -47 262<614.742 987.907> 1256 262<614.36 987.105>
VStem: 82 307<478.191 993.877> 1213 307<478.966 990.943>
LayerCount: 2
Fore
SplineSet
799 1518 m 0,0,1
 1117 1518 1117 1518 1311 1312 c 0,2,3
 1520 1090 1520 1090 1520 702 c 0,4,5
 1520 500 1520 500 1416 307 c 128,-1,6
 1312 114 1312 114 1129 23 c 0,7,8
 988 -47 988 -47 801 -47 c 0,9,10
 484 -47 484 -47 291 159 c 0,11,12
 193 264 193 264 137.5 415 c 128,-1,13
 82 566 82 566 82 736 c 0,14,15
 82 973 82 973 187 1166 c 0,16,17
 378 1518 378 1518 799 1518 c 0,0,1
1077 1142 m 0,18,19
 971 1256 971 1256 801.5 1256 c 128,-1,20
 632 1256 632 1256 526 1142 c 0,21,22
 389 996 389 996 389 736 c 128,-1,23
 389 476 389 476 526 329 c 0,24,25
 632 215 632 215 802 215 c 128,-1,26
 972 215 972 215 1077 329 c 0,27,28
 1213 478 1213 478 1213 736.5 c 128,-1,29
 1213 995 1213 995 1077 1142 c 0,18,19
695 1917 m 1,30,-1
 916 1917 l 1,31,-1
 1126 1610 l 1,32,-1
 967 1610 l 1,33,-1
 800 1815 l 1,34,-1
 632 1610 l 1,35,-1
 475 1610 l 1,36,-1
 695 1917 l 1,30,-1
EndSplineSet
EndChar

StartChar: Otilde
Encoding: 213 213 138
Width: 1593
GlyphClass: 2
Flags: W
HStem: -47 262<614.742 987.907> 1256 262<614.36 987.105> 1639 162<818.102 1034.53> 1731 162<594.873 809.008>
VStem: 82 307<478.191 993.877> 452 128<1638 1720.62> 1049 128<1811.96 1901> 1213 307<478.966 990.943>
LayerCount: 2
Fore
SplineSet
799 1518 m 0,0,1
 1117 1518 1117 1518 1311 1312 c 0,2,3
 1520 1090 1520 1090 1520 702 c 0,4,5
 1520 500 1520 500 1416 307 c 128,-1,6
 1312 114 1312 114 1129 23 c 0,7,8
 988 -47 988 -47 801 -47 c 0,9,10
 484 -47 484 -47 291 159 c 0,11,12
 193 264 193 264 137.5 415 c 128,-1,13
 82 566 82 566 82 736 c 0,14,15
 82 973 82 973 187 1166 c 0,16,17
 378 1518 378 1518 799 1518 c 0,0,1
1077 1142 m 0,18,19
 971 1256 971 1256 801.5 1256 c 128,-1,20
 632 1256 632 1256 526 1142 c 0,21,22
 389 996 389 996 389 736 c 128,-1,23
 389 476 389 476 526 329 c 0,24,25
 632 215 632 215 802 215 c 128,-1,26
 972 215 972 215 1077 329 c 0,27,28
 1213 478 1213 478 1213 736.5 c 128,-1,29
 1213 995 1213 995 1077 1142 c 0,18,19
1177 1901 m 1,30,31
 1162 1639 1162 1639 982 1639 c 0,32,33
 938 1639 938 1639 870 1664 c 2,34,-1
 725 1718 l 2,35,36
 690 1731 690 1731 663 1731 c 0,37,38
 595 1731 595 1731 580 1638 c 1,39,-1
 452 1638 l 1,40,41
 458 1758 458 1758 509 1825.5 c 128,-1,42
 560 1893 560 1893 645 1893 c 0,43,44
 685 1893 685 1893 759 1867 c 2,45,-1
 905 1815 l 2,46,47
 944 1801 944 1801 975 1801 c 0,48,49
 1037 1801 1037 1801 1049 1901 c 1,50,-1
 1177 1901 l 1,30,31
EndSplineSet
EndChar

StartChar: Odieresis
Encoding: 214 214 139
Width: 1593
GlyphClass: 2
Flags: W
HStem: -47 262<614.742 987.907> 1256 262<614.36 987.105> 1638 250<498 723 879 1104>
VStem: 82 307<478.191 993.877> 498 225<1638 1888> 879 225<1638 1888> 1213 307<478.966 990.943>
LayerCount: 2
Fore
SplineSet
799 1518 m 0,0,1
 1117 1518 1117 1518 1311 1312 c 0,2,3
 1520 1090 1520 1090 1520 702 c 0,4,5
 1520 500 1520 500 1416 307 c 128,-1,6
 1312 114 1312 114 1129 23 c 0,7,8
 988 -47 988 -47 801 -47 c 0,9,10
 484 -47 484 -47 291 159 c 0,11,12
 193 264 193 264 137.5 415 c 128,-1,13
 82 566 82 566 82 736 c 0,14,15
 82 973 82 973 187 1166 c 0,16,17
 378 1518 378 1518 799 1518 c 0,0,1
1077 1142 m 0,18,19
 971 1256 971 1256 801.5 1256 c 128,-1,20
 632 1256 632 1256 526 1142 c 0,21,22
 389 996 389 996 389 736 c 128,-1,23
 389 476 389 476 526 329 c 0,24,25
 632 215 632 215 802 215 c 128,-1,26
 972 215 972 215 1077 329 c 0,27,28
 1213 478 1213 478 1213 736.5 c 128,-1,29
 1213 995 1213 995 1077 1142 c 0,18,19
723 1888 m 1,30,-1
 723 1638 l 1,31,-1
 498 1638 l 1,32,-1
 498 1888 l 1,33,-1
 723 1888 l 1,30,-1
1104 1888 m 1,34,-1
 1104 1638 l 1,35,-1
 879 1638 l 1,36,-1
 879 1888 l 1,37,-1
 1104 1888 l 1,34,-1
EndSplineSet
EndChar

StartChar: Oslash
Encoding: 216 216 140
Width: 1593
GlyphClass: 2
Flags: W
HStem: -48 263<598.238 980.019> 1256 261<606.474 983.043>
VStem: 72 308<460.916 992.048> 1206 308<477.807 1014.9>
LayerCount: 2
Fore
SplineSet
1363 1240 m 1,0,1
 1514 1032 1514 1032 1514 731 c 0,2,3
 1514 499 1514 499 1410 306 c 0,4,5
 1218 -48 1218 -48 794 -48 c 0,6,7
 516 -48 516 -48 337 107 c 1,8,-1
 167 -81 l 1,9,-1
 63 14 l 1,10,-1
 239 209 l 1,11,12
 72 434 72 434 72 735 c 0,13,14
 72 972 72 972 176 1164 c 0,15,16
 368 1517 368 1517 794 1517 c 0,17,18
 940 1517 940 1517 1053 1476.5 c 128,-1,19
 1166 1436 1166 1436 1269 1346 c 1,20,-1
 1440 1534 l 1,21,-1
 1546 1441 l 1,22,-1
 1363 1240 l 1,0,1
524 313 m 1,23,24
 624 215 624 215 793 215 c 128,-1,25
 962 215 962 215 1069 329 c 0,26,27
 1206 476 1206 476 1206 739 c 0,28,29
 1206 893 1206 893 1162 1017 c 1,30,-1
 524 313 l 1,23,24
1081 1138 m 1,31,32
 967 1256 967 1256 795 1256 c 128,-1,33
 623 1256 623 1256 517 1142 c 0,34,35
 380 994 380 994 380 729 c 0,36,37
 380 559 380 559 437 427 c 1,38,-1
 1081 1138 l 1,31,32
EndSplineSet
EndChar

StartChar: Ugrave
Encoding: 217 217 141
Width: 1479
GlyphClass: 2
Flags: W
HStem: -47 262<562.092 933.825> 1473 20G<156 463 1033 1340>
VStem: 156 307<313.75 1493> 1033 307<313.776 1493>
LayerCount: 2
Fore
SplineSet
1033 1493 m 1,0,-1
 1340 1493 l 1,1,-1
 1340 481 l 2,2,3
 1340 237 1340 237 1195 105 c 0,4,5
 1027 -47 1027 -47 748 -47 c 128,-1,6
 469 -47 469 -47 301 105 c 0,7,8
 156 237 156 237 156 481 c 2,9,-1
 156 1493 l 1,10,-1
 463 1493 l 1,11,-1
 463 481 l 2,12,13
 463 340 463 340 537.5 277.5 c 128,-1,14
 612 215 612 215 752 215 c 0,15,16
 1032 215 1032 215 1033 481 c 2,17,-1
 1033 1493 l 1,0,-1
468 1917 m 1,18,-1
 726 1917 l 1,19,-1
 869 1610 l 1,20,-1
 726 1610 l 1,21,-1
 468 1917 l 1,18,-1
EndSplineSet
EndChar

StartChar: Uacute
Encoding: 218 218 142
Width: 1479
GlyphClass: 2
Flags: W
HStem: -47 262<562.092 933.825> 1473 20G<156 463 1033 1340>
VStem: 156 307<313.75 1493> 1033 307<313.776 1493>
LayerCount: 2
Fore
SplineSet
1033 1493 m 1,0,-1
 1340 1493 l 1,1,-1
 1340 481 l 2,2,3
 1340 237 1340 237 1195 105 c 0,4,5
 1027 -47 1027 -47 748 -47 c 128,-1,6
 469 -47 469 -47 301 105 c 0,7,8
 156 237 156 237 156 481 c 2,9,-1
 156 1493 l 1,10,-1
 463 1493 l 1,11,-1
 463 481 l 2,12,13
 463 340 463 340 537.5 277.5 c 128,-1,14
 612 215 612 215 752 215 c 0,15,16
 1032 215 1032 215 1033 481 c 2,17,-1
 1033 1493 l 1,0,-1
1032 1917 m 1,18,-1
 774 1610 l 1,19,-1
 630 1610 l 1,20,-1
 774 1917 l 1,21,-1
 1032 1917 l 1,18,-1
EndSplineSet
EndChar

StartChar: Ucircumflex
Encoding: 219 219 143
Width: 1479
GlyphClass: 2
Flags: W
HStem: -47 262<562.092 933.825> 1473 20G<156 463 1033 1340>
VStem: 156 307<313.75 1493> 1033 307<313.776 1493>
LayerCount: 2
Fore
SplineSet
1033 1493 m 1,0,-1
 1340 1493 l 1,1,-1
 1340 481 l 2,2,3
 1340 237 1340 237 1195 105 c 0,4,5
 1027 -47 1027 -47 748 -47 c 128,-1,6
 469 -47 469 -47 301 105 c 0,7,8
 156 237 156 237 156 481 c 2,9,-1
 156 1493 l 1,10,-1
 463 1493 l 1,11,-1
 463 481 l 2,12,13
 463 340 463 340 537.5 277.5 c 128,-1,14
 612 215 612 215 752 215 c 0,15,16
 1032 215 1032 215 1033 481 c 2,17,-1
 1033 1493 l 1,0,-1
642 1917 m 1,18,-1
 863 1917 l 1,19,-1
 1074 1610 l 1,20,-1
 914 1610 l 1,21,-1
 747 1815 l 1,22,-1
 579 1610 l 1,23,-1
 422 1610 l 1,24,-1
 642 1917 l 1,18,-1
EndSplineSet
EndChar

StartChar: Udieresis
Encoding: 220 220 144
Width: 1479
GlyphClass: 2
Flags: W
HStem: -47 262<562.092 933.825> 1473 20G<156 463 1033 1340> 1638 250<445 670 826 1051>
VStem: 156 307<313.75 1493> 445 225<1638 1888> 826 225<1638 1888> 1033 307<313.776 1493>
LayerCount: 2
Fore
SplineSet
1033 1493 m 1,0,-1
 1340 1493 l 1,1,-1
 1340 481 l 2,2,3
 1340 237 1340 237 1195 105 c 0,4,5
 1027 -47 1027 -47 748 -47 c 128,-1,6
 469 -47 469 -47 301 105 c 0,7,8
 156 237 156 237 156 481 c 2,9,-1
 156 1493 l 1,10,-1
 463 1493 l 1,11,-1
 463 481 l 2,12,13
 463 340 463 340 537.5 277.5 c 128,-1,14
 612 215 612 215 752 215 c 0,15,16
 1032 215 1032 215 1033 481 c 2,17,-1
 1033 1493 l 1,0,-1
670 1888 m 1,18,-1
 670 1638 l 1,19,-1
 445 1638 l 1,20,-1
 445 1888 l 1,21,-1
 670 1888 l 1,18,-1
1051 1888 m 1,22,-1
 1051 1638 l 1,23,-1
 826 1638 l 1,24,-1
 826 1888 l 1,25,-1
 1051 1888 l 1,22,-1
EndSplineSet
EndChar

StartChar: Yacute
Encoding: 221 221 145
Width: 1366
GlyphClass: 2
Flags: W
HStem: 1473 20G<55 406.287 978.381 1330>
VStem: 551 307<0 553>
LayerCount: 2
Fore
SplineSet
858 553 m 1,0,-1
 858 0 l 1,1,-1
 551 0 l 1,2,-1
 551 553 l 1,3,-1
 55 1493 l 1,4,-1
 397 1493 l 1,5,-1
 703 834 l 1,6,-1
 987 1493 l 1,7,-1
 1330 1493 l 1,8,-1
 858 553 l 1,0,-1
984 1917 m 1,9,-1
 725 1610 l 1,10,-1
 582 1610 l 1,11,-1
 725 1917 l 1,12,-1
 984 1917 l 1,9,-1
EndSplineSet
EndChar

StartChar: germandbls
Encoding: 223 223 146
Width: 1251
GlyphClass: 3
Flags: W
HStem: -35 243<583 788.622> 715 194<583 742.407> 1261 232<470.9 744.446>
VStem: 137 287<0 1215.35> 801 287<967.727 1206.48> 890 287<307.324 612.97>
LayerCount: 2
Fore
SplineSet
1088 1120 m 0,0,1
 1088 911 1088 911 910 843 c 1,2,3
 1004 823 1004 823 1066.5 764.5 c 128,-1,4
 1129 706 1129 706 1153 642.5 c 128,-1,5
 1177 579 1177 579 1177 484 c 0,6,7
 1177 301 1177 301 1097 165 c 0,8,9
 1038 64 1038 64 938.5 14.5 c 128,-1,10
 839 -35 839 -35 754.5 -35 c 128,-1,11
 670 -35 670 -35 583 -22 c 1,12,-1
 583 208 l 1,13,-1
 609 208 l 2,14,15
 735 209 735 209 799 260 c 0,16,17
 890 331 890 331 890 455.5 c 128,-1,18
 890 580 890 580 815.5 647.5 c 128,-1,19
 741 715 741 715 609 715 c 0,20,21
 597 715 597 715 583 714 c 1,22,-1
 583 909 l 1,23,24
 647 909 647 909 689 924 c 0,25,26
 801 965 801 965 801 1091 c 0,27,28
 801 1170 801 1170 748 1215.5 c 128,-1,29
 695 1261 695 1261 606 1261 c 128,-1,30
 517 1261 517 1261 470.5 1219 c 128,-1,31
 424 1177 424 1177 424 1101 c 2,32,-1
 424 0 l 1,33,-1
 137 0 l 1,34,-1
 137 1061 l 2,35,36
 137 1193 137 1193 172 1274 c 0,37,38
 226 1398 226 1398 381 1453 c 0,39,40
 491 1493 491 1493 620 1493 c 0,41,42
 806 1493 806 1493 947 1396.5 c 128,-1,43
 1088 1300 1088 1300 1088 1120 c 0,0,1
EndSplineSet
EndChar

StartChar: agrave
Encoding: 224 224 147
Width: 1139
GlyphClass: 2
Flags: W
HStem: -47 231<381.475 581.187> 893 231<408.075 700.626>
VStem: 55 287<218.714 415.793> 726 281<56.7188 110 271.602 521 699.508 862.922>
LayerCount: 2
Fore
SplineSet
1073 35 m 1,0,-1
 1073 0 l 1,1,-1
 760 0 l 1,2,3
 741 25 741 25 735 45 c 128,-1,4
 729 65 729 65 728 110 c 1,5,6
 576 -47 576 -47 404.5 -47 c 128,-1,7
 233 -47 233 -47 134 58 c 0,8,9
 55 141 55 141 55 285 c 0,10,11
 55 578 55 578 382 634 c 2,12,-1
 496 653 l 2,13,14
 602 670 602 670 624.5 675.5 c 128,-1,15
 647 681 647 681 677 697 c 0,16,17
 726 723 726 723 726 781 c 0,18,19
 726 893 726 893 559 893 c 0,20,21
 454 893 454 893 411 860.5 c 128,-1,22
 368 828 368 828 358 741 c 1,23,-1
 81 741 l 1,24,25
 108 1124 108 1124 557.5 1124 c 128,-1,26
 1007 1124 1007 1124 1007 783 c 2,27,-1
 1007 170 l 2,28,29
 1007 127 1007 127 1021 99 c 128,-1,30
 1035 71 1035 71 1073 35 c 1,0,-1
726 521 m 1,31,32
 687 503 687 503 606 487 c 2,33,-1
 506 468 l 2,34,35
 419 451 419 451 380.5 416 c 128,-1,36
 342 381 342 381 342 318 c 128,-1,37
 342 255 342 255 383.5 219.5 c 128,-1,38
 425 184 425 184 498 184 c 0,39,40
 607 184 607 184 666.5 251.5 c 128,-1,41
 726 319 726 319 726 443 c 2,42,-1
 726 521 l 1,31,32
270 1550 m 1,43,-1
 529 1550 l 1,44,-1
 672 1242 l 1,45,-1
 529 1242 l 1,46,-1
 270 1550 l 1,43,-1
EndSplineSet
EndChar

StartChar: aacute
Encoding: 225 225 148
Width: 1139
GlyphClass: 2
Flags: W
HStem: -47 231<381.475 581.187> 893 231<408.075 700.626>
VStem: 55 287<218.714 415.793> 726 281<56.7188 110 271.602 521 699.508 862.922>
LayerCount: 2
Fore
SplineSet
1073 35 m 1,0,-1
 1073 0 l 1,1,-1
 760 0 l 1,2,3
 741 25 741 25 735 45 c 128,-1,4
 729 65 729 65 728 110 c 1,5,6
 576 -47 576 -47 404.5 -47 c 128,-1,7
 233 -47 233 -47 134 58 c 0,8,9
 55 141 55 141 55 285 c 0,10,11
 55 578 55 578 382 634 c 2,12,-1
 496 653 l 2,13,14
 602 670 602 670 624.5 675.5 c 128,-1,15
 647 681 647 681 677 697 c 0,16,17
 726 723 726 723 726 781 c 0,18,19
 726 893 726 893 559 893 c 0,20,21
 454 893 454 893 411 860.5 c 128,-1,22
 368 828 368 828 358 741 c 1,23,-1
 81 741 l 1,24,25
 108 1124 108 1124 557.5 1124 c 128,-1,26
 1007 1124 1007 1124 1007 783 c 2,27,-1
 1007 170 l 2,28,29
 1007 127 1007 127 1021 99 c 128,-1,30
 1035 71 1035 71 1073 35 c 1,0,-1
726 521 m 1,31,32
 687 503 687 503 606 487 c 2,33,-1
 506 468 l 2,34,35
 419 451 419 451 380.5 416 c 128,-1,36
 342 381 342 381 342 318 c 128,-1,37
 342 255 342 255 383.5 219.5 c 128,-1,38
 425 184 425 184 498 184 c 0,39,40
 607 184 607 184 666.5 251.5 c 128,-1,41
 726 319 726 319 726 443 c 2,42,-1
 726 521 l 1,31,32
841 1550 m 1,43,-1
 583 1242 l 1,44,-1
 440 1242 l 1,45,-1
 583 1550 l 1,46,-1
 841 1550 l 1,43,-1
EndSplineSet
EndChar

StartChar: acircumflex
Encoding: 226 226 149
Width: 1139
GlyphClass: 2
Flags: W
HStem: -47 231<381.475 581.187> 893 231<408.075 700.626>
VStem: 55 287<218.714 415.793> 726 281<56.7188 110 271.602 521 699.508 862.922>
LayerCount: 2
Fore
SplineSet
1073 35 m 1,0,-1
 1073 0 l 1,1,-1
 760 0 l 1,2,3
 741 25 741 25 735 45 c 128,-1,4
 729 65 729 65 728 110 c 1,5,6
 576 -47 576 -47 404.5 -47 c 128,-1,7
 233 -47 233 -47 134 58 c 0,8,9
 55 141 55 141 55 285 c 0,10,11
 55 578 55 578 382 634 c 2,12,-1
 496 653 l 2,13,14
 602 670 602 670 624.5 675.5 c 128,-1,15
 647 681 647 681 677 697 c 0,16,17
 726 723 726 723 726 781 c 0,18,19
 726 893 726 893 559 893 c 0,20,21
 454 893 454 893 411 860.5 c 128,-1,22
 368 828 368 828 358 741 c 1,23,-1
 81 741 l 1,24,25
 108 1124 108 1124 557.5 1124 c 128,-1,26
 1007 1124 1007 1124 1007 783 c 2,27,-1
 1007 170 l 2,28,29
 1007 127 1007 127 1021 99 c 128,-1,30
 1035 71 1035 71 1073 35 c 1,0,-1
726 521 m 1,31,32
 687 503 687 503 606 487 c 2,33,-1
 506 468 l 2,34,35
 419 451 419 451 380.5 416 c 128,-1,36
 342 381 342 381 342 318 c 128,-1,37
 342 255 342 255 383.5 219.5 c 128,-1,38
 425 184 425 184 498 184 c 0,39,40
 607 184 607 184 666.5 251.5 c 128,-1,41
 726 319 726 319 726 443 c 2,42,-1
 726 521 l 1,31,32
452 1550 m 1,43,-1
 672 1550 l 1,44,-1
 883 1242 l 1,45,-1
 723 1242 l 1,46,-1
 556 1447 l 1,47,-1
 388 1242 l 1,48,-1
 231 1242 l 1,49,-1
 452 1550 l 1,43,-1
EndSplineSet
EndChar

StartChar: atilde
Encoding: 227 227 150
Width: 1139
GlyphClass: 2
Flags: W
HStem: -47 231<381.475 581.187> 893 231<408.075 700.626> 1272 162<559.781 777.928> 1364 161<337.346 551.797>
VStem: 55 287<218.714 415.793> 195 128<1271 1353.55> 726 281<56.7188 110 271.602 521 699.508 862.922> 792 128<1444.3 1533>
LayerCount: 2
Fore
SplineSet
1073 35 m 1,0,-1
 1073 0 l 1,1,-1
 760 0 l 1,2,3
 741 25 741 25 735 45 c 128,-1,4
 729 65 729 65 728 110 c 1,5,6
 576 -47 576 -47 404.5 -47 c 128,-1,7
 233 -47 233 -47 134 58 c 0,8,9
 55 141 55 141 55 285 c 0,10,11
 55 578 55 578 382 634 c 2,12,-1
 496 653 l 2,13,14
 602 670 602 670 624.5 675.5 c 128,-1,15
 647 681 647 681 677 697 c 0,16,17
 726 723 726 723 726 781 c 0,18,19
 726 893 726 893 559 893 c 0,20,21
 454 893 454 893 411 860.5 c 128,-1,22
 368 828 368 828 358 741 c 1,23,-1
 81 741 l 1,24,25
 108 1124 108 1124 557.5 1124 c 128,-1,26
 1007 1124 1007 1124 1007 783 c 2,27,-1
 1007 170 l 2,28,29
 1007 127 1007 127 1021 99 c 128,-1,30
 1035 71 1035 71 1073 35 c 1,0,-1
726 521 m 1,31,32
 687 503 687 503 606 487 c 2,33,-1
 506 468 l 2,34,35
 419 451 419 451 380.5 416 c 128,-1,36
 342 381 342 381 342 318 c 128,-1,37
 342 255 342 255 383.5 219.5 c 128,-1,38
 425 184 425 184 498 184 c 0,39,40
 607 184 607 184 666.5 251.5 c 128,-1,41
 726 319 726 319 726 443 c 2,42,-1
 726 521 l 1,31,32
920 1533 m 1,43,44
 905 1272 905 1272 725 1272 c 0,45,46
 681 1272 681 1272 613 1297 c 2,47,-1
 467 1351 l 2,48,49
 432 1364 432 1364 405 1364 c 0,50,51
 337 1364 337 1364 323 1271 c 1,52,-1
 195 1271 l 1,53,54
 200 1391 200 1391 251 1458 c 128,-1,55
 302 1525 302 1525 388 1525 c 0,56,57
 429 1525 429 1525 502 1499 c 2,58,-1
 648 1447 l 2,59,60
 686 1434 686 1434 717 1434 c 0,61,62
 780 1434 780 1434 792 1533 c 1,63,-1
 920 1533 l 1,43,44
EndSplineSet
EndChar

StartChar: adieresis
Encoding: 228 228 151
Width: 1139
GlyphClass: 2
Flags: W
HStem: -47 231<381.475 581.187> 893 231<408.075 700.626> 1271 250<254 479 635 860>
VStem: 55 287<218.714 415.793> 254 225<1271 1521> 635 225<1271 1521> 726 281<56.7188 110 271.602 521 699.508 862.922>
LayerCount: 2
Fore
SplineSet
1073 35 m 1,0,-1
 1073 0 l 1,1,-1
 760 0 l 1,2,3
 741 25 741 25 735 45 c 128,-1,4
 729 65 729 65 728 110 c 1,5,6
 576 -47 576 -47 404.5 -47 c 128,-1,7
 233 -47 233 -47 134 58 c 0,8,9
 55 141 55 141 55 285 c 0,10,11
 55 578 55 578 382 634 c 2,12,-1
 496 653 l 2,13,14
 602 670 602 670 624.5 675.5 c 128,-1,15
 647 681 647 681 677 697 c 0,16,17
 726 723 726 723 726 781 c 0,18,19
 726 893 726 893 559 893 c 0,20,21
 454 893 454 893 411 860.5 c 128,-1,22
 368 828 368 828 358 741 c 1,23,-1
 81 741 l 1,24,25
 108 1124 108 1124 557.5 1124 c 128,-1,26
 1007 1124 1007 1124 1007 783 c 2,27,-1
 1007 170 l 2,28,29
 1007 127 1007 127 1021 99 c 128,-1,30
 1035 71 1035 71 1073 35 c 1,0,-1
726 521 m 1,31,32
 687 503 687 503 606 487 c 2,33,-1
 506 468 l 2,34,35
 419 451 419 451 380.5 416 c 128,-1,36
 342 381 342 381 342 318 c 128,-1,37
 342 255 342 255 383.5 219.5 c 128,-1,38
 425 184 425 184 498 184 c 0,39,40
 607 184 607 184 666.5 251.5 c 128,-1,41
 726 319 726 319 726 443 c 2,42,-1
 726 521 l 1,31,32
479 1521 m 1,43,-1
 479 1271 l 1,44,-1
 254 1271 l 1,45,-1
 254 1521 l 1,46,-1
 479 1521 l 1,43,-1
860 1521 m 1,47,-1
 860 1271 l 1,48,-1
 635 1271 l 1,49,-1
 635 1521 l 1,50,-1
 860 1521 l 1,47,-1
EndSplineSet
EndChar

StartChar: aring
Encoding: 229 229 152
Width: 1139
GlyphClass: 2
Flags: W
HStem: -47 231<381.475 581.187> 893 231<408.075 700.626> 1208 98<489.505 624.324> 1479 98<489.615 625.33>
VStem: 55 287<218.714 415.793> 373 98<1324.99 1460.7> 643 98<1324.5 1460.9> 726 281<56.7188 110 271.602 521 699.508 862.922>
LayerCount: 2
Fore
SplineSet
1073 35 m 1,0,-1
 1073 0 l 1,1,-1
 760 0 l 1,2,3
 741 25 741 25 735 45 c 128,-1,4
 729 65 729 65 728 110 c 1,5,6
 576 -47 576 -47 404.5 -47 c 128,-1,7
 233 -47 233 -47 134 58 c 0,8,9
 55 141 55 141 55 285 c 0,10,11
 55 578 55 578 382 634 c 2,12,-1
 496 653 l 2,13,14
 602 670 602 670 624.5 675.5 c 128,-1,15
 647 681 647 681 677 697 c 0,16,17
 726 723 726 723 726 781 c 0,18,19
 726 893 726 893 559 893 c 0,20,21
 454 893 454 893 411 860.5 c 128,-1,22
 368 828 368 828 358 741 c 1,23,-1
 81 741 l 1,24,25
 108 1124 108 1124 557.5 1124 c 128,-1,26
 1007 1124 1007 1124 1007 783 c 2,27,-1
 1007 170 l 2,28,29
 1007 127 1007 127 1021 99 c 128,-1,30
 1035 71 1035 71 1073 35 c 1,0,-1
726 521 m 1,31,32
 687 503 687 503 606 487 c 2,33,-1
 506 468 l 2,34,35
 419 451 419 451 380.5 416 c 128,-1,36
 342 381 342 381 342 318 c 128,-1,37
 342 255 342 255 383.5 219.5 c 128,-1,38
 425 184 425 184 498 184 c 0,39,40
 607 184 607 184 666.5 251.5 c 128,-1,41
 726 319 726 319 726 443 c 2,42,-1
 726 521 l 1,31,32
426.5 1523.5 m 128,-1,44
 480 1577 480 1577 557.5 1577 c 128,-1,45
 635 1577 635 1577 688 1522.5 c 128,-1,46
 741 1468 741 1468 741 1391.5 c 128,-1,47
 741 1315 741 1315 687 1261.5 c 128,-1,48
 633 1208 633 1208 556.5 1208 c 128,-1,49
 480 1208 480 1208 426.5 1262 c 128,-1,50
 373 1316 373 1316 373 1393 c 128,-1,43
 373 1470 373 1470 426.5 1523.5 c 128,-1,44
618.5 1454 m 128,-1,52
 594 1479 594 1479 558 1479 c 128,-1,53
 522 1479 522 1479 496.5 1454 c 128,-1,54
 471 1429 471 1429 471 1393 c 128,-1,55
 471 1357 471 1357 496.5 1331.5 c 128,-1,56
 522 1306 522 1306 557.5 1306 c 128,-1,57
 593 1306 593 1306 618 1331.5 c 128,-1,58
 643 1357 643 1357 643 1393 c 128,-1,51
 643 1429 643 1429 618.5 1454 c 128,-1,52
EndSplineSet
EndChar

StartChar: ae
Encoding: 230 230 153
Width: 1821
GlyphClass: 3
Flags: W
HStem: -47 232<380.539 612.889 1090.22 1403.32> 463 190<1015 1456> 893 231<406.305 702.521 1087.65 1379.53>
VStem: 54 287<221.433 421.253> 725 286<269.868 463 705.503 806.562>
LayerCount: 2
Fore
SplineSet
819 166 m 1,0,1
 754 89 754 89 691 44 c 0,2,3
 566 -47 566 -47 398 -47 c 128,-1,4
 230 -47 230 -47 132 60 c 0,5,6
 54 145 54 145 54 290 c 0,7,8
 54 583 54 583 381 639 c 2,9,-1
 495 658 l 2,10,11
 601 676 601 676 624 681.5 c 128,-1,12
 647 687 647 687 676 703 c 0,13,14
 725 729 725 729 725 785 c 0,15,16
 725 893 725 893 551 893 c 0,17,18
 453 893 453 893 410 859 c 128,-1,19
 367 825 367 825 357 741 c 1,20,-1
 89 741 l 1,21,22
 91 902 91 902 175 994 c 0,23,24
 294 1124 294 1124 545.5 1124 c 128,-1,25
 797 1124 797 1124 914 1022 c 1,26,27
 1040 1124 1040 1124 1248.5 1124 c 128,-1,28
 1457 1124 1457 1124 1597 984 c 0,29,30
 1755 828 1755 828 1755 513 c 0,31,32
 1755 494 1755 494 1753 463 c 1,33,-1
 1011 463 l 1,34,35
 1012 336 1012 336 1052 273 c 0,36,37
 1117 172 1117 172 1245 172 c 0,38,39
 1320 172 1320 172 1380 211.5 c 128,-1,40
 1440 251 1440 251 1459 312 c 1,41,-1
 1742 312 l 1,42,43
 1702 177 1702 177 1600 87 c 0,44,45
 1449 -47 1449 -47 1229 -47 c 0,46,47
 952 -47 952 -47 819 166 c 1,0,1
725 521 m 1,48,49
 678 492 678 492 605 482 c 2,50,-1
 505 468 l 2,51,52
 341 444 341 444 341 318 c 0,53,54
 341 256 341 256 382.5 220.5 c 128,-1,55
 424 185 424 185 497 185 c 0,56,57
 608 185 608 185 666.5 251.5 c 128,-1,58
 725 318 725 318 725 443 c 2,59,-1
 725 521 l 1,48,49
1456 653 m 1,60,61
 1447 758 1447 758 1410 813 c 0,62,63
 1349 905 1349 905 1242 905 c 0,64,65
 1033 905 1033 905 1015 653 c 1,66,-1
 1456 653 l 1,60,61
EndSplineSet
EndChar

StartChar: ccedilla
Encoding: 231 231 154
Width: 1139
GlyphClass: 2
Flags: W
HStem: -451 102<336.102 600.928> -47 231<597 719.52> 893 231<452.954 718.312>
VStem: 70 287<303.514 781.47> 625 177<-327.158 -207.307>
LayerCount: 2
Fore
SplineSet
576 893 m 0,0,1
 357 894 357 894 357 520 c 0,2,3
 357 344 357 344 434 250 c 0,4,5
 490 184 490 184 582 184 c 128,-1,6
 674 184 674 184 721 229.5 c 128,-1,7
 768 275 768 275 795 382 c 1,8,-1
 1069 382 l 1,9,10
 1049 188 1049 188 922.5 73.5 c 128,-1,11
 796 -41 796 -41 597 -47 c 1,12,-1
 561 -128 l 1,13,14
 603 -115 603 -115 661 -115 c 128,-1,15
 719 -115 719 -115 760.5 -153.5 c 128,-1,16
 802 -192 802 -192 802 -272.5 c 128,-1,17
 802 -353 802 -353 734 -402 c 128,-1,18
 666 -451 666 -451 544.5 -451 c 128,-1,19
 423 -451 423 -451 255 -392 c 1,20,-1
 294 -286 l 1,21,22
 435 -349 435 -349 496 -349 c 128,-1,23
 557 -349 557 -349 591 -324.5 c 128,-1,24
 625 -300 625 -300 625 -265.5 c 128,-1,25
 625 -231 625 -231 597 -211.5 c 128,-1,26
 569 -192 569 -192 519.5 -192 c 128,-1,27
 470 -192 470 -192 420 -218 c 1,28,-1
 509 -43 l 1,29,30
 343 -22 343 -22 234 77 c 0,31,32
 70 228 70 228 70 538.5 c 128,-1,33
 70 849 70 849 244 1007 c 0,34,35
 374 1124 374 1124 593 1124 c 0,36,37
 861 1124 861 1124 990 935 c 0,38,39
 1058 834 1058 834 1069 693 c 1,40,-1
 795 693 l 1,41,42
 774 786 774 786 742 826 c 0,43,44
 689 893 689 893 576 893 c 0,0,1
EndSplineSet
EndChar

StartChar: egrave
Encoding: 232 232 155
Width: 1139
GlyphClass: 2
Flags: W
HStem: -47 219<422.108 706.173> 463 190<335 776> 905 219<421.935 686.366>
VStem: 44 288<269.602 463 653 797.379>
LayerCount: 2
Fore
SplineSet
1074 463 m 1,0,-1
 332 463 l 1,1,2
 337 325 337 325 374 268 c 0,3,4
 435 172 435 172 562 172 c 0,5,6
 640 172 640 172 696.5 208.5 c 128,-1,7
 753 245 753 245 779 312 c 1,8,-1
 1062 312 l 1,9,10
 1023 177 1023 177 921 87 c 0,11,12
 769 -47 769 -47 547.5 -47 c 128,-1,13
 326 -47 326 -47 185 98.5 c 128,-1,14
 44 244 44 244 44 518 c 128,-1,15
 44 792 44 792 172 954 c 0,16,17
 235 1034 235 1034 337 1079 c 128,-1,18
 439 1124 439 1124 556 1124 c 0,19,20
 775 1124 775 1124 925.5 976 c 128,-1,21
 1076 828 1076 828 1076 513 c 0,22,23
 1076 494 1076 494 1074 463 c 1,0,-1
776 653 m 1,24,25
 768 757 768 757 731 812 c 0,26,27
 668 905 668 905 553 905 c 0,28,29
 363 905 363 905 335 653 c 1,30,-1
 776 653 l 1,24,25
273 1550 m 1,31,-1
 532 1550 l 1,32,-1
 675 1242 l 1,33,-1
 532 1242 l 1,34,-1
 273 1550 l 1,31,-1
EndSplineSet
EndChar

StartChar: eacute
Encoding: 233 233 156
Width: 1139
GlyphClass: 2
Flags: W
HStem: -47 219<422.108 706.173> 463 190<335 776> 905 219<421.935 686.366>
VStem: 44 288<269.602 463 653 797.379>
LayerCount: 2
Fore
SplineSet
1074 463 m 1,0,-1
 332 463 l 1,1,2
 337 325 337 325 374 268 c 0,3,4
 435 172 435 172 562 172 c 0,5,6
 640 172 640 172 696.5 208.5 c 128,-1,7
 753 245 753 245 779 312 c 1,8,-1
 1062 312 l 1,9,10
 1023 177 1023 177 921 87 c 0,11,12
 769 -47 769 -47 547.5 -47 c 128,-1,13
 326 -47 326 -47 185 98.5 c 128,-1,14
 44 244 44 244 44 518 c 128,-1,15
 44 792 44 792 172 954 c 0,16,17
 235 1034 235 1034 337 1079 c 128,-1,18
 439 1124 439 1124 556 1124 c 0,19,20
 775 1124 775 1124 925.5 976 c 128,-1,21
 1076 828 1076 828 1076 513 c 0,22,23
 1076 494 1076 494 1074 463 c 1,0,-1
776 653 m 1,24,25
 768 757 768 757 731 812 c 0,26,27
 668 905 668 905 553 905 c 0,28,29
 363 905 363 905 335 653 c 1,30,-1
 776 653 l 1,24,25
858 1550 m 1,31,-1
 599 1242 l 1,32,-1
 456 1242 l 1,33,-1
 599 1550 l 1,34,-1
 858 1550 l 1,31,-1
EndSplineSet
EndChar

StartChar: ecircumflex
Encoding: 234 234 157
Width: 1139
GlyphClass: 2
Flags: W
HStem: -47 219<422.108 706.173> 463 190<335 776> 905 219<421.935 686.366>
VStem: 44 288<269.602 463 653 797.379>
LayerCount: 2
Fore
SplineSet
1074 463 m 1,0,-1
 332 463 l 1,1,2
 337 325 337 325 374 268 c 0,3,4
 435 172 435 172 562 172 c 0,5,6
 640 172 640 172 696.5 208.5 c 128,-1,7
 753 245 753 245 779 312 c 1,8,-1
 1062 312 l 1,9,10
 1023 177 1023 177 921 87 c 0,11,12
 769 -47 769 -47 547.5 -47 c 128,-1,13
 326 -47 326 -47 185 98.5 c 128,-1,14
 44 244 44 244 44 518 c 128,-1,15
 44 792 44 792 172 954 c 0,16,17
 235 1034 235 1034 337 1079 c 128,-1,18
 439 1124 439 1124 556 1124 c 0,19,20
 775 1124 775 1124 925.5 976 c 128,-1,21
 1076 828 1076 828 1076 513 c 0,22,23
 1076 494 1076 494 1074 463 c 1,0,-1
776 653 m 1,24,25
 768 757 768 757 731 812 c 0,26,27
 668 905 668 905 553 905 c 0,28,29
 363 905 363 905 335 653 c 1,30,-1
 776 653 l 1,24,25
468 1550 m 1,31,-1
 688 1550 l 1,32,-1
 899 1242 l 1,33,-1
 740 1242 l 1,34,-1
 572 1447 l 1,35,-1
 404 1242 l 1,36,-1
 248 1242 l 1,37,-1
 468 1550 l 1,31,-1
EndSplineSet
EndChar

StartChar: edieresis
Encoding: 235 235 158
Width: 1139
GlyphClass: 2
Flags: W
HStem: -47 219<422.108 706.173> 463 190<335 776> 905 219<421.935 686.366> 1271 250<271 496 652 877>
VStem: 44 288<269.602 463 653 797.379> 271 225<1271 1521> 652 225<1271 1521>
LayerCount: 2
Fore
SplineSet
1074 463 m 1,0,-1
 332 463 l 1,1,2
 337 325 337 325 374 268 c 0,3,4
 435 172 435 172 562 172 c 0,5,6
 640 172 640 172 696.5 208.5 c 128,-1,7
 753 245 753 245 779 312 c 1,8,-1
 1062 312 l 1,9,10
 1023 177 1023 177 921 87 c 0,11,12
 769 -47 769 -47 547.5 -47 c 128,-1,13
 326 -47 326 -47 185 98.5 c 128,-1,14
 44 244 44 244 44 518 c 128,-1,15
 44 792 44 792 172 954 c 0,16,17
 235 1034 235 1034 337 1079 c 128,-1,18
 439 1124 439 1124 556 1124 c 0,19,20
 775 1124 775 1124 925.5 976 c 128,-1,21
 1076 828 1076 828 1076 513 c 0,22,23
 1076 494 1076 494 1074 463 c 1,0,-1
776 653 m 1,24,25
 768 757 768 757 731 812 c 0,26,27
 668 905 668 905 553 905 c 0,28,29
 363 905 363 905 335 653 c 1,30,-1
 776 653 l 1,24,25
496 1521 m 1,31,-1
 496 1271 l 1,32,-1
 271 1271 l 1,33,-1
 271 1521 l 1,34,-1
 496 1521 l 1,31,-1
877 1521 m 1,35,-1
 877 1271 l 1,36,-1
 652 1271 l 1,37,-1
 652 1521 l 1,38,-1
 877 1521 l 1,35,-1
EndSplineSet
EndChar

StartChar: igrave
Encoding: 236 236 159
Width: 569
GlyphClass: 2
Flags: W
HStem: 1086 20G<138 425>
VStem: 138 287<0 1106>
LayerCount: 2
Fore
SplineSet
425 1106 m 1,0,-1
 425 0 l 1,1,-1
 138 0 l 1,2,-1
 138 1106 l 1,3,-1
 425 1106 l 1,0,-1
-20 1550 m 1,4,-1
 238 1550 l 1,5,-1
 381 1242 l 1,6,-1
 238 1242 l 1,7,-1
 -20 1550 l 1,4,-1
EndSplineSet
EndChar

StartChar: iacute
Encoding: 237 237 160
Width: 569
GlyphClass: 2
Flags: W
HStem: 1086 20G<137 424>
VStem: 137 287<0 1106>
LayerCount: 2
Fore
SplineSet
424 1106 m 1,0,-1
 424 0 l 1,1,-1
 137 0 l 1,2,-1
 137 1106 l 1,3,-1
 424 1106 l 1,0,-1
594 1550 m 1,4,-1
 335 1242 l 1,5,-1
 192 1242 l 1,6,-1
 335 1550 l 1,7,-1
 594 1550 l 1,4,-1
EndSplineSet
EndChar

StartChar: icircumflex
Encoding: 238 238 161
Width: 569
GlyphClass: 2
Flags: W
HStem: 1086 20G<137 424>
VStem: 137 287<0 1106>
LayerCount: 2
Fore
SplineSet
424 1106 m 1,0,-1
 424 0 l 1,1,-1
 137 0 l 1,2,-1
 137 1106 l 1,3,-1
 424 1106 l 1,0,-1
181 1550 m 1,4,-1
 401 1550 l 1,5,-1
 612 1242 l 1,6,-1
 453 1242 l 1,7,-1
 285 1447 l 1,8,-1
 117 1242 l 1,9,-1
 -39 1242 l 1,10,-1
 181 1550 l 1,4,-1
EndSplineSet
EndChar

StartChar: idieresis
Encoding: 239 239 162
Width: 569
GlyphClass: 2
Flags: W
HStem: 1086 20G<138 425> 1271 250<-18 207 363 588>
VStem: -18 225<1271 1521> 138 287<0 1106> 363 225<1271 1521>
LayerCount: 2
Fore
SplineSet
425 1106 m 1,0,-1
 425 0 l 1,1,-1
 138 0 l 1,2,-1
 138 1106 l 1,3,-1
 425 1106 l 1,0,-1
207 1521 m 1,4,-1
 207 1271 l 1,5,-1
 -18 1271 l 1,6,-1
 -18 1521 l 1,7,-1
 207 1521 l 1,4,-1
588 1521 m 1,8,-1
 588 1271 l 1,9,-1
 363 1271 l 1,10,-1
 363 1521 l 1,11,-1
 588 1521 l 1,8,-1
EndSplineSet
EndChar

StartChar: ntilde
Encoding: 241 241 163
Width: 1251
GlyphClass: 2
Flags: W
HStem: 880 244<553.799 779.48> 1086 20G<129 416> 1272 162<620.625 837.601> 1364 161<397.109 611.469>
VStem: 129 287<0 803.217 945 1106> 254 128<1271 1353.55> 831 287<0 825.016> 851 128<1444.3 1533>
LayerCount: 2
Fore
SplineSet
129 1106 m 1,0,-1
 416 1106 l 1,1,-1
 416 945 l 1,2,3
 469 1026 469 1026 527 1064 c 0,4,5
 620 1124 620 1124 762.5 1124 c 128,-1,6
 905 1124 905 1124 1011.5 1034 c 128,-1,7
 1118 944 1118 944 1118 742 c 2,8,-1
 1118 0 l 1,9,-1
 831 0 l 1,10,-1
 831 682 l 2,11,12
 831 880 831 880 646 880 c 0,13,14
 552 880 552 880 484 825.5 c 128,-1,15
 416 771 416 771 416 664 c 2,16,-1
 416 0 l 1,17,-1
 129 0 l 1,18,-1
 129 1106 l 1,0,-1
979 1533 m 1,19,20
 966 1272 966 1272 785 1272 c 0,21,22
 740 1272 740 1272 673 1297 c 2,23,-1
 527 1351 l 2,24,25
 491 1364 491 1364 465 1364 c 0,26,27
 397 1364 397 1364 382 1271 c 1,28,-1
 254 1271 l 1,29,30
 260 1391 260 1391 311 1458 c 128,-1,31
 362 1525 362 1525 448 1525 c 0,32,33
 488 1525 488 1525 561 1499 c 2,34,-1
 708 1447 l 2,35,36
 745 1434 745 1434 777 1434 c 0,37,38
 839 1434 839 1434 851 1533 c 1,39,-1
 979 1533 l 1,19,20
EndSplineSet
EndChar

StartChar: ograve
Encoding: 242 242 164
Width: 1251
GlyphClass: 2
Flags: W
HStem: -47 231<486.204 755.103> 893 231<483.152 754.713>
VStem: 72 287<327.927 750.265> 879 287<328.089 750.273>
LayerCount: 2
Fore
SplineSet
198 945 m 0,0,1
 347 1124 347 1124 619 1124 c 128,-1,2
 891 1124 891 1124 1040 945 c 0,3,4
 1166 795 1166 795 1166 540 c 128,-1,5
 1166 285 1166 285 1040 132 c 0,6,7
 893 -47 893 -47 618.5 -47 c 128,-1,8
 344 -47 344 -47 198 132 c 0,9,10
 72 285 72 285 72 540 c 128,-1,11
 72 795 72 795 198 945 c 0,0,1
728 865 m 128,-1,13
 675 893 675 893 618.5 893 c 128,-1,14
 562 893 562 893 509.5 865 c 128,-1,15
 457 837 457 837 426 790 c 0,16,17
 359 691 359 691 359 538.5 c 128,-1,18
 359 386 359 386 426 287 c 0,19,20
 457 240 457 240 509.5 212 c 128,-1,21
 562 184 562 184 619 184 c 128,-1,22
 676 184 676 184 728.5 212 c 128,-1,23
 781 240 781 240 812 287 c 0,24,25
 879 387 879 387 879 539 c 128,-1,26
 879 691 879 691 812 790 c 0,27,12
 781 837 781 837 728 865 c 128,-1,13
339 1550 m 1,28,-1
 597 1550 l 1,29,-1
 740 1242 l 1,30,-1
 597 1242 l 1,31,-1
 339 1550 l 1,28,-1
EndSplineSet
EndChar

StartChar: oacute
Encoding: 243 243 165
Width: 1251
GlyphClass: 2
Flags: W
HStem: -47 231<486.204 755.103> 893 231<483.152 754.713>
VStem: 72 287<327.927 750.265> 879 287<328.089 750.273>
LayerCount: 2
Fore
SplineSet
198 945 m 0,0,1
 347 1124 347 1124 619 1124 c 128,-1,2
 891 1124 891 1124 1040 945 c 0,3,4
 1166 795 1166 795 1166 540 c 128,-1,5
 1166 285 1166 285 1040 132 c 0,6,7
 893 -47 893 -47 618.5 -47 c 128,-1,8
 344 -47 344 -47 198 132 c 0,9,10
 72 285 72 285 72 540 c 128,-1,11
 72 795 72 795 198 945 c 0,0,1
728 865 m 128,-1,13
 675 893 675 893 618.5 893 c 128,-1,14
 562 893 562 893 509.5 865 c 128,-1,15
 457 837 457 837 426 790 c 0,16,17
 359 691 359 691 359 538.5 c 128,-1,18
 359 386 359 386 426 287 c 0,19,20
 457 240 457 240 509.5 212 c 128,-1,21
 562 184 562 184 619 184 c 128,-1,22
 676 184 676 184 728.5 212 c 128,-1,23
 781 240 781 240 812 287 c 0,24,25
 879 387 879 387 879 539 c 128,-1,26
 879 691 879 691 812 790 c 0,27,12
 781 837 781 837 728 865 c 128,-1,13
903 1550 m 1,28,-1
 644 1242 l 1,29,-1
 501 1242 l 1,30,-1
 644 1550 l 1,31,-1
 903 1550 l 1,28,-1
EndSplineSet
EndChar

StartChar: ocircumflex
Encoding: 244 244 166
Width: 1251
GlyphClass: 2
Flags: W
HStem: -47 231<486.204 755.103> 893 231<483.152 754.713>
VStem: 72 287<327.927 750.265> 879 287<328.089 750.273>
LayerCount: 2
Fore
SplineSet
198 945 m 0,0,1
 347 1124 347 1124 619 1124 c 128,-1,2
 891 1124 891 1124 1040 945 c 0,3,4
 1166 795 1166 795 1166 540 c 128,-1,5
 1166 285 1166 285 1040 132 c 0,6,7
 893 -47 893 -47 618.5 -47 c 128,-1,8
 344 -47 344 -47 198 132 c 0,9,10
 72 285 72 285 72 540 c 128,-1,11
 72 795 72 795 198 945 c 0,0,1
728 865 m 128,-1,13
 675 893 675 893 618.5 893 c 128,-1,14
 562 893 562 893 509.5 865 c 128,-1,15
 457 837 457 837 426 790 c 0,16,17
 359 691 359 691 359 538.5 c 128,-1,18
 359 386 359 386 426 287 c 0,19,20
 457 240 457 240 509.5 212 c 128,-1,21
 562 184 562 184 619 184 c 128,-1,22
 676 184 676 184 728.5 212 c 128,-1,23
 781 240 781 240 812 287 c 0,24,25
 879 387 879 387 879 539 c 128,-1,26
 879 691 879 691 812 790 c 0,27,12
 781 837 781 837 728 865 c 128,-1,13
513 1550 m 1,28,-1
 734 1550 l 1,29,-1
 944 1242 l 1,30,-1
 785 1242 l 1,31,-1
 618 1447 l 1,32,-1
 450 1242 l 1,33,-1
 293 1242 l 1,34,-1
 513 1550 l 1,28,-1
EndSplineSet
EndChar

StartChar: otilde
Encoding: 245 245 167
Width: 1251
GlyphClass: 2
Flags: W
HStem: -47 231<486.204 755.103> 893 231<483.152 754.713> 1272 162<629.422 846.601> 1364 161<405.634 621.438>
VStem: 72 287<327.927 750.265> 263 128<1271 1353.55> 860 128<1444.3 1533> 879 287<328.089 750.273>
LayerCount: 2
Fore
SplineSet
198 945 m 0,0,1
 347 1124 347 1124 619 1124 c 128,-1,2
 891 1124 891 1124 1040 945 c 0,3,4
 1166 795 1166 795 1166 540 c 128,-1,5
 1166 285 1166 285 1040 132 c 0,6,7
 893 -47 893 -47 618.5 -47 c 128,-1,8
 344 -47 344 -47 198 132 c 0,9,10
 72 285 72 285 72 540 c 128,-1,11
 72 795 72 795 198 945 c 0,0,1
728 865 m 128,-1,13
 675 893 675 893 618.5 893 c 128,-1,14
 562 893 562 893 509.5 865 c 128,-1,15
 457 837 457 837 426 790 c 0,16,17
 359 691 359 691 359 538.5 c 128,-1,18
 359 386 359 386 426 287 c 0,19,20
 457 240 457 240 509.5 212 c 128,-1,21
 562 184 562 184 619 184 c 128,-1,22
 676 184 676 184 728.5 212 c 128,-1,23
 781 240 781 240 812 287 c 0,24,25
 879 387 879 387 879 539 c 128,-1,26
 879 691 879 691 812 790 c 0,27,12
 781 837 781 837 728 865 c 128,-1,13
988 1533 m 1,28,29
 975 1272 975 1272 794 1272 c 0,30,31
 749 1272 749 1272 682 1297 c 2,32,-1
 536 1351 l 2,33,34
 500 1364 500 1364 474 1364 c 0,35,36
 406 1364 406 1364 391 1271 c 1,37,-1
 263 1271 l 1,38,39
 269 1391 269 1391 319.5 1458 c 128,-1,40
 370 1525 370 1525 456 1525 c 0,41,42
 497 1525 497 1525 570 1499 c 2,43,-1
 716 1447 l 2,44,45
 754 1434 754 1434 786 1434 c 0,46,47
 848 1434 848 1434 860 1533 c 1,48,-1
 988 1533 l 1,28,29
EndSplineSet
EndChar

StartChar: odieresis
Encoding: 246 246 168
Width: 1251
GlyphClass: 2
Flags: W
HStem: -47 231<486.204 755.103> 893 231<483.152 754.713> 1271 250<316 541 697 922>
VStem: 72 287<327.927 750.265> 316 225<1271 1521> 697 225<1271 1521> 879 287<328.089 750.273>
LayerCount: 2
Fore
SplineSet
198 945 m 0,0,1
 347 1124 347 1124 619 1124 c 128,-1,2
 891 1124 891 1124 1040 945 c 0,3,4
 1166 795 1166 795 1166 540 c 128,-1,5
 1166 285 1166 285 1040 132 c 0,6,7
 893 -47 893 -47 618.5 -47 c 128,-1,8
 344 -47 344 -47 198 132 c 0,9,10
 72 285 72 285 72 540 c 128,-1,11
 72 795 72 795 198 945 c 0,0,1
728 865 m 128,-1,13
 675 893 675 893 618.5 893 c 128,-1,14
 562 893 562 893 509.5 865 c 128,-1,15
 457 837 457 837 426 790 c 0,16,17
 359 691 359 691 359 538.5 c 128,-1,18
 359 386 359 386 426 287 c 0,19,20
 457 240 457 240 509.5 212 c 128,-1,21
 562 184 562 184 619 184 c 128,-1,22
 676 184 676 184 728.5 212 c 128,-1,23
 781 240 781 240 812 287 c 0,24,25
 879 387 879 387 879 539 c 128,-1,26
 879 691 879 691 812 790 c 0,27,12
 781 837 781 837 728 865 c 128,-1,13
541 1521 m 1,28,-1
 541 1271 l 1,29,-1
 316 1271 l 1,30,-1
 316 1521 l 1,31,-1
 541 1521 l 1,28,-1
922 1521 m 1,32,-1
 922 1271 l 1,33,-1
 697 1271 l 1,34,-1
 697 1521 l 1,35,-1
 922 1521 l 1,32,-1
EndSplineSet
EndChar

StartChar: divide
Encoding: 247 247 169
Width: 1196
GlyphClass: 2
Flags: W
HStem: -23 252<471 725> 352 244<102 1093> 719 252<471 725>
VStem: 471 254<-23 229 719 971>
CounterMasks: 1 e0
LayerCount: 2
Fore
SplineSet
1093 596 m 1,0,-1
 1093 352 l 1,1,-1
 102 352 l 1,2,-1
 102 596 l 1,3,-1
 1093 596 l 1,0,-1
471 971 m 1,4,-1
 725 971 l 1,5,-1
 725 719 l 1,6,-1
 471 719 l 1,7,-1
 471 971 l 1,4,-1
471 229 m 1,8,-1
 725 229 l 1,9,-1
 725 -23 l 1,10,-1
 471 -23 l 1,11,-1
 471 229 l 1,8,-1
EndSplineSet
EndChar

StartChar: oslash
Encoding: 248 248 170
Width: 1251
GlyphClass: 2
Flags: W
HStem: -47 231<496.358 762.387> 894 230<486.036 749.153>
VStem: 74 287<382.108 751.668> 887 287<327.584 685.631>
LayerCount: 2
Fore
SplineSet
259 73 m 1,0,-1
 110 -78 l 1,1,-1
 23 5 l 1,2,-1
 178 162 l 1,3,4
 74 311 74 311 74 551.5 c 128,-1,5
 74 792 74 792 200 945 c 0,6,7
 347 1124 347 1124 624 1124 c 0,8,9
 842 1124 842 1124 997 997 c 1,10,-1
 1138 1140 l 1,11,-1
 1225 1057 l 1,12,-1
 1077 907 l 1,13,14
 1174 757 1174 757 1174 520 c 128,-1,15
 1174 283 1174 283 1047 132 c 0,16,17
 898 -47 898 -47 628 -47 c 0,18,19
 517 -47 517 -47 418.5 -15 c 128,-1,20
 320 17 320 17 259 73 c 1,0,-1
452 270 m 1,21,22
 525 184 525 184 627 184 c 0,23,24
 683 184 683 184 735.5 212 c 128,-1,25
 788 240 788 240 819 287 c 0,26,27
 887 387 887 387 887 532 c 0,28,29
 887 616 887 616 862 688 c 1,30,-1
 452 270 l 1,21,22
803 799 m 1,31,32
 722 894 722 894 621 894 c 0,33,34
 565 894 565 894 512.5 866 c 128,-1,35
 460 838 460 838 428 791 c 0,36,37
 361 691 361 691 361 544 c 0,38,39
 361 449 361 449 390 378 c 1,40,-1
 803 799 l 1,31,32
EndSplineSet
EndChar

StartChar: ugrave
Encoding: 249 249 171
Width: 1251
GlyphClass: 2
Flags: W
HStem: -47 244<459.348 682.965> 1086 20G<119 406 821 1108>
VStem: 119 287<252.595 1106> 821 287<0 132 273.818 1106>
LayerCount: 2
Fore
SplineSet
1108 0 m 1,0,-1
 821 0 l 1,1,-1
 821 132 l 1,2,3
 768 51 768 51 710 13 c 0,4,5
 616 -47 616 -47 474 -47 c 128,-1,6
 332 -47 332 -47 225.5 43 c 128,-1,7
 119 133 119 133 119 336 c 2,8,-1
 119 1106 l 1,9,-1
 406 1106 l 1,10,-1
 406 396 l 2,11,12
 406 197 406 197 590 197 c 0,13,14
 685 197 685 197 753 251.5 c 128,-1,15
 821 306 821 306 821 414 c 2,16,-1
 821 1106 l 1,17,-1
 1108 1106 l 1,18,-1
 1108 0 l 1,0,-1
334 1550 m 1,19,-1
 592 1550 l 1,20,-1
 735 1242 l 1,21,-1
 592 1242 l 1,22,-1
 334 1550 l 1,19,-1
EndSplineSet
EndChar

StartChar: uacute
Encoding: 250 250 172
Width: 1251
GlyphClass: 2
Flags: W
HStem: -47 244<459.348 682.965> 1086 20G<119 406 821 1108>
VStem: 119 287<252.595 1106> 821 287<0 132 273.818 1106>
LayerCount: 2
Fore
SplineSet
1108 0 m 1,0,-1
 821 0 l 1,1,-1
 821 132 l 1,2,3
 768 51 768 51 710 13 c 0,4,5
 616 -47 616 -47 474 -47 c 128,-1,6
 332 -47 332 -47 225.5 43 c 128,-1,7
 119 133 119 133 119 336 c 2,8,-1
 119 1106 l 1,9,-1
 406 1106 l 1,10,-1
 406 396 l 2,11,12
 406 197 406 197 590 197 c 0,13,14
 685 197 685 197 753 251.5 c 128,-1,15
 821 306 821 306 821 414 c 2,16,-1
 821 1106 l 1,17,-1
 1108 1106 l 1,18,-1
 1108 0 l 1,0,-1
898 1550 m 1,19,-1
 639 1242 l 1,20,-1
 496 1242 l 1,21,-1
 639 1550 l 1,22,-1
 898 1550 l 1,19,-1
EndSplineSet
EndChar

StartChar: ucircumflex
Encoding: 251 251 173
Width: 1251
GlyphClass: 2
Flags: W
HStem: -47 244<459.348 682.965> 1086 20G<119 406 821 1108>
VStem: 119 287<252.595 1106> 821 287<0 132 273.818 1106>
LayerCount: 2
Fore
SplineSet
1108 0 m 1,0,-1
 821 0 l 1,1,-1
 821 132 l 1,2,3
 768 51 768 51 710 13 c 0,4,5
 616 -47 616 -47 474 -47 c 128,-1,6
 332 -47 332 -47 225.5 43 c 128,-1,7
 119 133 119 133 119 336 c 2,8,-1
 119 1106 l 1,9,-1
 406 1106 l 1,10,-1
 406 396 l 2,11,12
 406 197 406 197 590 197 c 0,13,14
 685 197 685 197 753 251.5 c 128,-1,15
 821 306 821 306 821 414 c 2,16,-1
 821 1106 l 1,17,-1
 1108 1106 l 1,18,-1
 1108 0 l 1,0,-1
508 1550 m 1,19,-1
 728 1550 l 1,20,-1
 939 1242 l 1,21,-1
 780 1242 l 1,22,-1
 612 1447 l 1,23,-1
 444 1242 l 1,24,-1
 288 1242 l 1,25,-1
 508 1550 l 1,19,-1
EndSplineSet
EndChar

StartChar: udieresis
Encoding: 252 252 174
Width: 1251
GlyphClass: 2
Flags: W
HStem: -47 244<459.348 682.965> 1086 20G<119 406 821 1108> 1271 250<310 535 692 917>
VStem: 119 287<252.595 1106> 310 225<1271 1521> 692 225<1271 1521> 821 287<0 132 273.818 1106>
LayerCount: 2
Fore
SplineSet
1108 0 m 1,0,-1
 821 0 l 1,1,-1
 821 132 l 1,2,3
 768 51 768 51 710 13 c 0,4,5
 616 -47 616 -47 474 -47 c 128,-1,6
 332 -47 332 -47 225.5 43 c 128,-1,7
 119 133 119 133 119 336 c 2,8,-1
 119 1106 l 1,9,-1
 406 1106 l 1,10,-1
 406 396 l 2,11,12
 406 197 406 197 590 197 c 0,13,14
 685 197 685 197 753 251.5 c 128,-1,15
 821 306 821 306 821 414 c 2,16,-1
 821 1106 l 1,17,-1
 1108 1106 l 1,18,-1
 1108 0 l 1,0,-1
535 1521 m 1,19,-1
 535 1271 l 1,20,-1
 310 1271 l 1,21,-1
 310 1521 l 1,22,-1
 535 1521 l 1,19,-1
917 1521 m 1,23,-1
 917 1271 l 1,24,-1
 692 1271 l 1,25,-1
 692 1521 l 1,26,-1
 917 1521 l 1,23,-1
EndSplineSet
EndChar

StartChar: yacute
Encoding: 253 253 175
Width: 1139
GlyphClass: 2
Flags: W
HStem: -449 212<176 370.521> 1086 20G<18 339.079 801.318 1101>
VStem: 18 315<791 1106>
LayerCount: 2
Fore
SplineSet
807 1106 m 1,0,-1
 1101 1106 l 1,1,-1
 646 -201 l 2,2,3
 611 -302 611 -302 578 -346 c 0,4,5
 499 -449 499 -449 278 -449 c 0,6,7
 232 -449 232 -449 176 -440 c 1,8,-1
 176 -224 l 1,9,10
 222 -237 222 -237 251 -237 c 0,11,12
 332 -237 332 -237 381 -184 c 128,-1,13
 430 -131 430 -131 430 -45 c 1,14,-1
 18 1106 l 1,15,-1
 333 1106 l 1,16,-1
 578 300 l 1,17,-1
 807 1106 l 1,0,-1
843 1550 m 1,18,-1
 585 1242 l 1,19,-1
 442 1242 l 1,20,-1
 585 1550 l 1,21,-1
 843 1550 l 1,18,-1
EndSplineSet
EndChar

StartChar: ydieresis
Encoding: 255 255 176
Width: 1139
GlyphClass: 2
Flags: W
HStem: -449 212<176 370.521> 1086 20G<18 339.079 801.318 1101> 1271 250<257 482 638 863>
VStem: 18 315<791 1106> 257 225<1271 1521> 638 225<1271 1521>
LayerCount: 2
Fore
SplineSet
807 1106 m 1,0,-1
 1101 1106 l 1,1,-1
 646 -201 l 2,2,3
 611 -302 611 -302 578 -346 c 0,4,5
 499 -449 499 -449 278 -449 c 0,6,7
 232 -449 232 -449 176 -440 c 1,8,-1
 176 -224 l 1,9,10
 222 -237 222 -237 251 -237 c 0,11,12
 332 -237 332 -237 381 -184 c 128,-1,13
 430 -131 430 -131 430 -45 c 1,14,-1
 18 1106 l 1,15,-1
 333 1106 l 1,16,-1
 578 300 l 1,17,-1
 807 1106 l 1,0,-1
482 1521 m 1,18,-1
 482 1271 l 1,19,-1
 257 1271 l 1,20,-1
 257 1521 l 1,21,-1
 482 1521 l 1,18,-1
863 1521 m 1,22,-1
 863 1271 l 1,23,-1
 638 1271 l 1,24,-1
 638 1521 l 1,25,-1
 863 1521 l 1,22,-1
EndSplineSet
EndChar

StartChar: dotlessi
Encoding: 305 305 177
Width: 569
GlyphClass: 2
Flags: W
HStem: 1086 20G<137 424>
VStem: 137 287<0 1106>
LayerCount: 2
Fore
SplineSet
424 1106 m 1,0,-1
 424 0 l 1,1,-1
 137 0 l 1,2,-1
 137 1106 l 1,3,-1
 424 1106 l 1,0,-1
EndSplineSet
EndChar

StartChar: OE
Encoding: 338 338 178
Width: 2048
GlyphClass: 3
Flags: W
HStem: -47 262<564.701 852.269> 0 256<1278 1986> 643 256<1278 1889> 1237 256<1278 1946> 1256 262<557.172 872.482>
VStem: 57 307<468.822 1002.28> 971 307<302.341 643 899 1168.66>
LayerCount: 2
Fore
SplineSet
1278 643 m 1,0,-1
 1278 256 l 1,1,-1
 1986 256 l 1,2,-1
 1986 0 l 1,3,-1
 982 0 l 1,4,-1
 982 121 l 1,5,6
 928 50 928 50 881 16 c 0,7,8
 792 -47 792 -47 665 -47 c 0,9,10
 458 -47 458 -47 305 91 c 0,11,12
 57 314 57 314 57 734.5 c 128,-1,13
 57 1155 57 1155 305 1380 c 0,14,15
 457 1518 457 1518 673 1518 c 0,16,17
 772 1518 772 1518 843 1488 c 128,-1,18
 914 1458 914 1458 982 1387 c 1,19,-1
 982 1493 l 1,20,-1
 1946 1493 l 1,21,-1
 1946 1237 l 1,22,-1
 1278 1237 l 1,23,-1
 1278 899 l 1,24,-1
 1889 899 l 1,25,-1
 1889 643 l 1,26,-1
 1278 643 l 1,0,-1
971 1107 m 1,27,28
 887 1256 887 1256 716.5 1256 c 128,-1,29
 546 1256 546 1256 455 1101 c 128,-1,30
 364 946 364 946 364 735.5 c 128,-1,31
 364 525 364 525 453 374 c 0,32,33
 497 298 497 298 569 256.5 c 128,-1,34
 641 215 641 215 728 215 c 0,35,36
 886 215 886 215 971 364 c 1,37,-1
 971 1107 l 1,27,28
EndSplineSet
EndChar

StartChar: oe
Encoding: 339 339 179
Width: 1933
GlyphClass: 3
Flags: W
HStem: -47 231<460.61 730.129 1217.66 1531.35> 463 190<1144 1585> 892 232<457.553 728.283 1221.25 1490.41>
VStem: 47 287<327.694 748.806> 854 287<328.938 463 653 750.012>
LayerCount: 2
Fore
SplineSet
1141 463 m 1,0,1
 1148 172 1148 172 1374 172 c 0,2,3
 1449 172 1449 172 1509 211 c 128,-1,4
 1569 250 1569 250 1588 312 c 1,5,-1
 1871 312 l 1,6,7
 1832 177 1832 177 1730 87 c 0,8,9
 1579 -47 1579 -47 1355 -47 c 128,-1,10
 1131 -47 1131 -47 992 107 c 1,11,12
 838 -47 838 -47 578.5 -47 c 128,-1,13
 319 -47 319 -47 173 132 c 0,14,15
 47 285 47 285 47 538.5 c 128,-1,16
 47 792 47 792 173 945 c 0,17,18
 319 1124 319 1124 581 1124 c 128,-1,19
 843 1124 843 1124 993 970 c 1,20,21
 1126 1124 1126 1124 1355 1124 c 128,-1,22
 1584 1124 1584 1124 1734 976 c 128,-1,23
 1884 828 1884 828 1884 513 c 0,24,25
 1884 493 1884 493 1883 463 c 1,26,-1
 1141 463 l 1,0,1
703.5 864 m 128,-1,28
 651 892 651 892 593.5 892 c 128,-1,29
 536 892 536 892 484 864 c 128,-1,30
 432 836 432 836 401 789 c 0,31,32
 334 690 334 690 334 538 c 128,-1,33
 334 386 334 386 401 287 c 0,34,35
 432 240 432 240 484.5 212 c 128,-1,36
 537 184 537 184 594 184 c 128,-1,37
 651 184 651 184 703.5 212 c 128,-1,38
 756 240 756 240 787 287 c 0,39,40
 854 386 854 386 854 538 c 128,-1,41
 854 690 854 690 787 789 c 0,42,27
 756 836 756 836 703.5 864 c 128,-1,28
1585 653 m 1,43,44
 1574 760 1574 760 1542 808 c 1,45,46
 1443 893 1443 893 1363 905 c 1,47,48
 1305 905 1305 905 1255.5 875 c 128,-1,49
 1206 845 1206 845 1180 794.5 c 128,-1,50
 1154 744 1154 744 1144 653 c 1,51,-1
 1585 653 l 1,43,44
EndSplineSet
EndChar

StartChar: Ydieresis
Encoding: 376 376 180
Width: 1366
GlyphClass: 2
Flags: W
HStem: 1473 20G<55 406.287 978.381 1330> 1638 250<397 622 778 1003>
VStem: 397 225<1638 1888> 551 307<0 553> 778 225<1638 1888>
LayerCount: 2
Fore
SplineSet
858 553 m 1,0,-1
 858 0 l 1,1,-1
 551 0 l 1,2,-1
 551 553 l 1,3,-1
 55 1493 l 1,4,-1
 397 1493 l 1,5,-1
 703 834 l 1,6,-1
 987 1493 l 1,7,-1
 1330 1493 l 1,8,-1
 858 553 l 1,0,-1
622 1888 m 1,9,-1
 622 1638 l 1,10,-1
 397 1638 l 1,11,-1
 397 1888 l 1,12,-1
 622 1888 l 1,9,-1
1003 1888 m 1,13,-1
 1003 1638 l 1,14,-1
 778 1638 l 1,15,-1
 778 1888 l 1,16,-1
 1003 1888 l 1,13,-1
EndSplineSet
EndChar

StartChar: florin
Encoding: 402 402 181
Width: 1139
GlyphClass: 2
Flags: W
HStem: -451 238<84.8464 289.951> 784 199<214 465 772 1025> 1287 237<853.146 1060.5>
LayerCount: 2
Fore
SplineSet
1025 983 m 1,0,-1
 1025 784 l 1,1,-1
 744 784 l 1,2,-1
 623 1 l 2,3,4
 585 -250 585 -250 487 -350.5 c 128,-1,5
 389 -451 389 -451 227 -451 c 0,6,7
 138 -451 138 -451 43 -405 c 1,8,-1
 92 -170 l 1,9,10
 163 -213 163 -213 213.5 -213 c 128,-1,11
 264 -213 264 -213 293.5 -163 c 128,-1,12
 323 -113 323 -113 343 14 c 2,13,-1
 465 784 l 1,14,-1
 214 784 l 1,15,-1
 214 983 l 1,16,-1
 497 983 l 1,17,-1
 518 1105 l 2,18,19
 555 1322 555 1322 646.5 1423 c 128,-1,20
 738 1524 738 1524 899 1524 c 0,21,22
 983 1524 983 1524 1096 1488 c 1,23,-1
 1055 1253 l 1,24,25
 984 1287 984 1287 942 1287 c 0,26,27
 823 1287 823 1287 787 1068 c 2,28,-1
 772 983 l 1,29,-1
 1025 983 l 1,0,-1
EndSplineSet
EndChar

StartChar: circumflex
Encoding: 710 710 182
Width: 682
GlyphClass: 2
Flags: W
HStem: 1242 308
VStem: 16 651
LayerCount: 2
Fore
SplineSet
236 1550 m 1,0,-1
 456 1550 l 1,1,-1
 667 1242 l 1,2,-1
 508 1242 l 1,3,-1
 340 1447 l 1,4,-1
 172 1242 l 1,5,-1
 16 1242 l 1,6,-1
 236 1550 l 1,0,-1
EndSplineSet
EndChar

StartChar: caron
Encoding: 711 711 183
Width: 682
GlyphClass: 2
Flags: W
HStem: 1242 308
VStem: 18 651
LayerCount: 2
Fore
SplineSet
449 1242 m 1,0,-1
 229 1242 l 1,1,-1
 18 1550 l 1,2,-1
 177 1550 l 1,3,-1
 345 1351 l 1,4,-1
 513 1550 l 1,5,-1
 669 1550 l 1,6,-1
 449 1242 l 1,0,-1
EndSplineSet
EndChar

StartChar: breve
Encoding: 728 728 184
Width: 682
GlyphClass: 2
Flags: W
HStem: 1238 157<225.69 453.739>
VStem: 72 114<1434.04 1531>
LayerCount: 2
Fore
SplineSet
612 1531 m 1,0,1
 613 1515 613 1515 613 1510 c 0,2,3
 613 1393 613 1393 535.5 1315.5 c 128,-1,4
 458 1238 458 1238 341 1238 c 128,-1,5
 224 1238 224 1238 148 1318 c 128,-1,6
 72 1398 72 1398 72 1511 c 2,7,-1
 72 1531 l 1,8,-1
 186 1531 l 1,9,10
 206 1395 206 1395 344 1395 c 0,11,12
 412 1395 412 1395 448.5 1427 c 128,-1,13
 485 1459 485 1459 498 1531 c 1,14,-1
 612 1531 l 1,0,1
EndSplineSet
EndChar

StartChar: dotaccent
Encoding: 729 729 185
Width: 682
GlyphClass: 2
Flags: W
HStem: 1271 250<229 454>
VStem: 229 225<1271 1521>
LayerCount: 2
Fore
SplineSet
454 1521 m 1,0,-1
 454 1271 l 1,1,-1
 229 1271 l 1,2,-1
 229 1521 l 1,3,-1
 454 1521 l 1,0,-1
EndSplineSet
EndChar

StartChar: ring
Encoding: 730 730 186
Width: 682
GlyphClass: 2
Flags: W
HStem: 1208 98<275.137 409.949> 1479 98<275.302 411.33>
VStem: 158 98<1324.99 1460.7> 429 98<1324.45 1460.53>
LayerCount: 2
Fore
SplineSet
212 1523.5 m 128,-1,1
 266 1577 266 1577 343.5 1577 c 128,-1,2
 421 1577 421 1577 474 1522 c 128,-1,3
 527 1467 527 1467 527 1391 c 128,-1,4
 527 1315 527 1315 472.5 1261.5 c 128,-1,5
 418 1208 418 1208 342 1208 c 128,-1,6
 266 1208 266 1208 212 1262 c 128,-1,7
 158 1316 158 1316 158 1393 c 128,-1,0
 158 1470 158 1470 212 1523.5 c 128,-1,1
344 1479 m 128,-1,9
 308 1479 308 1479 282 1454 c 128,-1,10
 256 1429 256 1429 256 1393 c 128,-1,11
 256 1357 256 1357 282 1331.5 c 128,-1,12
 308 1306 308 1306 343.5 1306 c 128,-1,13
 379 1306 379 1306 404 1331.5 c 128,-1,14
 429 1357 429 1357 429 1393 c 128,-1,15
 429 1429 429 1429 404.5 1454 c 128,-1,8
 380 1479 380 1479 344 1479 c 128,-1,9
EndSplineSet
EndChar

StartChar: ogonek
Encoding: 731 731 187
Width: 682
GlyphClass: 2
Flags: W
HStem: -478 104<296.092 546.859> -458 95<454 549>
VStem: 92 185<-350.559 -147.2>
LayerCount: 2
Fore
SplineSet
277 -271 m 0,0,1
 277 -374 277 -374 432 -374 c 0,2,3
 493 -374 493 -374 549 -363 c 1,4,-1
 549 -458 l 1,5,6
 468 -478 468 -478 386.5 -478 c 128,-1,7
 305 -478 305 -478 230 -453 c 0,8,9
 92 -407 92 -407 92 -283 c 0,10,11
 92 -193 92 -193 159.5 -118 c 128,-1,12
 227 -43 227 -43 347 0 c 1,13,-1
 500 0 l 1,14,15
 366 -83 366 -83 321.5 -140.5 c 128,-1,16
 277 -198 277 -198 277 -271 c 0,0,1
EndSplineSet
EndChar

StartChar: tilde
Encoding: 732 732 188
Width: 682
GlyphClass: 2
Flags: W
HStem: 1272 162<348.102 564.982> 1364 161<124.634 339.008>
VStem: -18 128<1271 1353.55> 579 128<1444.3 1533>
LayerCount: 2
Fore
SplineSet
707 1533 m 1,0,1
 692 1272 692 1272 512 1272 c 0,2,3
 468 1272 468 1272 400 1297 c 2,4,-1
 255 1351 l 2,5,6
 219 1364 219 1364 193 1364 c 0,7,8
 125 1364 125 1364 110 1271 c 1,9,-1
 -18 1271 l 1,10,11
 -12 1391 -12 1391 38.5 1458 c 128,-1,12
 89 1525 89 1525 175 1525 c 0,13,14
 216 1525 216 1525 289 1499 c 2,15,-1
 435 1447 l 2,16,17
 473 1434 473 1434 505 1434 c 0,18,19
 567 1434 567 1434 579 1533 c 1,20,-1
 707 1533 l 1,0,1
EndSplineSet
EndChar

StartChar: hungarumlaut
Encoding: 733 733 189
Width: 682
GlyphClass: 2
Flags: W
HStem: 1249 301
LayerCount: 2
Fore
SplineSet
311 1550 m 1,0,-1
 53 1249 l 1,1,-1
 -90 1249 l 1,2,-1
 53 1550 l 1,3,-1
 311 1550 l 1,0,-1
696 1550 m 1,4,-1
 438 1249 l 1,5,-1
 295 1249 l 1,6,-1
 438 1550 l 1,7,-1
 696 1550 l 1,4,-1
EndSplineSet
EndChar

StartChar: uni0394
Encoding: 916 916 190
Width: 1473
GlyphClass: 2
Flags: W
HStem: 0 256<410 1062> 1473 20G<530.873 941.127>
LayerCount: 2
Fore
SplineSet
6 0 m 1,0,-1
 538 1493 l 1,1,-1
 934 1493 l 1,2,-1
 1466 0 l 1,3,-1
 6 0 l 1,0,-1
410 256 m 1,4,-1
 1062 256 l 1,5,-1
 736 1199 l 1,6,-1
 410 256 l 1,4,-1
EndSplineSet
EndChar

StartChar: Pi
Encoding: 928 928 191
Width: 1479
GlyphClass: 2
Flags: W
HStem: 1237 256<443 1032>
VStem: 136 307<0 1237> 1032 310<0 1237>
LayerCount: 2
Fore
SplineSet
136 0 m 1,0,-1
 136 1493 l 1,1,-1
 1342 1493 l 1,2,-1
 1342 0 l 1,3,-1
 1032 0 l 1,4,-1
 1032 1237 l 1,5,-1
 443 1237 l 1,6,-1
 443 0 l 1,7,-1
 136 0 l 1,0,-1
EndSplineSet
EndChar

StartChar: uni03A9
Encoding: 937 937 192
Width: 1642
GlyphClass: 2
Flags: W
HStem: 0 256<77 412 1231 1566> 1289 229<640.589 1003.39>
VStem: 106 310<551.163 1044.79> 1228 309<551.702 1045.5>
LayerCount: 2
Fore
SplineSet
717 256 m 1,0,-1
 717 0 l 1,1,-1
 77 0 l 1,2,-1
 77 256 l 1,3,-1
 412 256 l 1,4,5
 296 329 296 329 237 401 c 0,6,7
 106 561 106 561 106 812 c 0,8,9
 106 1106 106 1106 303.5 1312 c 128,-1,10
 501 1518 501 1518 822 1518 c 128,-1,11
 1143 1518 1143 1518 1340 1312 c 128,-1,12
 1537 1106 1537 1106 1537 812 c 0,13,14
 1537 561 1537 561 1406 401 c 0,15,16
 1347 328 1347 328 1231 256 c 1,17,-1
 1566 256 l 1,18,-1
 1566 0 l 1,19,-1
 927 0 l 1,20,-1
 927 256 l 1,21,22
 1067 345 1067 345 1119 414 c 0,23,24
 1228 557 1228 557 1228 793 c 128,-1,25
 1228 1029 1228 1029 1113 1159 c 128,-1,26
 998 1289 998 1289 822 1289 c 128,-1,27
 646 1289 646 1289 531 1159 c 128,-1,28
 416 1029 416 1029 416 783 c 128,-1,29
 416 537 416 537 543 392 c 0,30,31
 593 335 593 335 717 256 c 1,0,-1
EndSplineSet
EndChar

StartChar: pi
Encoding: 960 960 193
Width: 1569
GlyphClass: 2
Flags: W
HStem: 877 229<143 293 580 989 1276 1426>
VStem: 293 287<0 877> 989 287<0 877>
LayerCount: 2
Fore
SplineSet
1426 1106 m 1,0,-1
 1426 877 l 1,1,-1
 1276 877 l 1,2,-1
 1276 0 l 1,3,-1
 989 0 l 1,4,-1
 989 877 l 1,5,-1
 580 877 l 1,6,-1
 580 0 l 1,7,-1
 293 0 l 1,8,-1
 293 877 l 1,9,-1
 143 877 l 1,10,-1
 143 1106 l 1,11,-1
 1426 1106 l 1,0,-1
EndSplineSet
EndChar

StartChar: endash
Encoding: 8211 8211 194
Width: 1139
GlyphClass: 2
Flags: W
HStem: 424 213<-18 1141>
LayerCount: 2
Fore
SplineSet
1141 637 m 1,0,-1
 1141 424 l 1,1,-1
 -18 424 l 1,2,-1
 -18 637 l 1,3,-1
 1141 637 l 1,0,-1
EndSplineSet
EndChar

StartChar: emdash
Encoding: 8212 8212 195
Width: 2048
GlyphClass: 2
Flags: W
HStem: 424 213<-14 2054>
LayerCount: 2
Fore
SplineSet
2054 637 m 1,0,-1
 2054 424 l 1,1,-1
 -14 424 l 1,2,-1
 -14 637 l 1,3,-1
 2054 637 l 1,0,-1
EndSplineSet
EndChar

StartChar: quoteleft
Encoding: 8216 8216 196
Width: 569
GlyphClass: 2
Flags: W
HStem: 961 256<249 413> 1399 94<306.816 413>
VStem: 137 276<961 1215.84> 137 112<1217 1343.66>
LayerCount: 2
Fore
SplineSet
413 961 m 1,0,-1
 137 961 l 1,1,-1
 137 1184 l 2,2,3
 137 1272 137 1272 158.5 1327 c 128,-1,4
 180 1382 180 1382 229 1423 c 0,5,6
 305 1487 305 1487 413 1493 c 1,7,-1
 413 1399 l 1,8,9
 249 1369 249 1369 249 1227 c 0,10,11
 249 1222 249 1222 249 1217 c 1,12,-1
 413 1217 l 1,13,-1
 413 961 l 1,0,-1
EndSplineSet
EndChar

StartChar: quoteright
Encoding: 8217 8217 197
Width: 569
GlyphClass: 2
Flags: W
HStem: 961 94<135 242.104> 1237 256<135 299>
VStem: 135 276<1238.16 1493> 299 112<1109.87 1237>
LayerCount: 2
Fore
SplineSet
135 1493 m 1,0,-1
 411 1493 l 1,1,-1
 411 1270 l 2,2,3
 411 1182 411 1182 389.5 1127 c 128,-1,4
 368 1072 368 1072 305.5 1019.5 c 128,-1,5
 243 967 243 967 135 961 c 1,6,-1
 135 1055 l 1,7,8
 299 1084 299 1084 299 1227 c 0,9,10
 299 1232 299 1232 299 1237 c 1,11,-1
 135 1237 l 1,12,-1
 135 1493 l 1,0,-1
EndSplineSet
EndChar

StartChar: quotesinglbase
Encoding: 8218 8218 198
Width: 569
GlyphClass: 2
Flags: W
HStem: -276 94<135 242.104> 0 256<135 299>
VStem: 135 276<1.16016 256> 299 112<-127.126 0>
LayerCount: 2
Fore
SplineSet
135 256 m 1,0,-1
 411 256 l 1,1,-1
 411 33 l 2,2,3
 411 -55 411 -55 389.5 -110 c 128,-1,4
 368 -165 368 -165 305.5 -217.5 c 128,-1,5
 243 -270 243 -270 135 -276 c 1,6,-1
 135 -182 l 1,7,8
 299 -153 299 -153 299 -10 c 0,9,10
 299 -5 299 -5 299 0 c 1,11,-1
 135 0 l 1,12,-1
 135 256 l 1,0,-1
EndSplineSet
EndChar

StartChar: quotedblleft
Encoding: 8220 8220 199
Width: 1024
GlyphClass: 2
Flags: W
HStem: 961 256<257 421 722 886> 1399 94<314.816 421 779.816 886>
VStem: 145 276<961 1215.84> 145 112<1217 1343.66> 610 276<961 1215.84> 610 112<1217 1343.66>
LayerCount: 2
Fore
SplineSet
421 961 m 1,0,-1
 145 961 l 1,1,-1
 145 1184 l 2,2,3
 145 1272 145 1272 166.5 1327 c 128,-1,4
 188 1382 188 1382 237 1423 c 0,5,6
 313 1487 313 1487 421 1493 c 1,7,-1
 421 1399 l 1,8,9
 257 1369 257 1369 257 1227 c 0,10,11
 257 1222 257 1222 257 1217 c 1,12,-1
 421 1217 l 1,13,-1
 421 961 l 1,0,-1
886 961 m 1,14,-1
 610 961 l 1,15,-1
 610 1184 l 2,16,17
 610 1272 610 1272 631.5 1327 c 128,-1,18
 653 1382 653 1382 702 1423 c 0,19,20
 778 1487 778 1487 886 1493 c 1,21,-1
 886 1399 l 1,22,23
 722 1369 722 1369 722 1227 c 0,24,25
 722 1222 722 1222 722 1217 c 1,26,-1
 886 1217 l 1,27,-1
 886 961 l 1,14,-1
EndSplineSet
EndChar

StartChar: quotedblright
Encoding: 8221 8221 200
Width: 1024
GlyphClass: 2
Flags: W
HStem: 961 94<150 257.104 626 732.184> 1237 256<150 314 626 790>
VStem: 150 276<1238.16 1493> 314 112<1109.87 1237> 626 276<1238.16 1493> 790 112<1110.34 1237>
LayerCount: 2
Fore
SplineSet
150 1493 m 1,0,-1
 426 1493 l 1,1,-1
 426 1270 l 2,2,3
 426 1182 426 1182 404.5 1127 c 128,-1,4
 383 1072 383 1072 320.5 1019.5 c 128,-1,5
 258 967 258 967 150 961 c 1,6,-1
 150 1055 l 1,7,8
 314 1084 314 1084 314 1227 c 0,9,10
 314 1232 314 1232 314 1237 c 1,11,-1
 150 1237 l 1,12,-1
 150 1493 l 1,0,-1
626 1493 m 1,13,-1
 902 1493 l 1,14,-1
 902 1270 l 2,15,16
 902 1182 902 1182 880.5 1127 c 128,-1,17
 859 1072 859 1072 796.5 1019.5 c 128,-1,18
 734 967 734 967 626 961 c 1,19,-1
 626 1055 l 1,20,21
 790 1085 790 1085 790 1227 c 0,22,23
 790 1232 790 1232 790 1237 c 1,24,-1
 626 1237 l 1,25,-1
 626 1493 l 1,13,-1
EndSplineSet
EndChar

StartChar: quotedblbase
Encoding: 8222 8222 201
Width: 1024
GlyphClass: 2
Flags: W
HStem: -276 94<147 254.104 608 714.184> 0 256<147 311 608 772>
VStem: 147 276<1.16016 256> 311 112<-127.126 0> 608 276<1.16016 256> 772 112<-126.66 0>
LayerCount: 2
Fore
SplineSet
147 256 m 1,0,-1
 423 256 l 1,1,-1
 423 33 l 2,2,3
 423 -55 423 -55 401.5 -110 c 128,-1,4
 380 -165 380 -165 317.5 -217.5 c 128,-1,5
 255 -270 255 -270 147 -276 c 1,6,-1
 147 -182 l 1,7,8
 311 -153 311 -153 311 -10 c 0,9,10
 311 -5 311 -5 311 0 c 1,11,-1
 147 0 l 1,12,-1
 147 256 l 1,0,-1
608 256 m 1,13,-1
 884 256 l 1,14,-1
 884 33 l 2,15,16
 884 -55 884 -55 862.5 -110 c 128,-1,17
 841 -165 841 -165 778.5 -217.5 c 128,-1,18
 716 -270 716 -270 608 -276 c 1,19,-1
 608 -182 l 1,20,21
 772 -152 772 -152 772 -10 c 0,22,23
 772 -5 772 -5 772 0 c 1,24,-1
 608 0 l 1,25,-1
 608 256 l 1,13,-1
EndSplineSet
EndChar

StartChar: dagger
Encoding: 8224 8224 202
Width: 1139
GlyphClass: 2
Flags: W
HStem: 755 238<63 430 704 1071> 1432 20G<430 704>
VStem: 430 274<-397 755 993 1452>
LayerCount: 2
Fore
SplineSet
1071 993 m 1,0,-1
 1071 755 l 1,1,-1
 704 755 l 1,2,-1
 704 -397 l 1,3,-1
 430 -397 l 1,4,-1
 430 755 l 1,5,-1
 63 755 l 1,6,-1
 63 993 l 1,7,-1
 430 993 l 1,8,-1
 430 1452 l 1,9,-1
 704 1452 l 1,10,-1
 704 993 l 1,11,-1
 1071 993 l 1,0,-1
EndSplineSet
EndChar

StartChar: daggerdbl
Encoding: 8225 8225 203
Width: 1139
GlyphClass: 2
Flags: W
HStem: 61 238<57 424 698 1065> 755 238<57 424 698 1065> 1432 20G<424 698>
VStem: 424 274<-397 61 299 755 993 1452>
LayerCount: 2
Fore
SplineSet
1065 993 m 1,0,-1
 1065 755 l 1,1,-1
 698 755 l 1,2,-1
 698 299 l 1,3,-1
 1065 299 l 1,4,-1
 1065 61 l 1,5,-1
 698 61 l 1,6,-1
 698 -397 l 1,7,-1
 424 -397 l 1,8,-1
 424 61 l 1,9,-1
 57 61 l 1,10,-1
 57 299 l 1,11,-1
 424 299 l 1,12,-1
 424 755 l 1,13,-1
 57 755 l 1,14,-1
 57 993 l 1,15,-1
 424 993 l 1,16,-1
 424 1452 l 1,17,-1
 698 1452 l 1,18,-1
 698 993 l 1,19,-1
 1065 993 l 1,0,-1
EndSplineSet
EndChar

StartChar: bullet
Encoding: 8226 8226 204
Width: 717
GlyphClass: 2
Flags: W
HStem: 358 512<215.218 502.141>
VStem: 102 512<469.914 758.82>
LayerCount: 2
Fore
SplineSet
177 433 m 128,-1,1
 102 508 102 508 102 615 c 128,-1,2
 102 722 102 722 178 796 c 128,-1,3
 254 870 254 870 359 870 c 128,-1,4
 464 870 464 870 539 795.5 c 128,-1,5
 614 721 614 721 614 614.5 c 128,-1,6
 614 508 614 508 539 433 c 128,-1,7
 464 358 464 358 358 358 c 128,-1,0
 252 358 252 358 177 433 c 128,-1,1
EndSplineSet
EndChar

StartChar: ellipsis
Encoding: 8230 8230 205
Width: 2048
GlyphClass: 2
Flags: W
HStem: 0 299<188 495 870 1177 1552 1859>
VStem: 188 307<0 299> 870 307<0 299> 1552 307<0 299>
CounterMasks: 1 70
LayerCount: 2
Fore
SplineSet
495 299 m 1,0,-1
 495 0 l 1,1,-1
 188 0 l 1,2,-1
 188 299 l 1,3,-1
 495 299 l 1,0,-1
1177 299 m 1,4,-1
 1177 0 l 1,5,-1
 870 0 l 1,6,-1
 870 299 l 1,7,-1
 1177 299 l 1,4,-1
1859 299 m 1,8,-1
 1859 0 l 1,9,-1
 1552 0 l 1,10,-1
 1552 299 l 1,11,-1
 1859 299 l 1,8,-1
EndSplineSet
EndChar

StartChar: perthousand
Encoding: 8240 8240 206
Width: 2048
GlyphClass: 2
Flags: W
HStem: -46 158<863.942 1068.06 1619.64 1824.06> 398 163<864.725 1068.18 1620.43 1824.47> 907 158<226.685 431.057> 1350 163<227.431 431.473>
VStem: 23 162<1106.44 1309.25> 473 162<1106.03 1308.24> 660 162<153.438 356.533> 1110 162<155.074 356.161> 1416 162<153.513 355.176> 1866 162<153.105 356.161>
LayerCount: 2
Fore
SplineSet
329 907 m 128,-1,1
 202 907 202 907 112.5 996 c 128,-1,2
 23 1085 23 1085 23 1211.5 c 128,-1,3
 23 1338 23 1338 113.5 1425.5 c 128,-1,4
 204 1513 204 1513 330 1513 c 128,-1,5
 456 1513 456 1513 545.5 1424.5 c 128,-1,6
 635 1336 635 1336 635 1210.5 c 128,-1,7
 635 1085 635 1085 545.5 996 c 128,-1,0
 456 907 456 907 329 907 c 128,-1,1
329 1350 m 128,-1,9
 269 1350 269 1350 227 1308.5 c 128,-1,10
 185 1267 185 1267 185 1208 c 128,-1,11
 185 1149 185 1149 227 1107 c 128,-1,12
 269 1065 269 1065 328.5 1065 c 128,-1,13
 388 1065 388 1065 430.5 1106.5 c 128,-1,14
 473 1148 473 1148 473 1207 c 128,-1,15
 473 1266 473 1266 431 1308 c 128,-1,8
 389 1350 389 1350 329 1350 c 128,-1,9
1017 1512 m 1,16,-1
 1153 1512 l 1,17,-1
 291 -44 l 1,18,-1
 155 -44 l 1,19,-1
 1017 1512 l 1,16,-1
966 -46 m 128,-1,21
 839 -46 839 -46 749.5 43 c 128,-1,22
 660 132 660 132 660 258.5 c 128,-1,23
 660 385 660 385 751 473 c 128,-1,24
 842 561 842 561 967 561 c 128,-1,25
 1092 561 1092 561 1182 472.5 c 128,-1,26
 1272 384 1272 384 1272 258 c 128,-1,27
 1272 132 1272 132 1182.5 43 c 128,-1,20
 1093 -46 1093 -46 966 -46 c 128,-1,21
966 398 m 128,-1,29
 906 398 906 398 864 356 c 128,-1,30
 822 314 822 314 822 255 c 128,-1,31
 822 196 822 196 864.5 154 c 128,-1,32
 907 112 907 112 966 112 c 128,-1,33
 1025 112 1025 112 1067.5 154 c 128,-1,34
 1110 196 1110 196 1110 255 c 128,-1,35
 1110 314 1110 314 1068 356 c 128,-1,28
 1026 398 1026 398 966 398 c 128,-1,29
1505 43 m 0,36,37
 1416 132 1416 132 1416 259 c 128,-1,38
 1416 386 1416 386 1506.5 473.5 c 128,-1,39
 1597 561 1597 561 1723 561 c 128,-1,40
 1849 561 1849 561 1938.5 472.5 c 128,-1,41
 2028 384 2028 384 2028 258 c 128,-1,42
 2028 132 2028 132 1938.5 43 c 128,-1,43
 1849 -46 1849 -46 1722 -46 c 128,-1,44
 1595 -46 1595 -46 1505 43 c 0,36,37
1722 398 m 128,-1,46
 1662 398 1662 398 1620 356 c 128,-1,47
 1578 314 1578 314 1578 255 c 128,-1,48
 1578 196 1578 196 1620 154 c 128,-1,49
 1662 112 1662 112 1721.5 112 c 128,-1,50
 1781 112 1781 112 1823.5 153.5 c 128,-1,51
 1866 195 1866 195 1866 254.5 c 128,-1,52
 1866 314 1866 314 1824 356 c 128,-1,45
 1782 398 1782 398 1722 398 c 128,-1,46
EndSplineSet
EndChar

StartChar: guilsinglleft
Encoding: 8249 8249 207
Width: 682
GlyphClass: 2
Flags: W
VStem: 170 342
LayerCount: 2
Fore
SplineSet
170 447 m 1,0,-1
 170 680 l 1,1,-1
 512 985 l 1,2,-1
 512 745 l 1,3,-1
 305 563 l 1,4,-1
 512 381 l 1,5,-1
 512 147 l 1,6,-1
 170 447 l 1,0,-1
EndSplineSet
EndChar

StartChar: guilsinglright
Encoding: 8250 8250 208
Width: 682
GlyphClass: 2
Flags: W
VStem: 164 342
LayerCount: 2
Fore
SplineSet
506 685 m 1,0,-1
 506 452 l 1,1,-1
 164 147 l 1,2,-1
 164 387 l 1,3,-1
 371 569 l 1,4,-1
 164 751 l 1,5,-1
 164 985 l 1,6,-1
 506 685 l 1,0,-1
EndSplineSet
EndChar

StartChar: fraction
Encoding: 8260 8260 209
Width: 569
GlyphClass: 2
Flags: W
HStem: 1444 20G<613.492 803>
LayerCount: 2
Fore
SplineSet
625 1464 m 1,0,-1
 803 1464 l 1,1,-1
 -63 -41 l 1,2,-1
 -241 -41 l 1,3,-1
 625 1464 l 1,0,-1
EndSplineSet
EndChar

StartChar: Euro
Encoding: 8364 8364 210
Width: 1139
GlyphClass: 2
Flags: W
HStem: -48 269<596.537 903.807> 512 138<63 144 455 826> 792 138<63 144 460 925> 1079 21G<979 1035.05> 1217 266<595.373 891.358>
VStem: 142 287<650 792>
LayerCount: 2
Fore
SplineSet
144 650 m 1,0,1
 142 689 142 689 142 723.5 c 128,-1,2
 142 758 142 758 144 792 c 1,3,-1
 13 792 l 1,4,-1
 63 930 l 1,5,-1
 162 930 l 1,6,7
 201 1109 201 1109 297 1249 c 0,8,9
 457 1483 457 1483 748 1483 c 0,10,11
 879 1483 879 1483 955 1446 c 128,-1,12
 1031 1409 1031 1409 1121 1343 c 1,13,-1
 1028 1079 l 1,14,15
 930 1156 930 1156 864.5 1186.5 c 128,-1,16
 799 1217 799 1217 729 1217 c 0,17,18
 536 1217 536 1217 460 930 c 1,19,-1
 975 930 l 1,20,-1
 925 792 l 1,21,-1
 433 792 l 1,22,23
 429 747 429 747 429 712.5 c 128,-1,24
 429 678 429 678 431 650 c 1,25,-1
 875 650 l 1,26,-1
 826 512 l 1,27,-1
 455 512 l 1,28,29
 486 400 486 400 552 310.5 c 128,-1,30
 618 221 618 221 730 221 c 0,31,32
 791 221 791 221 850 242 c 128,-1,33
 909 263 909 263 1028 327 c 1,34,-1
 1028 23 l 1,35,36
 819 -48 819 -48 717 -48 c 0,37,38
 541 -48 541 -48 380.5 82 c 128,-1,39
 220 212 220 212 162 512 c 1,40,-1
 13 512 l 1,41,-1
 63 650 l 1,42,-1
 144 650 l 1,0,1
EndSplineSet
EndChar

StartChar: trademark
Encoding: 8482 8482 211
Width: 2048
GlyphClass: 2
Flags: W
HStem: 1333 160<145 426 621 893>
VStem: 426 195<560 1333> 994 186<560 1275> 1716 186<560 1275>
LayerCount: 2
Fore
SplineSet
621 1333 m 1,0,-1
 621 560 l 1,1,-1
 426 560 l 1,2,-1
 426 1333 l 1,3,-1
 145 1333 l 1,4,-1
 145 1493 l 1,5,-1
 893 1493 l 1,6,-1
 893 1333 l 1,7,-1
 621 1333 l 1,0,-1
1546 560 m 1,8,-1
 1353 561 l 1,9,-1
 1180 1275 l 1,10,-1
 1180 560 l 1,11,-1
 994 560 l 1,12,-1
 994 1493 l 1,13,-1
 1275 1493 l 1,14,-1
 1450 776 l 1,15,-1
 1622 1493 l 1,16,-1
 1902 1493 l 1,17,-1
 1902 560 l 1,18,-1
 1716 560 l 1,19,-1
 1716 1275 l 1,20,-1
 1546 560 l 1,8,-1
EndSplineSet
EndChar

StartChar: partialdiff
Encoding: 8706 8706 212
Width: 1012
GlyphClass: 2
Flags: W
HStem: -31 65<322.141 517.739> 751 84<408.176 627.353> 1373 21G<201.34 273.5> 1439 97<215.796 601.57>
VStem: 53 179<174.218 535.153> 784 162<705.825 1131.13>
LayerCount: 2
Fore
SplineSet
134 1479 m 1,0,1
 262 1536 262 1536 407 1536 c 128,-1,2
 552 1536 552 1536 680 1445 c 128,-1,3
 808 1354 808 1354 877 1195 c 128,-1,4
 946 1036 946 1036 946 852 c 128,-1,5
 946 668 946 668 908 492 c 0,6,7
 794 -31 794 -31 444 -31 c 0,8,9
 443 -31 l 0,10,11
 297 -31 297 -31 187 64 c 0,12,13
 53 180 53 180 53 366 c 0,14,15
 53 506 53 506 129 633 c 0,16,17
 249 835 249 835 453 835 c 0,18,19
 536 835 536 835 597 809 c 128,-1,20
 658 783 658 783 762 703 c 1,21,22
 784 858 784 858 784 951.5 c 128,-1,23
 784 1045 784 1045 753.5 1153 c 128,-1,24
 723 1261 723 1261 671 1333 c 0,25,26
 595 1439 595 1439 447 1439 c 0,27,28
 387 1439 387 1439 358.5 1431 c 128,-1,29
 330 1423 330 1423 217 1373 c 1,30,-1
 134 1479 l 1,0,1
748 623 m 1,31,32
 666 751 666 751 536 751 c 128,-1,33
 406 751 406 751 320 618 c 0,34,35
 233 484 233 484 232 304 c 0,36,37
 232 126 232 126 328 62 c 0,38,39
 370 34 370 34 415 34 c 0,40,41
 499 34 499 34 566 99 c 128,-1,42
 633 164 633 164 672.5 280 c 128,-1,43
 712 396 712 396 748 623 c 1,31,32
EndSplineSet
EndChar

StartChar: product
Encoding: 8719 8719 213
Width: 2039
GlyphClass: 2
Flags: W
HStem: -494 175<278 435 635 789 1236 1377 1577 1728> 1300 175<222 435 635 1377 1577 1784>
VStem: 435 200<-319 1300> 1377 200<-319 1300>
LayerCount: 2
Fore
SplineSet
435 -319 m 1,0,-1
 435 1300 l 1,1,-1
 222 1300 l 1,2,-1
 222 1475 l 1,3,-1
 1784 1475 l 1,4,-1
 1784 1300 l 1,5,-1
 1577 1300 l 1,6,-1
 1577 -319 l 1,7,-1
 1728 -319 l 1,8,-1
 1728 -494 l 1,9,-1
 1236 -494 l 1,10,-1
 1235 -319 l 1,11,-1
 1377 -319 l 1,12,-1
 1377 1300 l 1,13,-1
 635 1300 l 1,14,-1
 635 -319 l 1,15,-1
 789 -319 l 1,16,-1
 790 -494 l 1,17,-1
 278 -494 l 1,18,-1
 278 -319 l 1,19,-1
 435 -319 l 1,0,-1
EndSplineSet
EndChar

StartChar: summation
Encoding: 8721 8721 214
Width: 2039
GlyphClass: 2
Flags: W
HStem: -270 194<721 1307> 1333 195<724 1293>
VStem: 1301 187<1050 1333> 1307 196<-76 207>
LayerCount: 2
Fore
SplineSet
1488 1528 m 1,0,-1
 1488 1050 l 1,1,-1
 1301 1050 l 1,2,-1
 1293 1333 l 1,3,-1
 724 1333 l 1,4,-1
 1105 665 l 1,5,-1
 721 -76 l 1,6,-1
 1307 -76 l 1,7,-1
 1312 207 l 1,8,-1
 1503 207 l 1,9,-1
 1503 -270 l 1,10,-1
 482 -270 l 1,11,-1
 482 -96 l 1,12,-1
 877 662 l 1,13,-1
 482 1357 l 1,14,-1
 482 1528 l 1,15,-1
 1488 1528 l 1,0,-1
EndSplineSet
EndChar

StartChar: uni2219
Encoding: 8729 8729 215
Width: 569
GlyphClass: 2
Flags: W
HStem: 442 252<131 385>
VStem: 131 254<442 694>
LayerCount: 2
Fore
SplineSet
131 694 m 1,0,-1
 385 694 l 1,1,-1
 385 442 l 1,2,-1
 131 442 l 1,3,-1
 131 694 l 1,0,-1
EndSplineSet
EndChar

StartChar: radical
Encoding: 8730 8730 216
Width: 1124
GlyphClass: 2
Flags: W
LayerCount: 2
Fore
SplineSet
982 1870 m 1,0,-1
 1055 1860 l 1,1,-1
 744 -74 l 1,2,-1
 251 945 l 1,3,-1
 58 849 l 1,4,-1
 21 918 l 1,5,-1
 324 1067 l 1,6,-1
 720 257 l 1,7,-1
 982 1870 l 1,0,-1
EndSplineSet
EndChar

StartChar: infinity
Encoding: 8734 8734 217
Width: 1460
GlyphClass: 2
Flags: W
HStem: 254 106<222.558 481.469 974.31 1238.06> 722 106<222.094 482.511 979.839 1237.12>
VStem: 51 107<424.289 656.918> 1302 107<424.102 657.711>
LayerCount: 2
Fore
SplineSet
730 609 m 1,0,1
 837 704 837 704 877 734 c 0,2,3
 1000 828 1000 828 1121.5 828 c 128,-1,4
 1243 828 1243 828 1326 742.5 c 128,-1,5
 1409 657 1409 657 1409 533 c 128,-1,6
 1409 409 1409 409 1318 331.5 c 128,-1,7
 1227 254 1227 254 1113.5 254 c 128,-1,8
 1000 254 1000 254 877 348 c 0,9,10
 839 377 839 377 730 473 c 1,11,12
 622 378 622 378 582 348 c 0,13,14
 460 254 460 254 338.5 254 c 128,-1,15
 217 254 217 254 134 339.5 c 128,-1,16
 51 425 51 425 51 549 c 128,-1,17
 51 673 51 673 152 758 c 0,18,19
 233 828 233 828 346 828 c 128,-1,20
 459 828 459 828 582 734 c 0,21,22
 624 703 624 703 730 609 c 1,0,1
803 541 m 1,23,24
 985 359 985 359 1120 359 c 0,25,26
 1199 359 1199 359 1250.5 415.5 c 128,-1,27
 1302 472 1302 472 1302 543.5 c 128,-1,28
 1302 615 1302 615 1248 668.5 c 128,-1,29
 1194 722 1194 722 1117 722 c 128,-1,30
 1040 722 1040 722 929 646 c 0,31,32
 864 602 864 602 803 541 c 1,23,24
657 541 m 1,33,34
 474 722 474 722 340 722 c 0,35,36
 261 722 261 722 209.5 666 c 128,-1,37
 158 610 158 610 158 538.5 c 128,-1,38
 158 467 158 467 211.5 413.5 c 128,-1,39
 265 360 265 360 335 360 c 0,40,41
 474 360 474 360 657 541 c 1,33,34
EndSplineSet
EndChar

StartChar: integral
Encoding: 8747 8747 218
Width: 561
GlyphClass: 2
Flags: W
HStem: -215 159<133 272.075> 1711 159<347.574 487>
VStem: 235 108<1217 1699.2> 277 108<-37.6741 435.75>
LayerCount: 2
Fore
SplineSet
385 1071 m 2,0,-1
 385 603 l 2,1,2
 385 336 385 336 376 201 c 128,-1,3
 367 66 367 66 342 -32 c 0,4,5
 297 -215 297 -215 160 -215 c 0,6,7
 106 -215 106 -215 68.5 -182.5 c 128,-1,8
 31 -150 31 -150 31 -105.5 c 128,-1,9
 31 -61 31 -61 60 -31.5 c 128,-1,10
 89 -2 89 -2 129.5 -2 c 128,-1,11
 170 -2 170 -2 198 -29 c 128,-1,12
 226 -56 226 -56 240 -56 c 0,13,14
 277 -56 277 -56 277 -10 c 128,-1,15
 277 36 277 36 256 246 c 128,-1,16
 235 456 235 456 235 585 c 2,17,-1
 235 1053 l 2,18,19
 235 1326 235 1326 243.5 1457.5 c 128,-1,20
 252 1589 252 1589 277 1688 c 0,21,22
 323 1870 323 1870 460 1870 c 0,23,24
 514 1870 514 1870 551 1837.5 c 128,-1,25
 588 1805 588 1805 588 1760.5 c 128,-1,26
 588 1716 588 1716 559.5 1686.5 c 128,-1,27
 531 1657 531 1657 490 1657 c 128,-1,28
 449 1657 449 1657 421.5 1684 c 128,-1,29
 394 1711 394 1711 379 1711 c 0,30,31
 343 1711 343 1711 343 1665 c 128,-1,32
 343 1619 343 1619 364 1407 c 128,-1,33
 385 1195 385 1195 385 1071 c 2,0,-1
EndSplineSet
EndChar

StartChar: approxequal
Encoding: 8776 8776 219
Width: 1124
GlyphClass: 2
Flags: W
HStem: 129 225<575.697 928.78> 218 225<214.079 565.544> 512 225<572.862 928.863> 600 225<214.079 567.752>
LayerCount: 2
Fore
SplineSet
981 821 m 1,0,-1
 1059 694 l 1,1,2
 986 609 986 609 960 583 c 0,3,4
 889 512 889 512 793 512 c 0,5,6
 733 512 733 512 566 556 c 128,-1,7
 399 600 399 600 338 600 c 128,-1,8
 277 600 277 600 232.5 577 c 128,-1,9
 188 554 188 554 142 499 c 1,10,-1
 66 599 l 1,11,12
 92 635 92 635 128 689 c 0,13,14
 220 825 220 825 347 825 c 0,15,16
 415 825 415 825 574.5 781 c 128,-1,17
 734 737 734 737 795 737 c 128,-1,18
 856 737 856 737 895.5 755 c 128,-1,19
 935 773 935 773 981 821 c 1,0,-1
981 439 m 1,20,-1
 1059 312 l 1,21,22
 987 227 987 227 960 200 c 0,23,24
 889 129 889 129 793 129 c 0,25,26
 734 129 734 129 566.5 173.5 c 128,-1,27
 399 218 399 218 338 218 c 128,-1,28
 277 218 277 218 232.5 195 c 128,-1,29
 188 172 188 172 142 117 c 1,30,-1
 66 217 l 1,31,32
 92 253 92 253 128 307 c 0,33,34
 220 443 220 443 347 443 c 0,35,36
 415 443 415 443 574.5 398.5 c 128,-1,37
 734 354 734 354 794.5 354 c 128,-1,38
 855 354 855 354 895 372 c 128,-1,39
 935 390 935 390 981 439 c 1,20,-1
EndSplineSet
EndChar

StartChar: notequal
Encoding: 8800 8800 220
Width: 1124
GlyphClass: 2
Flags: W
HStem: 106 244<103 253 647 1094> 598 244<103 522 923 1094> 1062 20G<782.75 828.609>
LayerCount: 2
Fore
SplineSet
253 106 m 1,0,-1
 103 106 l 1,1,-1
 103 350 l 1,2,-1
 384 350 l 1,3,-1
 522 598 l 1,4,-1
 103 598 l 1,5,-1
 103 842 l 1,6,-1
 659 842 l 1,7,-1
 794 1082 l 1,8,-1
 993 967 l 1,9,-1
 923 842 l 1,10,-1
 1094 842 l 1,11,-1
 1094 598 l 1,12,-1
 786 598 l 1,13,-1
 647 350 l 1,14,-1
 1094 350 l 1,15,-1
 1094 106 l 1,16,-1
 511 106 l 1,17,-1
 372 -143 l 1,18,-1
 173 -27 l 1,19,-1
 253 106 l 1,0,-1
EndSplineSet
EndChar

StartChar: lessequal
Encoding: 8804 8804 221
Width: 1124
GlyphClass: 2
Flags: W
HStem: -20 186<56 1057>
LayerCount: 2
Fore
SplineSet
1057 166 m 1,0,-1
 1057 -20 l 1,1,-1
 56 -20 l 1,2,-1
 56 166 l 1,3,-1
 1057 166 l 1,0,-1
1057 1308 m 1,4,-1
 1057 1085 l 1,5,-1
 275 813 l 1,6,-1
 1057 544 l 1,7,-1
 1057 317 l 1,8,-1
 56 690 l 1,9,-1
 56 937 l 1,10,-1
 1057 1308 l 1,4,-1
EndSplineSet
EndChar

StartChar: greaterequal
Encoding: 8805 8805 222
Width: 1124
GlyphClass: 2
Flags: W
HStem: -20 186<56 1057>
LayerCount: 2
Fore
SplineSet
1057 166 m 1,0,-1
 1057 -20 l 1,1,-1
 56 -20 l 1,2,-1
 56 166 l 1,3,-1
 1057 166 l 1,0,-1
56 317 m 1,4,-1
 56 541 l 1,5,-1
 838 812 l 1,6,-1
 56 1082 l 1,7,-1
 56 1308 l 1,8,-1
 1057 935 l 1,9,-1
 1057 689 l 1,10,-1
 56 317 l 1,4,-1
EndSplineSet
EndChar

StartChar: uni25C6
Encoding: 9670 9670 223
Width: 2039
GlyphClass: 2
Flags: W
LayerCount: 2
Fore
SplineSet
494 678 m 1,0,-1
 1024 1277 l 1,1,-1
 1572 674 l 1,2,-1
 1037 80 l 1,3,-1
 494 678 l 1,0,-1
EndSplineSet
EndChar
